<svg width="186" height="83" viewBox="0 0 186 83" fill="none" xmlns="http://www.w3.org/2000/svg">
<path d="M185.447 80.172C185.134 78.4703 181.847 80.6323 175.417 79.4119C171.744 78.7147 168.495 76.1345 167.336 72.9908C166.602 71.0026 166.341 67.8666 169.267 64.2149C173.331 59.1384 177.621 55.5287 182.38 53.1777C182.989 52.8778 183.665 52.4137 183.465 51.4702C182.932 48.9797 174.122 53.0497 165.567 50.1658C158.951 47.9331 156.394 41.6763 161.486 34.0387C168.7 23.2173 174.775 20.9388 173.814 18.8207C173.193 17.4494 172.156 18.6068 167.368 19.8425C159.234 21.9415 147.611 22.1535 146.757 13.7538C146.432 10.5643 147.07 6.86866 147.782 1.84566C148.014 0.210798 146.721 -0.677296 145.349 0.627156C144.591 1.351 140.074 8.45196 131.61 12.9898C118.659 19.9342 114.631 11.5593 113.204 13.7443C111.185 16.8421 128.118 24.7013 144.969 5.06382C144.998 8.3049 142.744 15.4116 146.944 19.7948C151.423 24.474 161.862 23.8991 168.283 22.1096C168.136 22.2662 167.924 22.4782 167.682 22.7188C162.376 28.0245 155.565 35.8454 156.528 43.2825C158.06 55.12 173.801 53.2178 176.71 53.7048C173.344 56.4951 169.618 59.4765 167.189 62.92C163.05 68.7795 163.751 74.6849 169.11 79.1216C173.682 82.9089 178.914 82.2404 184.508 81.6426C185.283 81.5605 185.596 80.9512 185.453 80.1701L185.447 80.172Z" fill="black"/>
<path d="M74.5307 6.76365C73.0429 8.59141 63.3159 16.7294 52.9853 11.2786C49.3775 9.37255 47.2958 6.47717 45.7736 4.36292C44.5914 2.71851 43.8102 1.63369 42.9068 1.91445C41.8297 2.24868 42.8209 26.8346 21.1991 20.9828C13.7715 18.9716 12.2092 16.229 10.8628 17.7646C9.81997 18.9545 11.048 20.0717 12.6714 22.6367C18.0058 31.1013 19.5986 39.7455 17.0451 46.3556C15.435 50.521 12.299 53.4393 8.21185 54.5757C3.90888 55.7713 1.85958 53.5062 1.02496 54.9348C0.373684 56.0502 1.29806 56.625 2.01427 57.4444C6.7527 62.9124 8.87076 69.0679 7.67708 73.9133C7.02581 76.5585 5.47499 78.5983 2.9272 79.5647C2.28548 79.8072 1.40884 80.1377 1.70487 81.0449C1.9608 81.8241 2.93483 81.6808 3.71598 81.486C10.8093 79.7232 11.5924 69.2036 8.41621 62.6202C7.49565 60.716 6.21984 59.1003 4.92685 57.2362C18.2082 57.1312 27.5628 40.7252 14.6195 21.1527C14.4954 20.9656 14.4534 20.8643 14.4362 20.8128C16.2926 20.807 34.3334 32.0123 42.2537 14.0174C45.3248 7.03676 43.5085 5.31595 44.9046 7.06732C48.8065 11.9891 53.5182 15.213 59.794 15.4613C65.5772 15.6905 71.557 13.1083 76.1885 8.37941C77.6572 6.88015 75.7072 5.3064 74.5307 6.75983V6.76365Z" fill="black"/>
</svg>
