<svg width="268" height="266" viewBox="0 0 268 266" fill="none" xmlns="http://www.w3.org/2000/svg">
<path d="M220.447 80.172C220.134 78.4703 216.847 80.6323 210.417 79.4119C206.744 78.7147 203.495 76.1345 202.336 72.9908C201.602 71.0026 201.341 67.8666 204.267 64.2149C208.331 59.1384 212.621 55.5287 217.38 53.1777C217.989 52.8778 218.665 52.4137 218.465 51.4702C217.932 48.9797 209.122 53.0497 200.567 50.1658C193.951 47.9331 191.394 41.6763 196.486 34.0387C203.7 23.2173 209.775 20.9388 208.814 18.8207C208.193 17.4494 207.156 18.6068 202.368 19.8425C194.234 21.9415 182.611 22.1535 181.757 13.7538C181.432 10.5643 182.07 6.86866 182.782 1.84566C183.014 0.210798 181.721 -0.677296 180.349 0.627156C179.591 1.351 175.074 8.45196 166.61 12.9898C153.659 19.9342 149.631 11.5593 148.204 13.7443C146.185 16.8421 163.118 24.7013 179.969 5.06382C179.998 8.3049 177.744 15.4116 181.944 19.7948C186.423 24.474 196.862 23.8991 203.283 22.1096C203.136 22.2662 202.924 22.4782 202.682 22.7188C197.376 28.0245 190.565 35.8455 191.528 43.2825C193.06 55.12 208.801 53.2178 211.71 53.7048C208.344 56.4951 204.618 59.4765 202.189 62.92C198.05 68.7795 198.751 74.6849 204.11 79.1216C208.682 82.9089 213.914 82.2404 219.508 81.6426C220.283 81.5605 220.596 80.9512 220.453 80.1701L220.447 80.172Z" fill="black"/>
<path d="M109.531 6.76365C108.043 8.59141 98.3159 16.7294 87.9853 11.2786C84.3775 9.37255 82.2958 6.47717 80.7736 4.36292C79.5914 2.71851 78.8102 1.63369 77.9068 1.91445C76.8297 2.24868 77.8209 26.8346 56.1991 20.9828C48.7715 18.9716 47.2092 16.229 45.8628 17.7646C44.82 18.9545 46.048 20.0717 47.6714 22.6367C53.0058 31.1013 54.5986 39.7455 52.0451 46.3556C50.435 50.521 47.299 53.4394 43.2118 54.5757C38.9089 55.7713 36.8596 53.5062 36.025 54.9348C35.3737 56.0502 36.2981 56.625 37.0143 57.4444C41.7527 62.9124 43.8708 69.0679 42.6771 73.9133C42.0258 76.5585 40.475 78.5983 37.9272 79.5647C37.2855 79.8072 36.4088 80.1377 36.7049 81.0449C36.9608 81.8241 37.9348 81.6808 38.716 81.486C45.8093 79.7232 46.5924 69.2036 43.4162 62.6202C42.4956 60.716 41.2198 59.1003 39.9269 57.2362C53.2082 57.1312 62.5628 40.7252 49.6195 21.1527C49.4954 20.9656 49.4534 20.8643 49.4362 20.8128C51.2926 20.807 69.3334 32.0123 77.2537 14.0174C80.3248 7.03676 78.5085 5.31595 79.9046 7.06732C83.8065 11.9891 88.5182 15.213 94.794 15.4613C100.577 15.6905 106.557 13.1083 111.189 8.37941C112.657 6.88015 110.707 5.3064 109.531 6.75983V6.76365Z" fill="black"/>
<path d="M55.8076 110.288C52.2074 112.501 52.1635 112.805 51.6192 112.131C50.3415 110.544 47.574 110.462 45.7463 111.464C42.0201 113.508 41.7088 114.092 42.4422 118.496C42.5854 119.352 42.6274 119.018 37.7095 122.996C33.9757 112.282 48.7773 101.957 55.8076 110.288Z" fill="#817F82"/>
<path d="M17.8793 187.08C14.0194 178.247 5.76874 185.267 16.3323 177.576C17.4802 176.74 16.7811 179.02 19.6402 184.815C19.9821 185.51 19.8255 185.407 17.8793 187.08Z" fill="white"/>
<path d="M12.4323 195.163C7.71681 189.712 3.05287 193.146 3.69841 190.734C4.45663 187.899 6.15261 185.674 8.20192 183.661C9.10147 182.777 13.6298 183.428 15.7918 187.384C17.1306 189.834 13.9755 189.981 12.4323 195.163Z" fill="white"/>
<path d="M11.0226 203.438C4.04964 201.655 2.5752 205.344 2.37849 203.165C2.11683 200.268 2.2658 197.399 2.73373 194.534C3.04695 192.617 8.22656 193.431 11.2499 196.71C12.2087 197.749 10.104 199.067 11.0226 203.438Z" fill="white"/>
<path d="M15.0813 211.406C12.3349 211.907 9.64193 212.271 7.7244 214.714C5.84507 212.398 4.26178 210.085 3.25336 207.401C2.89812 206.454 3.03945 205.921 4.06315 205.589C12.3024 202.921 11.8937 207.657 15.0832 211.406H15.0813Z" fill="white"/>
<path d="M47.7192 228.544C46.8234 228.777 46.3842 228.37 46.2027 227.533C45.836 225.83 45.5228 226.745 46.2543 223.385C46.5866 221.853 46.6573 222.717 53.9664 221.783C55.5764 221.576 55.1563 222.316 55.8496 224.703C56.6956 227.615 56.8962 226.92 47.7192 228.544Z" fill="white"/>
<path d="M44.48 228.232C44.9135 229.187 44.14 229.338 35.9313 229.243C33.9775 229.22 35.536 224.34 36.7201 222.566C37.2644 221.748 37.3236 221.981 44.6767 222.432C44.1438 224.46 43.6167 226.328 44.48 228.234V228.232Z" fill="white"/>
<path d="M34.9556 221.787C33.9606 223.859 33.21 225.935 33.2348 228.208C33.2577 230.28 23.3301 226.16 21.5138 225.362C21.0001 225.136 21.0249 224.774 21.2178 224.374C24.795 217.018 24.0272 219.132 34.9556 221.787Z" fill="white"/>
<path d="M23.3091 218.074C18.8247 221.634 20.2934 224.766 18.542 223.828C15.1558 222.016 12.142 219.726 9.49296 216.945C8.06628 215.448 12.3272 213.522 16.3246 213.226C17.3903 213.148 16.019 213.826 23.3091 218.074Z" fill="white"/>
<path d="M68.3691 232.159C57.519 232.06 54.2474 219.019 59.8052 213.278C60.9664 212.079 64.1158 213.278 64.7117 215.043C65.9989 218.859 64.2571 223.931 67.2384 227.344C71.0391 231.697 72.2099 231.934 68.3691 232.159Z" fill="#817F82"/>
<path d="M83.7854 226.116C79.5302 221.139 77.4847 221.114 78.7892 220.133C80.1204 219.132 80.4298 216.964 83.4111 218.549C87.334 220.635 86.1823 222.019 83.7854 226.116Z" fill="#817F82"/>
<path d="M254.674 181.496C254.233 182.095 253.949 181.677 253.572 181.507C252.4 180.976 253.836 180.592 255.963 174.431C261.611 181.455 258.509 176.284 254.674 181.496Z" fill="white"/>
<path d="M263.001 200.759C262.302 198.157 260.566 196.689 258.435 195.625C256.766 194.792 258.943 194.034 258.509 190.052C258.288 188.012 262.117 188.048 264.138 188.423C265.788 188.728 266.132 195.123 263.001 200.759Z" fill="white"/>
<path d="M264.159 186.366C262.146 186.236 260.284 186.251 258.559 187.099C257.526 187.607 258.263 186.5 256.156 184.032C254.755 182.391 259.653 179.427 260.841 180.705C262.304 182.281 263.362 184.187 264.161 186.364L264.159 186.366Z" fill="white"/>
<path d="M253.964 209.03C254.182 206.213 253.807 203.732 252.635 201.417C251.909 199.989 255.106 199.653 256.447 197.218C257.027 196.163 260.288 198.507 261.877 202.495C262.144 203.165 258.935 206.895 253.964 209.03Z" fill="white"/>
<path d="M252.033 207.361C251.974 210.045 251.97 210.037 249.495 210.692C247.308 211.271 245.127 211.5 242.9 210.889C241.057 210.383 243.691 209.913 242.719 203.45C242.388 201.251 244.378 203.158 249.883 201.677C251.71 201.187 252.155 206.062 252.033 207.361Z" fill="white"/>
<path d="M232.399 218.089C231.84 218.977 232.726 215.543 234.447 212.405C237.35 207.115 235.436 202.304 236.101 201.74C237.323 200.703 238.521 199.641 239.756 198.568C242.451 207.587 239.772 214.651 232.399 218.089Z" fill="#817F82"/>
<path d="M231.851 213.108C231.429 214.151 228.876 214.506 227.388 213.956C226.618 213.672 225.975 213.179 225.312 212.717C224.771 212.34 224.605 211.865 224.79 211.273C226.005 207.386 227.841 202.562 231.725 201.339C234.145 200.577 233.849 202.801 234.034 205.547C234.819 208.5 232.835 210.679 231.851 213.108Z" fill="white"/>
<path d="M222.959 210.121C222.164 213.419 221.204 216.666 219.865 219.795C219.651 220.295 219.447 220.627 218.748 220.446C216.003 219.73 210.906 218.507 211.297 215.702C211.637 211.756 215.598 205.73 219.032 207.709C222.552 209.739 223.307 208.683 222.959 210.121Z" fill="#817F82"/>
<path d="M230.683 216.135C229.846 218.607 229.086 220.891 228.484 223.227C228.108 224.69 224.98 225.899 221.794 223.274C220.499 222.209 221.435 222.537 224.078 214.281C226.013 215.891 228.074 216.716 230.683 216.135Z" fill="white"/>
<path d="M218.767 235.053C213.182 238.676 209.271 231.661 211.58 230.419C214.444 228.878 217.206 227.193 219.343 224.672C220.526 223.278 221.242 227.537 226.559 226.882C227.739 225.895 225.052 230.975 218.767 235.053Z" fill="white"/>
<path d="M212.361 237.428C199.507 239.76 199.807 240.089 199.408 239.027C196.562 231.449 198.828 234.447 207.905 231.836C210.377 231.126 207.349 233.845 212.361 237.428Z" fill="white"/>
<path d="M196.851 240.316C184.154 242.096 184.519 242.533 184.098 241.519C183.184 239.304 183.587 237.26 184.776 235.284C185.191 234.596 185.09 234.984 195.646 233.689C197.086 233.513 196.008 234.617 196.348 234.777C196.207 238.127 198.598 240.07 196.849 240.314L196.851 240.316Z" fill="white"/>
<path d="M181.637 242.765C176.623 243.951 174.092 244.606 169.65 247.299C167.028 248.888 167.167 243.103 168.621 239.737C168.995 238.868 174.335 237.562 182.588 235.27C180.03 239.896 183.373 242.354 181.637 242.765Z" fill="white"/>
<path d="M155.339 255.248C153.034 256.495 152.45 248.687 153.651 246.984C153.97 246.529 153.678 246.751 166.016 240.589C165.628 243.002 165.005 246.418 166.652 248.246C167.547 249.241 167.37 248.743 155.339 255.248Z" fill="white"/>
<path d="M138.139 262.072C136.537 262.698 136.122 262.391 136.118 260.698C136.111 257.434 137.736 254.77 139.646 252.343C140.301 251.51 146.873 250.523 151.218 248.057C151.237 249.222 150.752 253.389 152.066 255.326C153.202 256.999 152.314 256.529 138.139 262.072Z" fill="white"/>
<path d="M134.449 262.284C134.793 263.428 127.757 264.793 116.353 262.062C115.476 261.852 115.236 261.541 115.591 260.733C118.966 253.078 125.299 254.402 127.134 254.283C135.125 253.773 136.067 252.584 136.493 253.281C136.873 253.905 133.011 257.5 134.449 262.284Z" fill="white"/>
<path d="M119.428 253.439C116.487 255.479 114.044 257.622 113.385 261.178C107.837 259.15 102.394 256.986 96.9753 254.583C99.4467 251.682 102.485 250.024 106.257 249.694C108.574 249.491 113.374 252.303 119.428 253.439Z" fill="white"/>
<path d="M104.147 248.155C100.642 248.924 97.7259 250.412 95.5506 253.124C95.1648 253.605 94.8515 253.661 94.2805 253.393C90.2048 251.482 86.5817 248.939 83.3712 245.781C80.7489 243.2 93.7171 240.754 95.4054 242.24C98.0239 244.545 101.141 246.132 104.147 248.156V248.155Z" fill="white"/>
<path d="M92.6742 239.768C88.4668 239.934 84.8876 240.664 81.8528 243.063C80.7795 243.911 75.894 235.773 75.2351 234.573C74.5723 233.366 79.8837 230.795 84.6756 231.815C86.8854 232.285 87.5424 235.339 92.6742 239.768Z" fill="white"/>
<path d="M83.6556 229.487C79.7938 229.877 76.5623 230.862 73.9629 232.444C71.4208 227.081 66.1362 225.283 67.561 221.985C68.3612 220.131 75.4908 218.11 83.6556 229.487Z" fill="white"/>
<path d="M130.104 133.846C115.652 136.012 102.115 139.801 93.2528 144.822C92.8345 144.123 92.1433 143.682 91.1177 143.445C83.7971 141.76 58.9684 125.444 22.0942 147.419C24.4262 135.458 50.3837 111.109 82.9529 101.279C98.1881 103.332 116.922 114.029 130.104 133.846Z" fill="#FF70E5"/>
<path d="M86.7059 165.08C78.3196 165.732 69.9409 168.325 58.4396 175.875C48.0059 182.724 42.1979 192.976 37.9484 204.445C22.8718 192.77 13.4694 172.769 19.7739 152.857C22.1307 145.415 57.2803 129.568 91.6907 145.749C82.5901 151.432 79.5037 159.486 86.7059 165.08Z" fill="white"/>
<path d="M124.846 231.504C124.529 232.589 124.147 232.828 123.106 232.787C110.749 232.308 97.594 230.553 85.6171 227.476C87.5747 223.568 89.7195 220.683 85.9991 217.676C79.7213 212.602 77.6318 220.102 75.8251 219.338C73.0405 218.161 70.2253 218.158 67.4311 219.374C67.2459 217.965 67.1275 216.655 66.8868 215.369C65.9758 210.51 59.763 208.719 56.8504 213.471C55.6185 215.48 56.0903 216.544 54.6082 215.747C49.6425 213.079 44.9136 210.046 40.4559 206.584C39.7703 206.051 39.7072 205.581 39.9632 204.785C40.3566 203.559 45.16 191.022 51.8656 184.456C69.6122 167.078 84.5132 167.698 90.239 167.299C98.7609 171.707 113.599 174.412 127.864 175.097C130.192 190.333 129.245 216.446 124.848 231.508L124.846 231.504Z" fill="#FF70E5"/>
<path d="M183.72 223.784C183.569 224.81 183.701 225.794 182.232 226.183C163.938 231.044 146.013 233.149 128.221 232.896C125.024 232.851 128.08 232.301 130.246 216.494C131.836 204.888 131.899 187.558 130.167 175.187C143.427 175.625 155.166 174.387 168.088 170.12C171.489 174.332 178.384 182.844 181.707 198.623C183.459 206.939 184.979 215.238 183.72 223.784Z" fill="white"/>
<path d="M230.386 115.637C224.131 117.18 203.549 119.063 186.562 135.607C178.705 132.887 167.736 131.692 155.849 131.791C157.463 122.087 161.863 99.8233 170.116 94.594C192.809 97.2545 214.525 103.731 230.386 115.637Z" fill="#FF70E5"/>
<path d="M248.845 183.583C245.154 189.353 240.639 194.393 235.572 198.967C233.843 200.528 232.522 197.292 228.073 200.921C223.935 204.298 224.936 208.553 222.445 206.88C221.664 206.355 220.705 206.085 219.821 205.707C218.058 204.953 216.379 205.029 214.781 206.177C207.968 211.072 210.64 215.476 208.178 216.643C199.377 220.818 192.372 223.02 185.422 225.263C186.062 217.069 186.631 215.238 186.169 211.981C183.913 196.141 180.895 180.285 169.992 169.467C182.353 164.316 184.203 162.498 189.406 159.841C199.379 160.338 200.392 159.652 216.843 164.479C224.829 166.822 251.672 179.167 248.847 183.581L248.845 183.583Z" fill="#FF70E5"/>
<path d="M250.482 180.749C238.207 167.133 200.174 154.918 191.186 158.315C202.75 149.049 199.738 141.048 188.818 136.466C193.459 133.088 200.394 127.633 203.377 126.079C210.304 122.467 225.633 118.147 231.047 117.727C232.405 117.622 233.545 117.872 234.678 118.804C255.016 135.536 263.044 157.706 250.48 180.747L250.482 180.749Z" fill="white"/>
<path d="M167.333 94.2847C160.055 101.09 155.912 119.176 153.823 131.818C146.758 131.959 139.42 132.551 132.258 133.539C120.165 114.965 103.377 103.788 87.2347 100.058C108.681 94.3153 138.626 91.3168 167.333 94.2847Z" fill="white"/>
<path d="M257.732 173.426C256.023 171.654 258.007 171.241 258.763 163.405C262.411 125.599 219.298 98.7633 181.604 93.238C146.695 88.1195 100.661 89.9473 68.1511 104.042C57.536 108.645 58.1471 109.533 57.1941 108.357C49.7952 99.2274 31.7831 109.961 35.3164 121.957C35.9886 124.243 35.1063 125.246 33.6108 126.692C19.493 140.349 13.0777 157.622 16.0055 174.079C16.418 176.39 15.0869 174.815 6.98702 181.723C-0.539837 188.136 -2.9864 204.896 4.68561 214.842C13.9295 226.827 28.5019 233.043 43.6607 231.472C55.2422 230.278 56.9897 228.538 58.4069 230.02C65.7924 237.742 71.2642 232.449 72.7005 234.833C76.6176 241.344 81.3828 248.64 88.3787 252.82C97.5175 258.281 115.755 265.855 127.065 265.855C146.751 265.855 170.746 247.593 179.969 245.37C188.871 243.229 213.774 240.085 217.479 238.255C230.436 231.859 229.897 222.507 231.926 221.219C235.469 218.968 239.288 217.102 241.277 213.097C241.389 212.869 241.462 212.785 241.752 212.879C246.03 214.254 252.195 213.184 257.096 210.216C261.019 207.841 266.004 203.232 267.465 194.771C268.911 186.396 263.643 179.559 257.728 173.424L257.732 173.426ZM55.5153 110.244C52.0756 112.369 52.1673 112.511 51.7681 112.012C50.4026 110.328 47.5053 110.284 45.6546 111.298C41.8253 113.399 41.5082 114.075 42.2626 118.575C42.3715 119.232 42.3237 119.029 37.8069 122.677C34.5104 112.39 48.5996 102.405 55.5172 110.246L55.5153 110.244ZM45.158 114.422C46.9533 113.156 48.1833 112.574 49.7952 113.72L44.2432 117.538C43.9013 116.052 44.1821 115.11 45.158 114.422ZM184.941 235.383C185.292 234.802 185.284 235.146 195.67 233.878C196.322 233.802 196.278 233.93 196.161 234.306C196.11 234.474 196.035 234.713 196.155 234.864C196.075 237.618 197.592 239.369 197.263 239.929C197.112 240.186 197.271 239.984 188.319 241.399C185.777 241.802 184.429 241.817 184.276 241.445C183.459 239.47 183.678 237.486 184.943 235.381L184.941 235.383ZM153.821 247.07C154.073 246.711 154.043 246.77 165.765 240.925C165.364 243.416 164.877 246.563 166.547 248.418C167.104 249.037 167.673 248.403 155.246 255.08C153.277 256.138 152.631 248.76 153.819 247.07H153.821ZM252.803 201.332C252.188 200.121 255.261 199.764 256.613 197.311C256.651 197.244 256.722 197.157 256.92 197.157H256.966C258.045 197.225 260.507 199.336 261.699 202.565C261.892 203.085 258.993 206.574 254.176 208.729C254.352 205.883 253.914 203.526 252.803 201.33V201.332ZM242.233 199.315C240.818 195.031 245.081 195.379 251.397 184.305C251.947 183.339 252.285 183.35 252.996 184.091C254.863 186.026 256.401 187.842 256.281 190.505C255.87 199.576 247.008 200.039 244.096 200.191C242.85 200.256 242.623 200.499 242.231 199.315H242.233ZM254.52 181.383C254.279 181.711 254.176 181.648 253.907 181.476C253.635 181.307 253.393 181.226 253.353 181.112C253.192 180.653 254.352 179.584 256.03 174.819C261.183 181.194 258.36 176.157 254.518 181.383H254.52ZM258.473 186.929C257.698 187.311 258.393 186.362 256.298 183.91C255.085 182.485 259.673 179.735 260.698 180.837C262.012 182.248 263.051 183.992 263.876 186.158C262.165 186.058 260.23 186.064 258.473 186.929ZM258.202 194.049C259.398 190.692 258.168 189.918 259.033 189.118C260.03 188.192 262.749 188.36 264.104 188.61C265.576 188.879 265.857 194.907 263.053 200.262C262.367 198.165 260.95 196.67 258.521 195.453C257.826 195.105 257.914 194.863 258.202 194.049ZM234.615 212.499C237.52 207.21 235.707 202.325 236.225 201.889C237.056 201.187 239.334 199.189 239.657 198.91C242.151 207.59 239.539 214.476 232.461 217.85C232.636 217.004 233.408 214.703 234.615 212.499ZM207.957 232.02C208.812 231.775 208.826 231.899 208.929 232.644C209.061 233.599 209.303 235.339 211.891 237.32C199.714 239.539 199.907 239.82 199.586 238.96C196.841 231.621 198.797 234.657 207.957 232.02ZM151.907 255.435C152.559 256.394 152.786 256.378 146.961 258.529C138.001 261.839 137.153 262.454 136.638 262.1C136.41 261.946 136.309 261.514 136.307 260.699C136.3 257.356 138.066 254.659 139.795 252.463C140.383 251.716 146.68 250.737 151.021 248.386C150.966 250.292 150.704 253.663 151.905 255.437L151.907 255.435ZM95.2753 242.385C97.8021 244.615 100.734 246.134 103.669 248.07C100.077 248.936 97.3686 250.551 95.3995 253.006C95.0748 253.41 94.859 253.456 94.3586 253.219C90.3688 251.35 86.7152 248.802 83.5028 245.643C81.1976 243.376 93.6596 240.96 95.2753 242.383V242.385ZM56.6842 213.37C55.8591 214.714 55.756 215.692 55.4427 215.807C54.8087 216.036 46.048 210.692 40.5705 206.431C39.986 205.978 39.8905 205.621 40.1407 204.84C40.7614 202.89 45.5877 190.867 51.9954 184.588C68.3364 168.589 82.141 167.899 88.776 167.569C89.2974 167.542 89.771 167.519 90.1969 167.488C98.1917 171.608 112.193 174.515 127.696 175.277C129.9 189.918 129.212 215.91 124.663 231.451C124.382 232.419 124.09 232.633 123.112 232.596C110.205 232.085 97.3399 230.272 85.8921 227.348C87.9414 223.293 89.8379 220.537 86.1174 217.526C79.7728 212.401 77.4446 219.816 75.8957 219.159C73.1302 217.986 70.336 217.965 67.5839 219.096C67.4215 217.816 67.3012 216.563 67.0701 215.329C66.1209 210.281 59.6865 208.473 56.6842 213.366V213.37ZM46.4414 223.427C46.7337 222.071 46.6897 222.91 53.9912 221.974C55.034 221.842 55.0531 222.052 55.2938 223.211C56.0978 227.109 57.4519 226.756 51.7528 227.675C45.8532 228.624 46.938 228.947 46.134 226.573C45.9372 225.992 45.9029 225.887 46.4414 223.425V223.427ZM2.92279 194.569C3.1959 192.888 8.19025 193.675 11.1105 196.842C11.4332 197.191 11.3377 197.562 11.0914 198.366C10.7877 199.349 10.337 200.814 10.7762 203.184C6.84378 202.243 4.69707 203.041 3.53204 203.475C2.69933 203.786 2.62866 203.82 2.56946 203.152C2.32117 200.39 2.43195 197.581 2.92279 194.569ZM16.4429 177.733C16.7809 177.487 16.8153 177.498 17.182 178.841C19.3268 186.639 20.8012 184.341 17.9479 186.773C15.6235 181.721 11.7178 181.908 11.3435 181.599C11.3874 181.31 13.1292 180.145 16.4429 177.733ZM183.529 223.759C183.359 224.892 183.487 225.654 182.181 226.002C164.161 230.782 146.508 232.975 128.223 232.709C125.312 232.669 128.25 232.47 130.434 216.523C132.062 204.647 132.039 187.395 130.387 175.388C144.451 175.831 156.073 174.274 168.021 170.344C171.375 174.494 178.235 183.06 181.52 198.664C183.292 207.077 184.792 215.327 183.531 223.758L183.529 223.759ZM222.77 210.079C221.849 213.91 220.868 216.974 219.685 219.722C219.475 220.217 219.336 220.404 218.791 220.262C216.163 219.583 211.114 218.372 211.482 215.725C211.761 212.493 214.634 207.512 217.615 207.512C218.982 207.512 219.215 208.433 222.208 209.271C222.68 209.403 222.867 209.672 222.77 210.077V210.079ZM78.9 220.289C79.916 219.523 80.3056 218.184 81.6044 218.184C82.7369 218.184 85.3573 219.621 85.7163 220.9C85.9493 221.727 85.7278 222.44 83.7511 225.793C79.471 220.853 77.8362 221.088 78.9 220.289ZM250.438 180.424C238.528 167.498 202.739 155.428 192.03 157.87C202.202 149.314 200.439 141.274 189.198 136.426C193.824 133.046 200.541 127.773 203.461 126.25C210.21 122.732 225.432 118.351 231.059 117.921C232.491 117.811 233.536 118.12 234.554 118.957C256.139 136.728 261.922 159.119 250.436 180.426L250.438 180.424ZM186.957 135.003C186.444 135.424 185.668 135.194 183.97 134.69C174.971 132.026 165.723 131.541 156.071 131.598C158.034 119.869 162.446 99.7622 170.158 94.7908C194.901 97.6995 215.56 104.875 229.943 115.547C217.915 118.447 208.299 117.681 186.959 135.002L186.957 135.003ZM153.657 131.632C146.689 131.78 139.522 132.352 132.348 133.336C121.244 116.33 105.127 104.241 88.0139 100.053C111.464 93.8912 140.855 91.7961 166.9 94.4374C159.927 101.326 155.857 118.378 153.657 131.632ZM129.774 133.705C114.647 135.998 101.717 139.851 93.312 144.57C92.8612 143.921 92.1546 143.493 91.1576 143.262C83.6384 141.533 59.1288 125.339 22.3692 147.036C25.1634 135.185 50.3185 111.346 82.9642 101.477C96.4022 103.301 115.715 112.727 129.775 133.707L129.774 133.705ZM86.2072 164.933C76.9633 165.737 68.5942 168.98 58.3286 175.718C49.2967 181.646 42.975 190.417 37.8527 204.137C21.2271 191.144 14.2007 171.068 19.9475 152.918C22.3253 145.401 57.3202 130.005 91.2856 145.777C83.201 150.945 79.0031 158.947 86.2053 164.931L86.2072 164.933ZM8.32967 183.801C9.1853 182.96 13.5742 183.74 15.6178 187.477C16.8096 189.658 13.8855 190.023 12.3443 194.785C9.55773 191.723 6.82086 191.631 5.16881 191.578C4.03434 191.54 3.67337 191.542 3.87773 190.785C4.53473 188.337 5.90603 186.184 8.32967 183.801ZM4.11456 205.774C12.0368 203.217 11.6815 207.491 14.7202 211.28C11.9355 211.784 9.55773 212.212 7.71851 214.414C5.5718 211.746 4.28454 209.619 3.42509 207.338C3.09659 206.465 3.22646 206.064 4.11265 205.776L4.11456 205.774ZM16.4734 213.414C17.1151 213.414 16.334 214.206 22.9689 218.102C18.7691 221.571 20.0583 224.43 18.6278 223.664C15.2683 221.867 12.2392 219.563 9.62649 216.817C8.1425 215.259 14.0593 213.414 16.4753 213.414H16.4734ZM21.3837 224.464C24.8636 217.323 23.9373 219.281 34.6766 221.92C33.8362 223.7 33.013 225.824 33.0379 228.213C33.0512 229.923 23.2249 225.916 21.5824 225.19C21.2692 225.052 21.1813 224.877 21.3818 224.462L21.3837 224.464ZM36.8729 222.675C37.3275 221.993 37.2797 222.169 44.4265 222.612C43.9109 224.567 43.4372 226.422 44.2986 228.316C44.585 228.945 44.4074 229.151 35.9256 229.057C34.2201 229.035 35.8244 224.246 36.8729 222.677V222.675ZM13.7155 204.804C11.0131 198.99 16.6472 190.854 20.1175 187.985C22.5087 186.005 22.2661 199.158 48.6512 215.234C53.8079 218.375 54.864 218.324 54.7743 219.065C54.4458 219.775 45.9124 220.106 43.7963 219.993C29.2334 219.22 19.1205 216.431 13.7155 204.804ZM59.9367 213.416C60.9833 212.329 63.9723 213.471 64.5242 215.108C65.017 216.573 65.0571 218.204 65.0972 219.93C65.2366 225.761 66.0044 226.347 68.959 229.546C69.8891 230.553 70.6263 231.349 70.527 231.594C70.4239 231.85 69.1825 231.922 68.3574 231.972C57.727 231.871 54.4611 219.065 59.9367 213.416ZM67.729 222.065C67.9582 221.534 68.831 220.929 70.2615 220.774C72.1676 220.57 77.2212 221.003 83.3003 229.336C79.6563 229.739 76.5432 230.694 74.0355 232.176C71.4495 226.941 66.3902 225.165 67.729 222.065ZM84.6277 232.008C86.6541 232.44 87.4639 235.421 92.1832 239.606C83.6498 240.041 82.1831 243.059 81.6101 242.937C80.298 242.671 76.1784 235.918 75.3953 234.491C74.9159 233.618 79.7403 230.969 84.6277 232.008ZM106.269 249.891C108.448 249.7 113.14 252.37 118.945 253.548C116.511 255.267 113.973 257.415 113.236 260.93C107.51 258.833 102.287 256.734 97.2826 254.522C99.7425 251.718 102.684 250.204 106.269 249.892V249.891ZM115.761 260.817C117.953 255.867 121.338 254.344 126.21 254.478C127.875 254.524 131.752 254.167 135.087 253.439C136.613 253.105 136.559 253.164 135.795 254.48C134.896 256.025 133.223 258.898 134.262 262.347C134.262 262.347 134.281 262.412 134.195 262.503C133.393 263.351 126.92 264.408 116.395 261.887C115.6 261.696 115.472 261.484 115.763 260.819L115.761 260.817ZM110.528 248.303C104.023 245.624 94.7673 240.381 87.5957 230.614C90.6362 229.936 142.362 246.288 201.937 222.266C209.567 219.189 209.389 218.498 210.42 219.384C216.505 224.6 221.347 220.207 214.634 225.83C207.831 231.527 198.283 230.583 185.649 232.474C159.413 236.395 157.954 246.84 130.566 251.751C126.632 252.454 119.302 251.919 110.528 248.303ZM211.666 230.593C219.034 226.634 219.196 224.625 219.809 224.588C220.715 224.535 221.905 227.642 226.557 227.081C226.089 228.124 223.452 231.789 218.658 234.898C216.408 236.357 214.637 235.954 213.549 235.362C211.383 234.182 210.365 231.294 211.666 230.593ZM224.17 214.611C226.192 216.223 228.184 216.794 230.388 216.395C229.588 218.767 228.874 220.933 228.293 223.186C227.942 224.556 224.93 225.622 221.91 223.135C220.762 222.19 221.578 222.633 224.17 214.613V214.611ZM225.679 212.751C225.073 212.325 224.746 212.042 224.966 211.336C226.276 207.134 228.11 202.682 231.775 201.526C233.95 200.839 233.624 202.703 233.843 205.6C234.609 208.477 232.665 210.576 231.668 213.041C231.311 213.918 228.944 214.334 227.447 213.782C226.803 213.543 226.257 213.158 225.679 212.751ZM235.44 198.83C233.847 200.264 232.426 197.12 227.949 200.778C223.686 204.252 224.829 208.261 222.548 206.727C221.74 206.185 220.762 205.912 219.892 205.537C217.974 204.718 216.265 204.878 214.666 206.028C207.821 210.946 210.399 215.381 208.092 216.477C199.983 220.324 193.634 222.421 185.63 224.999C186.264 216.997 186.818 215.215 186.352 211.96C184.154 196.448 181.102 180.405 170.334 169.551C177.63 166.952 184.152 163.663 189.249 160.021C189.765 160.922 193.793 157.931 216.782 164.668C223.772 166.719 251.418 179.211 248.679 183.484C245.236 188.868 240.906 193.887 235.44 198.83ZM242.948 210.711C242.291 210.53 242.342 210.461 242.57 209.758C243.798 205.961 242.56 203.135 242.971 202.669C243.421 202.153 245.629 203.028 249.928 201.868C251.445 201.465 251.98 205.877 251.838 207.355C251.783 209.886 251.783 209.894 249.441 210.514C246.937 211.179 244.873 211.242 242.946 210.713L242.948 210.711ZM168.791 239.818C169.136 239.016 176.297 237.203 182.21 235.576C180.924 238.173 181.455 240.1 181.78 241.275C181.999 242.071 182.145 242.452 181.589 242.583C176.444 243.808 173.982 244.455 169.547 247.14C167.076 248.638 167.576 242.637 168.791 239.818Z" fill="black"/>
<path d="M144.623 77.3971C150.717 74.5342 158.326 70.2274 162.505 66.2319C164.675 64.1558 163.842 62.3357 162.595 55.166C161.636 49.6522 160.314 44.2453 158.053 39.0943C151.514 24.2029 88.1132 39.9347 74.0469 57.8456C72.093 60.3361 72.179 60.7906 79.7097 83.4361C81.1593 87.7964 82.076 89.0168 82.4618 89.7922C83.5008 91.8874 118.074 89.8725 144.623 77.3971Z" fill="#D3D9D7"/>
<path d="M111.049 149.203C109.068 141.98 106.685 134.874 104.954 127.58C103.062 119.595 108.495 127.643 162.687 103.126C164.564 102.276 163.676 102.681 172.964 125.681C175.565 132.123 112.514 154.543 111.049 149.203Z" fill="white"/>
<path d="M144.023 109.155L139.512 111.112C140.786 107.745 140.685 107.083 144.023 109.155Z" fill="#FEF99E"/>
<path d="M150.272 106.156C150.253 106.297 150.276 106.46 150.209 106.574C149.845 107.21 146.057 108.209 145.379 107.848C144.713 107.493 144.081 106.93 143.378 106.815C141.554 106.517 142.092 105.619 142.631 104.594C143.792 102.384 143.779 102.373 146.155 103.213C150.001 104.573 150.07 104.334 150.27 106.158L150.272 106.156Z" fill="#FEF99E"/>
<path d="M150.88 99.47C150.381 100.536 150.374 101.72 149.973 102.875L144.558 100.87C148.137 94.9111 147.262 95.4573 149.673 96.481C151.825 97.3959 151.846 97.4054 150.88 99.47Z" fill="#FEF99E"/>
<path d="M114.214 105.098C113.597 106.645 113.557 106.682 112.331 105.517C110.161 103.454 109.8 103.937 111.17 101.594C114.437 104.585 114.498 104.384 114.214 105.098Z" fill="#FEF99E"/>
<path d="M121.981 116.907C121.863 117.333 111.8 119.938 109.38 120.452C109.767 117.318 111.601 115.503 114.294 114.539C118.394 113.072 122.212 116.071 121.981 116.907Z" fill="#FFF1CE"/>
<path d="M125.711 115.809C124.724 116.449 124.099 116.638 123.261 115.354C121.261 112.3 115.873 111.46 112.384 113.37C106.026 116.848 109.231 121.386 106.255 121.323C104.901 112.703 118.685 105.935 125.711 115.809Z" fill="#FEF99E"/>
<path d="M112.229 107.992C111.952 108.777 110.742 110.246 110.312 110.471C109.08 109.334 108.868 108.718 108.114 108.25C107.065 107.596 107.294 107.083 107.909 106.281C108.685 105.27 109.374 104.711 110.371 105.992C110.745 106.473 112.434 107.415 112.229 107.992Z" fill="#FEF99E"/>
<path d="M107.812 113.418C106.769 114.46 105.803 114.399 104.911 113.236C102.934 110.66 103.501 110.509 106.154 108.547C109.666 111.779 109.651 111.578 107.812 113.418Z" fill="#FEF99E"/>
<path d="M99.674 119.864C98.3561 120.538 99.2328 120.278 95.9325 116.982C97.3344 115.584 97.6113 115.582 98.6866 117.026C100.369 119.281 100.321 119.531 99.674 119.864Z" fill="#FEF99E"/>
<path d="M109.191 100.787C108.551 104.055 100.812 111.265 96.1197 114.462C94.3836 115.646 92.8996 115.27 91.1425 114.892C89.7731 114.598 89.5611 114.359 90.3022 113.1C93.4917 107.68 97.9589 103.58 103.236 100.289C105.249 99.0342 108.584 98.297 109.191 100.787Z" fill="#FFF1CE"/>
<path d="M104.987 116.034C101.383 119.109 101.96 119.006 100.732 117.241C99.4446 115.389 99.7463 113.869 101.628 112.671C101.968 112.455 102.195 112.304 102.497 112.711C103.833 114.52 104.422 115.165 104.987 116.034Z" fill="#FEF99E"/>
<path d="M103.341 128.321C103.795 130.168 102.709 129.224 101.194 129.363C99.2689 129.539 101.505 128.122 99.9106 122.832C99.5821 121.739 99.5668 122.102 104.513 119.063C104.477 119.608 104.309 120.129 104.443 120.551C104.821 121.747 104.217 122.056 103.215 122.186C101.183 122.448 102.334 124.22 103.341 128.321Z" fill="#D9E9FF"/>
<path d="M98.6367 126.972C98.5393 129.4 98.5508 129.4 96.0794 129.915C97.252 122.054 91.4498 115.32 83.6899 120.186C81.1097 115.127 99.1676 113.704 98.6367 126.972Z" fill="#FEF99E"/>
<path d="M94.4578 128.309C93.4074 132.902 90.9417 129.833 87.0188 135.993C86.1422 132.125 85.0249 131.18 87.651 130.823C88.8981 130.653 89.2438 129.157 88.6422 127.832C88.1991 126.854 86.8412 125.486 87.4657 124.942C88.774 123.804 90.0498 126.352 90.7221 125.017C92.0915 122.297 82.7483 121.751 86.2148 127.179C87.0035 128.414 88.1094 129.461 85.8672 129.547C85.3572 129.566 85.3343 129.211 85.2598 128.859C83.8331 122.157 83.581 122.184 84.4538 121.632C91.6923 117.066 95.1416 125.322 94.4597 128.305L94.4578 128.309Z" fill="#FFF1CE"/>
<path d="M105.235 135.673C98.9041 131.846 91.6465 134.951 88.5162 140.689C86.0028 136.43 93.9307 130.163 103.431 131.678C104.326 131.821 104.208 132.14 105.233 135.671L105.235 135.673Z" fill="#FEF99E"/>
<path d="M107.966 145.221C101.794 145.083 101.721 146.187 101.589 145.276C101.11 141.997 96.1519 143.2 96.2131 141.342C96.2971 138.788 99.4217 140.162 99.1142 138.508C98.9709 137.734 98.3082 137.864 97.7811 137.885C94.1657 138.026 92.8192 143.313 96.7115 144.195C98.9022 144.692 101.234 145.616 99.2536 146.678C96.1195 148.359 93.9689 150.878 92.548 154.598C91.6007 151.256 90.9055 148.244 89.8608 145.355C87.9643 140.11 97.2578 132.379 104.664 137.564C106.368 138.758 106.186 139.166 107.966 145.221Z" fill="#FFF1CE"/>
<path d="M108.874 148.674C108.868 149.171 108.452 148.936 108.186 148.907C101.058 148.156 95.6706 152.123 94.6565 159.098C94.6298 159.287 94.5381 159.465 94.4521 159.723C90.81 149.268 108.931 143.342 108.874 148.674Z" fill="#FEF99E"/>
<path d="M105.738 150.603C96.6562 150.546 93.4247 164.007 98.5985 166.776C100.331 167.704 101.985 169.1 104.013 168.911C117.684 167.637 116.895 150.672 105.738 150.603ZM111.208 158.153C110.216 158.346 110.635 156.98 109.565 156.207C108.883 155.714 108.247 155.053 107.268 155.595C106.299 156.132 106.408 156.976 106.526 157.857C106.729 159.371 107.718 164.028 102.9 164.188C99.5955 164.297 98.2586 159.329 99.7426 159.133C100.375 159.048 100.476 159.558 100.623 160.103C101.643 163.903 105.344 162.152 105.09 159.933C104.958 158.785 103.507 153.441 107.999 153.552C111.467 153.636 112.862 157.832 111.208 158.153Z" fill="#FFF1CE"/>
<path d="M106.815 170.298C116.529 167.081 117.906 158.548 113.051 151.839C114.42 151.317 115.325 151.518 116.133 152.893C122.027 162.916 111.362 172.752 106.815 170.298Z" fill="#FEF99E"/>
<path d="M120.597 154.215C119.141 154.78 118.765 154.215 118.276 153.05C117.184 150.452 117.233 151.044 121.659 150.374C122.165 150.223 122.228 150.544 122.342 151.002C122.946 153.451 122.906 153.317 120.597 154.215Z" fill="#FEF99E"/>
<path d="M127.543 161.363C125.274 164.664 124.412 168.321 124.594 172.315C124.701 174.664 113.513 171.318 116.563 167.926C119.649 164.492 118.96 161.386 120.001 160.987C123.538 159.629 128.645 159.759 127.543 161.361V161.363Z" fill="#FFF1CE"/>
<path d="M130.618 158.082C127.938 160.47 126.08 156.151 119.686 159.31C119.481 156.165 119.472 156.107 122.258 155.664C125.06 155.217 127.814 155.34 130.411 156.682C131.217 157.099 131.506 157.291 130.616 158.084L130.618 158.082Z" fill="#FEF99E"/>
<path d="M138.561 154.432C134.554 154.868 133.794 156.749 132.763 155.897C130.805 154.278 128.448 153.636 125.975 153.628C123.99 153.621 124.516 152.07 124.176 151.067C123.395 148.766 126.347 150.215 141.225 144.686C138.072 152.106 141.084 154.159 138.561 154.432Z" fill="#D9E9FF"/>
<path d="M177.156 164.421C176.371 164.832 176.027 164.805 175.527 163.974C167.351 150.441 150.035 156.633 149.751 169.488C149.697 171.946 149.98 172.414 149.136 172.42C148.099 172.427 148.236 172.313 148.126 169.419C147.56 154.631 168.027 148.752 177.362 162.88C177.729 163.436 178.09 163.93 177.158 164.419L177.156 164.421Z" fill="#FEF99E"/>
<path d="M136.366 165.349C136.546 163.691 135.308 163.999 134.835 164.994C134.019 166.709 134.73 169.78 136.101 170.531C138.059 171.602 140.507 170.895 141.773 168.854C143.366 166.285 143.637 164.597 145.36 165.235C147.709 166.104 145.702 167.821 146.678 171.766C146.859 172.5 146.642 172.708 145.901 172.765C128.679 174.072 129.604 173.373 129.691 172.146C130.442 161.57 141.091 157.333 147.369 161.178C148.872 162.099 147.255 162.985 147.239 163.932C143.92 162.649 142.889 163.032 141.166 166.107C140.14 167.935 139.375 169.715 137.392 169.056C135.868 168.548 136.195 166.919 136.366 165.349Z" fill="#FFF1CE"/>
<path d="M150.314 158.351C149.755 159.784 149.063 159.809 147.742 159.152C139.31 154.971 127.919 161.31 128.072 172.322C128.079 172.922 127.965 173.266 127.231 173.214C126.576 173.168 126.259 173.048 126.225 172.278C125.629 159.148 139.667 151.858 150.316 158.35L150.314 158.351Z" fill="#FEF99E"/>
<path d="M166.268 168.921C164.696 169.467 166.172 168.042 161.938 166.6C159.151 165.651 160.624 162.813 162.459 162.536C162.933 162.464 164.211 162.796 164.236 161.873C164.278 160.326 160.198 159.927 158.899 163.457C157.152 168.205 162.286 168.245 163.481 169.67C159.791 170.743 156.128 171.434 152.442 172.038C149.667 172.492 151.753 160.903 159.996 158.663C165.154 157.261 171.256 159.992 173.865 164.824C174.581 166.152 174.234 166.152 166.268 168.925V168.921Z" fill="#FFF1CE"/>
<path d="M190.701 145.137C189.893 141.273 188.277 141.119 184.228 140.826C171.847 141.008 172.249 155.169 174.417 156.818C179.629 160.785 178.703 163.554 180.258 162.553C183.875 160.223 187 157.335 189.628 153.964C192.139 150.744 191.797 150.381 190.701 145.137ZM183.499 157.234C181.367 157.521 178.753 155.267 179.773 154.285C180.26 153.817 180.68 154.182 181.106 154.495C183.111 155.966 184.826 155.647 185.731 153.749C186.661 151.795 184.093 151.077 182.36 150.118C179.005 148.26 180.028 144.883 182.985 143.934C184.261 143.525 187.173 143.389 187.034 144.849C186.874 146.55 182.735 144.209 182.112 147.074C181.822 148.416 184.988 149.012 186.386 150.315C188.636 152.41 187.895 156.642 183.499 157.234Z" fill="#FFF1CE"/>
<path d="M189.561 139.921C185.741 138.473 182.007 138.571 178.281 140.284C169.255 144.434 172.381 154.805 171.631 155.179C164.44 151.915 173.395 133.269 187.208 136.523C189.181 136.988 189.331 137.201 189.561 139.921Z" fill="#FEF99E"/>
<path d="M168.004 153.525C161.579 152.301 160.611 153.474 160.418 153.032C159.52 150.974 154.642 151.296 154.967 148.928C155.427 145.586 159.004 146.944 158.8 145.361C158.641 144.137 157.608 144.715 156.961 144.769C154.711 144.954 152.595 147.637 153.193 149.761C154.039 152.773 157.866 153.057 158.204 153.621C152.127 155.471 152.608 157.576 151.044 156.621C146.355 153.752 145.358 155.681 145.633 152.868C146.479 144.221 159.19 138.487 167.072 145.985C168.75 147.582 166.739 147.508 168.004 153.525Z" fill="#FFF1CE"/>
<path d="M168.68 144.566C159.976 136.569 145.211 141.468 144.014 152.803C143.855 154.299 143.043 154.108 142.079 154.113C140.859 154.121 141.223 153.252 141.198 152.61C141.134 150.912 141.512 149.275 141.98 147.669C142.637 145.412 143.678 143.791 146.298 142.981C159.531 138.892 158.695 136.938 160.949 137.555C163.987 138.384 166.644 139.887 169.035 141.925C170.397 143.084 168.466 143.613 168.68 144.57V144.566Z" fill="#FEF99E"/>
<path d="M166.272 137.524L162.763 136.013L166.012 134.323L166.272 137.524Z" fill="#D9E9FF"/>
<path d="M171.178 140.448C170.399 141.68 166.709 136.817 167.815 133.542C168.147 132.56 169.322 132.484 169.99 131.762C170.086 134.457 169.998 137.039 171.715 139.249C172.196 139.868 171.415 140.074 171.178 140.448Z" fill="#FEF99E"/>
<path d="M188.587 134.822C184.971 134.281 184.049 134.684 183.558 132.694C183.025 130.536 178.86 130.452 179.066 128.764C179.177 127.856 180.739 126.961 181.896 127.007C182.295 127.022 182.899 127.322 182.922 126.581C182.983 124.642 178.884 125.349 177.822 127.923C176.348 131.495 180.735 131.783 182.001 133.363C183.797 135.597 179.847 133.248 173.193 138.458C171.669 136.583 171.547 134.457 171.694 132.318C171.974 128.225 175.152 129.615 175.384 126.122C175.506 124.264 182.647 121.751 186.568 126.632C186.946 127.102 186.845 126.892 188.585 134.826L188.587 134.822Z" fill="#FFF1CE"/>
<path d="M186.045 123.901C182.015 121.044 178.222 121.525 174.591 124.438C173.329 121.995 173.485 121.359 175.983 120.664C178.852 119.866 181.766 119.109 184.606 120.987C185.67 121.691 186.043 122.566 186.043 123.899L186.045 123.901Z" fill="#FEF99E"/>
<path d="M185.063 118.968C180.918 117.362 177.267 118.032 173.776 119.837C172.41 120.543 172.956 120.289 170.074 113.124C169.026 110.515 172.798 104.141 178.823 103.65C181.451 103.437 181.285 103.505 182.387 107.602C181.763 108.032 178.34 106.34 177.773 110.455C177.441 112.879 177.931 114.107 176.352 114.367C174.82 114.619 174.625 112.969 174.379 111.976C174.161 111.099 173.057 110.899 172.868 112.172C172.187 116.731 179.089 118.082 179.373 112.868C179.473 111.047 179.41 109.323 180.72 109.422C183.566 109.64 182.985 109.944 185.065 118.97L185.063 118.968Z" fill="#FFF1CE"/>
<path d="M180.708 101.834C174.918 101.582 171.165 104.514 168.777 109.531C167.293 106.945 167.404 105.774 169.57 103.568C172.213 100.877 175.443 99.7676 179.215 100.15C180.296 100.258 180.745 100.723 180.708 101.834Z" fill="#FEF99E"/>
<path d="M168.074 102.367C166.22 104.999 166.942 105.19 165.624 102.253C164.255 99.1986 164.472 100.706 154.881 104.521C155.269 97.9572 162.775 94.7047 167.719 99.0325C168.328 99.5653 169.173 100.071 169.381 100.753C169.597 101.46 168.489 101.779 168.074 102.367Z" fill="#FFF1CE"/>
<path d="M171.623 99.7509C171.079 100.007 170.842 99.8807 170.494 99.4701C166.228 94.4299 161.166 94.2065 156.432 97.7264C152.784 100.438 153.641 104.957 153.263 105.242C151.248 106.751 151.831 104.812 151.684 104.394C151.921 93.4502 165.531 89.7622 171.587 97.8028C171.986 98.3318 173.126 99.0404 171.623 99.7509Z" fill="#FEF99E"/>
<path d="M179.66 98.1921C173.716 98.2361 174.868 99.3572 173.764 97.6631C169.667 91.3757 161.466 89.5136 155.442 93.9923C149.843 98.1558 148.807 90.4284 145.458 95.6864C142.289 100.66 139.764 105.962 137.405 111.351C137.228 111.758 137.077 112.045 136.655 112.184C132.365 113.601 128.028 115.715 127.459 114.896C124.16 110.144 119.502 108.586 113.776 109.311C116.788 104.56 116.781 104.405 112.848 100.751C109.391 97.539 107.348 95.843 102.957 98.3487C88.0941 106.832 89.9333 114.485 86.5146 114.98C85.2636 115.161 84.1865 115.88 82.9985 116.579C81.8335 109.439 81.5088 102.461 83.4874 95.5259C84.6735 91.37 84.2342 90.4151 86.0009 90.4418C100.403 90.6729 126.305 86.0052 144.621 77.3973C160.42 69.9736 158.997 67.019 161.734 68.904C174.614 77.7678 179.316 95.2719 179.656 98.1921H179.66Z" fill="#D9E9FF"/>
<path d="M191.904 141.1C189.463 128.16 183.724 101.905 179.322 89.7446C174.092 75.3059 167.343 70.6515 164.1 68.4131C163.113 67.7313 162.398 67.2385 162.368 66.8585C162.356 66.7152 162.444 66.5548 162.639 66.3695C164.533 64.5571 164.234 62.9566 163.346 58.2067C162.203 52.0721 161.233 45.8555 158.229 39.0181C151.581 23.8784 87.9834 39.7935 73.898 57.7273C71.8735 60.3076 71.9804 60.7889 79.5302 83.4955C82.4428 92.2619 83.287 88.3103 81.6521 94.1718C79.9638 100.222 77.8629 107.751 83.9115 132.398C84.9963 136.818 93.9155 166.721 94.9105 167.322C112.138 177.741 144.948 177.022 163.601 171.91C180.569 167.261 186.213 160.794 190.332 156.073C194.03 151.839 194.226 153.424 191.902 141.103L191.904 141.1ZM80.3285 65.5006C80.4737 65.3554 81.2854 65.7125 81.5279 65.6839C86.2874 65.1988 86.2702 68.9804 87.7026 73.8678C85.9971 73.8678 84.5608 73.4839 82.9508 73.3311C82.4829 73.2872 82.5707 73.2337 80.3763 66.1365C80.2216 65.64 80.3094 65.5196 80.3285 65.5006ZM93.564 66.1747C95.0423 66.0678 94.2611 66.4708 96.4919 73.0083C96.8834 74.1504 96.0832 73.8181 92.8727 73.8792C89.2305 73.948 90.0518 73.9422 87.884 67.1354C87.5384 66.0468 87.4982 66.6026 93.564 66.1747ZM96.8319 66.0716C97.0458 65.7737 97.6818 66.0296 100.321 65.5273C102.308 65.1491 102.588 65.3191 103.388 68.6786C103.65 69.7711 103.919 70.9036 104.372 71.7994C105.291 73.6157 103.87 73.2585 99.5592 73.5679C98.843 73.6825 98.5641 73.4858 98.4018 72.7619C97.4354 68.3367 96.5053 66.53 96.8319 66.0716ZM104.563 65.1014C104.752 64.7843 105.925 64.6392 110.757 63.6556C111.939 63.4149 111.131 63.6193 113.883 70.6821C114.176 71.4288 114.195 71.4116 110.885 72.0553C108.79 72.4621 107.653 72.7142 107.397 72.7314C106.242 72.8059 106.824 72.739 104.641 65.6724C104.554 65.384 104.504 65.2007 104.563 65.1014ZM147.986 57.4924C144.365 48.5771 144.711 52.0511 148.632 48.6974C149.665 47.8112 149.273 48.5446 151.846 53.5962C152.415 54.7097 151.842 54.7995 147.986 57.4924ZM136.626 55.3973C136.737 55.0688 141.848 52.7731 142.948 52.1753C143.061 52.1142 143.185 52.0473 143.267 52.0473L143.303 52.053C143.362 52.0721 143.416 52.1581 143.448 52.2249C144.625 54.6371 145.45 56.6062 146.118 58.5753C146.166 58.9439 145.404 59.0891 139.936 62.248C139.694 62.3893 139.516 62.4352 139.399 62.3874C139.121 62.2767 138.922 61.6025 138.643 60.6704C137.402 56.5012 136.559 55.5863 136.628 55.3953L136.626 55.3973ZM137.352 63.3099C137.337 63.5276 137.153 63.5276 136.861 63.6499C132.871 65.3745 131.338 66.2263 130.998 66.064C130.772 65.9589 130.369 63.4341 128.652 59.7117C128.158 58.6402 128.179 58.6994 128.729 58.4913C136.04 55.7238 133.918 54.4347 137.352 63.3099ZM121.576 61.018C121.773 60.6246 123.202 60.3248 126.259 59.3908C129.619 68.2966 130.362 66.53 124.145 68.6881C121.496 61.0658 121.462 61.2511 121.576 61.018ZM119.086 61.74C120.365 62.0857 120.142 64.07 120.986 65.9551C121.448 66.9883 122.493 68.3463 122.056 69.0434C121.626 69.7329 119.991 69.8226 118.864 70.1358C115.77 71.0029 116.064 70.8444 114.846 67.4333C114.382 66.1232 113.901 64.7691 113.603 63.1246C114.028 62.7159 117.982 61.4401 119.086 61.74ZM157.343 49.6351C154.457 52.4809 154.186 52.9507 153.941 52.9049C153.525 52.8285 153.025 50.7104 151.141 47.2879C150.651 46.3902 153.71 44.9311 156.367 40.5765C157.429 42.9238 158.059 45.2309 158.792 47.5419C158.947 48.0346 158.815 48.1855 157.343 49.6351ZM154.806 38.934C154.545 42.4902 146.856 48.4472 136.107 53.4205C128.341 57.013 112.216 63.1858 91.4784 64.156C87.3206 64.3489 81.9023 64.2629 76.8869 61.8603C75.275 61.0906 74.3525 60.4623 75.4851 59.1425C86.2836 46.6137 111.492 39.6808 130.736 36.0692C137.306 34.8354 144.306 34.9806 152.138 36.5104C153.999 36.8733 154.894 37.6888 154.805 38.9321L154.806 38.934ZM78.2983 66.6656C78.6326 68.7722 79.5054 70.7585 80.1987 72.8765C77.5401 72.6454 77.7464 71.1767 75.487 63.7645C77.2632 64.198 78.0348 65.0078 78.2983 66.6656ZM122.124 71.4995C163.833 59.2552 157.916 41.182 160.506 55.6226C160.96 58.1838 123.247 83.9615 82.3549 79.7865C79.7632 79.521 80 78.4649 79.0222 74.9106C92.3264 77.3075 106.034 76.2207 122.124 71.4995ZM149.558 170.974C149.575 172.108 149.591 172.227 149.134 172.231C148.406 172.227 148.406 172.232 148.345 170.342C148.099 162.366 152.274 157.65 158.051 155.788C164.669 153.659 172.494 155.748 177.202 162.987C177.605 163.605 177.79 163.873 177.066 164.253C176.367 164.618 176.132 164.612 175.689 163.877C167.691 150.622 149.337 155.494 149.558 170.974ZM141 166.014C139.726 168.3 139.109 169.425 137.453 168.875C136.2 168.457 136.345 167.204 136.514 165.754L136.557 165.372C136.75 163.602 135.284 163.615 134.663 164.914C133.811 166.715 134.554 169.904 136.011 170.701C138.072 171.829 140.618 171.081 141.938 168.957C143.557 166.335 143.754 164.847 145.295 165.416C147.455 166.218 145.517 167.857 146.495 171.814C146.64 172.406 146.533 172.528 145.887 172.576C128.689 173.905 129.806 173.147 129.884 172.16C130.618 161.885 140.981 157.482 147.272 161.34C148.494 162.087 147.322 162.719 147.085 163.669C143.849 162.456 142.732 162.903 141 166.014ZM87.674 131.013C88.1973 130.943 88.6079 130.662 88.8619 130.204C90.0709 128.009 86.8852 125.704 87.588 125.089C88.7798 124.058 90.0976 126.674 90.8902 125.106C92.4487 122.008 81.9367 121.309 86.3982 127.805C87.2118 128.979 87.3493 129.304 85.8557 129.359C85.4413 129.379 85.5807 129.396 84.7098 125.471C84.2184 123.268 84.1655 122.045 84.5513 121.8C87.0914 120.203 89.4253 120.064 91.3008 121.395C93.6863 123.089 94.6508 126.598 94.2688 128.271C93.2814 132.601 90.8864 129.856 87.0991 135.521C86.232 131.953 85.3878 131.331 87.6721 131.017L87.674 131.013ZM159.862 65.8176C140.098 80.3537 108.706 88.4937 85.8691 88.3886C83.1743 88.3772 83.455 88.3714 81.3675 82.2044C113.171 83.484 139.25 75.6478 161.082 58.2544C161.814 62.3913 162.851 63.6212 159.864 65.8157L159.862 65.8176ZM83.6708 95.5774C84.8817 91.3337 84.4157 90.6098 85.999 90.6327C105.694 90.9612 139.772 83.2548 158.271 69.7558C160.148 68.3864 160.389 68.2107 161.627 69.0625C174.155 77.6971 178.924 94.5957 179.44 98.0049C174.236 98.0679 174.795 98.9369 174.123 97.875C169.535 90.7397 161.13 89.5231 155.328 93.8433C149.898 97.8788 148.741 90.1801 145.295 95.587C141.938 100.858 139.333 106.477 137.23 111.279C136.854 112.142 137.182 111.726 132.763 113.4C130.496 114.262 127.927 115.238 127.615 114.789C124.493 110.299 120.085 108.427 114.151 109.077C117 104.563 116.88 104.241 112.978 100.612C109.384 97.2715 107.3 95.6481 102.863 98.1825C88.0655 106.626 89.6965 114.329 86.4879 114.791C85.2618 114.969 84.2113 115.639 83.1437 116.271C81.8087 107.929 81.9729 101.536 83.6727 95.5793L83.6708 95.5774ZM181.476 107.459C178.166 107.19 177.618 108.817 177.435 112.111C177.36 113.456 177.33 114.012 176.317 114.18C175.051 114.39 174.855 113.166 174.56 111.93C174.283 110.841 172.891 110.675 172.675 112.146C171.948 116.959 179.278 118.378 179.559 112.879C179.687 110.385 179.805 110.06 180.124 109.776C180.269 109.648 180.456 109.594 180.699 109.613C183.331 109.818 182.786 109.879 184.794 118.666C181.115 117.337 177.576 117.66 173.67 119.676C172.526 120.265 173.034 119.993 170.248 113.053C169.207 110.467 173.113 103.778 179.935 103.778C181.161 103.778 181.268 104.149 182.154 107.482C181.992 107.503 181.721 107.482 181.476 107.459ZM124.401 172.326C124.413 172.57 124.374 172.739 124.296 172.798C124.105 172.941 118.479 173.273 116.765 170.011C116.351 169.222 116.328 168.474 116.702 168.056C119.758 164.656 119.202 161.497 120.066 161.168C122.988 160.044 126.817 159.988 127.434 160.771C127.955 161.434 124.038 164.177 124.401 172.326ZM163.206 135.998L165.842 134.627L166.052 137.224L163.206 135.998ZM100.092 122.778C99.8781 122.06 99.7903 122.117 102.055 120.767C104.603 119.254 104.29 119.369 104.259 119.552C104.204 119.927 104.152 120.28 104.257 120.608C104.863 122.539 102.775 121.502 102.088 122.549C101.505 123.437 102.367 125.16 103.154 128.368C103.536 129.925 102.838 129.029 101.175 129.174C100.47 129.239 100.497 129.167 100.604 128.294C100.728 127.276 100.925 125.576 100.092 122.778ZM114.355 114.72C118.053 113.399 121.764 115.923 121.798 116.823C121.07 117.318 112.436 119.581 109.603 120.207C110.018 117.511 111.574 115.715 114.355 114.72ZM123.417 115.253C121.403 112.172 115.994 111.175 112.289 113.206C106.018 116.636 108.845 121.032 106.416 121.134C105.308 112.843 118.528 106.33 125.434 115.759C124.602 116.275 124.126 116.336 123.417 115.253ZM107.842 113.118C106.842 114.117 106.018 114.371 105.062 113.122C103.241 110.751 103.587 110.669 106.139 108.796C109.447 111.827 109.342 111.62 107.842 113.118ZM112.46 105.379C110.409 103.427 110.077 103.845 111.213 101.895C114.202 104.619 114.252 104.478 114.034 105.029C113.803 105.608 113.603 106.109 113.454 106.141C113.295 106.173 112.873 105.769 112.46 105.379ZM112.046 107.929C111.805 108.612 110.789 109.873 110.329 110.228C109.2 109.162 108.971 108.561 108.211 108.085C107.342 107.549 107.436 107.205 108.056 106.395C108.876 105.327 109.389 105.045 110.216 106.109C110.516 106.494 112.178 107.558 112.046 107.929ZM101.735 112.829C102.09 112.602 102.153 112.572 102.34 112.826C103.356 114.197 104.242 115.268 104.731 116C101.393 118.851 102.011 118.756 100.887 117.134C99.7024 115.431 99.8743 114.008 101.735 112.829ZM90.4624 113.2C93.4055 108.188 97.6149 104.019 103.333 100.453C105.277 99.2406 108.408 98.5511 108.992 100.793C108.318 103.962 100.793 111.049 96.0087 114.308C94.3968 115.406 93.0541 115.114 91.3524 114.745C89.9486 114.441 89.7672 114.378 90.4624 113.2ZM168.59 101.647C167.939 102.125 167.912 102.184 167.035 103.601C166.881 103.849 166.736 104.086 166.65 104.178C166.331 103.687 165.551 100.858 164.581 100.497C163.475 100.089 161.701 101.578 155.091 104.231C155.681 98.0565 162.805 94.9968 167.589 99.1757C167.738 99.3055 167.903 99.4354 168.067 99.5653C169.683 100.843 169.325 101.105 168.588 101.645L168.59 101.647ZM156.315 97.5733C152.755 100.22 153.34 104.663 153.145 105.089C151.458 106.349 152.049 105.054 151.873 104.369C152.127 93.7019 165.448 89.9662 171.432 97.919C172.005 98.6791 172.742 99.0152 171.539 99.5806C171.096 99.7887 170.949 99.7181 170.637 99.3495C166.478 94.4353 161.388 93.8012 156.315 97.5733ZM139.846 110.759C140.897 107.877 140.943 107.508 143.607 109.126L139.846 110.759ZM147.398 103.845C149.35 104.516 150.125 104.602 150.066 106.29C150.062 106.364 150.06 106.441 150.037 106.481C149.73 107.029 146.052 107.994 145.463 107.68C144.799 107.327 144.153 106.748 143.403 106.626C141.976 106.389 142.15 105.906 142.746 104.775C144.046 102.306 143.775 102.608 147.398 103.845ZM144.835 100.772C147.767 95.8735 147.501 95.6806 148.89 96.3395C151.554 97.6038 151.754 97.1474 150.702 99.3896C150.223 100.419 150.186 101.54 149.848 102.629L144.835 100.772ZM98.5297 117.14C100.121 119.275 100.086 119.434 99.584 119.694C98.4705 120.267 99.2555 120.064 96.1997 116.983C97.3781 115.828 97.5481 115.822 98.5297 117.14ZM111.57 122.075C141.888 114.273 162.494 102.692 163.517 103.116C164.056 103.337 164.736 105.117 166.554 109.875C167.847 113.257 169.801 118.364 172.782 125.752C175.273 131.924 112.606 154.232 111.229 149.151C109.248 141.94 106.857 134.795 105.136 127.534C104.286 123.949 104.836 123.807 111.57 122.075ZM143.817 152.782C143.706 153.831 143.294 153.926 142.612 153.926C142.102 153.926 141.644 153.947 141.464 153.756C141.172 153.439 141.351 150.485 142.157 147.721C142.782 145.569 143.735 143.968 146.348 143.162C159.763 139.012 158.71 137.142 160.891 137.736C163.791 138.527 166.411 139.944 168.905 142.068C169.952 142.96 168.756 143.304 168.504 144.159C159.661 136.451 145.024 141.388 143.817 152.782ZM167.99 133.603C168.246 132.845 169.113 132.685 169.807 132.175C169.887 134.849 169.908 137.242 171.558 139.365C171.913 139.822 171.283 139.914 171.012 140.345C170.464 141.226 166.928 136.741 167.99 133.603ZM124.351 151.004C123.675 149.014 126.603 150.274 140.876 145.015C139.338 148.8 139.42 151.142 139.47 152.561C139.569 155.359 138.87 153.221 134.361 155.527C133.557 155.937 133.259 156.063 132.881 155.75C131.04 154.228 128.715 153.449 125.971 153.437C124.162 153.433 124.716 152.077 124.351 151.004ZM119.852 159.014C119.674 156.268 119.752 156.256 122.283 155.851C125.457 155.345 128.013 155.664 130.318 156.85C131.089 157.249 131.198 157.301 130.484 157.939C128.018 160.129 125.998 156.117 119.852 159.014ZM117.898 151.241C118.118 150.861 120.875 150.782 121.708 150.557C122.04 150.467 122.042 150.609 122.153 151.054C122.701 153.311 122.69 153.197 120.524 154.037C119.244 154.534 118.939 154.14 118.448 152.977C118.265 152.541 117.77 151.464 117.898 151.241ZM145.82 152.881C146.657 144.302 159.195 138.77 166.938 146.119C168.508 147.614 166.6 147.475 167.757 153.283C163.529 152.503 161.728 152.782 160.949 152.902C160.786 152.927 160.624 152.962 160.591 152.952C159.663 150.821 154.858 151.096 155.154 148.951C155.59 145.764 159.222 147.152 158.987 145.332C158.8 143.894 157.497 144.528 156.944 144.574C154.6 144.759 152.371 147.547 153.005 149.808C153.636 152.047 155.824 152.836 157.131 153.307C157.352 153.388 157.591 153.474 157.769 153.552C152.306 155.301 152.442 157.249 151.141 156.453C146.477 153.601 145.566 155.475 145.82 152.881ZM113.349 151.932C114.561 151.535 115.285 151.837 115.963 152.988C121.498 162.419 112.025 171.898 107.336 170.317C116.349 167.089 118.221 158.882 113.349 151.932ZM150.074 158.428C149.575 159.587 149.012 159.568 147.824 158.98C139.346 154.77 127.717 161.077 127.877 172.324C127.885 172.889 127.797 173.059 127.241 173.023C126.651 172.981 126.443 172.909 126.412 172.269C125.837 159.358 139.56 152.16 150.074 158.428ZM178.199 140.106C171.077 143.382 171.4 150.549 171.539 153.611C171.564 154.159 171.589 154.723 171.562 154.931C164.824 151.55 173.775 133.557 187.162 136.705C188.927 137.121 189.127 137.226 189.343 139.635C185.527 138.261 181.879 138.416 178.201 140.108L178.199 140.106ZM183.741 132.645C183.185 130.395 179.07 130.261 179.253 128.783C179.347 128.009 180.773 127.144 181.885 127.194C182.166 127.203 182.595 127.383 182.887 127.144C183.296 126.808 183.254 125.591 182.047 125.332C180.785 125.062 178.443 125.906 177.643 127.847C176.105 131.571 180.647 131.982 181.85 133.479C182.232 133.955 182.257 134.115 182.238 134.169C182.049 134.696 178.411 134.19 173.223 138.187C171.822 136.359 171.749 134.291 171.881 132.326C172.15 128.42 175.334 129.686 175.571 126.128C175.681 124.447 182.622 122.001 186.434 126.764C186.745 127.15 186.692 127.058 188.338 134.589C184.939 134.104 184.182 134.442 183.741 132.645ZM174.652 124.14C173.571 121.993 173.716 121.489 176.033 120.845C179.085 119.997 181.829 119.371 184.501 121.145C185.38 121.724 185.773 122.411 185.842 123.527C182.127 121.046 178.365 121.252 174.652 124.14ZM168.762 109.115C167.496 106.794 167.712 105.727 169.704 103.696C172.297 101.059 175.513 99.9606 179.194 100.335C180.133 100.43 180.496 100.776 180.515 101.632C175.202 101.46 171.346 103.914 168.762 109.115ZM98.4419 126.961C98.6749 126.97 98.7169 126.957 98.4419 126.995C98.354 129.151 98.3502 129.237 96.3028 129.669C97.3513 121.594 91.3352 115.324 83.7702 119.907C81.8889 115.333 98.9499 114.176 98.4419 126.961ZM103.398 131.865C104.103 131.978 104.023 132.117 104.916 135.267C98.885 131.915 91.8261 134.583 88.52 140.286C86.6674 136.239 94.2153 130.402 103.398 131.865ZM104.55 137.717C106.186 138.861 105.999 139.199 107.707 145.022C101.761 144.917 101.868 145.867 101.775 145.246C101.288 141.894 96.3525 142.92 96.4021 141.346C96.4824 138.991 99.6451 140.357 99.3013 138.47C99.1123 137.471 98.1153 137.675 97.7715 137.69C93.9231 137.864 92.5671 143.447 96.6676 144.377C98.906 144.885 99.7578 145.458 99.8075 145.825C99.9316 146.728 95.3842 147.2 92.5766 153.999C91.721 150.93 91.0334 148.036 90.0365 145.286C88.1877 140.166 97.3628 132.679 104.55 137.717ZM108.681 148.668C108.681 148.76 108.662 148.789 108.662 148.789C108.331 148.945 96.5034 146.547 94.4579 159.106C91.7248 149.23 108.746 143.827 108.681 148.668ZM105.732 150.79C116.664 150.825 117.384 167.473 103.99 168.718C102.044 168.902 100.396 167.523 98.6825 166.606C93.7512 163.966 96.723 150.763 105.73 150.792L105.732 150.79ZM184.213 141.014C188.224 141.302 189.719 141.411 190.512 145.171C191.623 150.448 191.914 150.716 189.475 153.844C186.829 157.236 183.693 160.112 180.153 162.389C178.903 163.193 179.587 160.51 174.53 156.663C172.322 154.982 172.248 141.189 184.213 141.014ZM160.584 164.692C160.668 163.754 161.6 162.67 162.891 162.715C165.152 162.798 164.713 160.907 163.072 160.592C161.823 160.353 159.633 160.895 158.716 163.384C157.005 168.029 161.621 168.405 163.105 169.57C159.342 170.643 155.593 171.32 152.408 171.841C150.037 172.229 151.997 161.021 160.043 158.838C165.11 157.458 171.113 160.11 173.693 164.906C174.301 166.029 174.226 165.947 166.201 168.735C165.643 168.928 165.607 168.879 165.37 168.548C163.621 166.119 160.395 166.812 160.584 164.692Z" fill="black"/>
<path d="M186.518 150.177C185.179 148.928 182.057 148.24 182.301 147.116C182.889 144.396 187.036 146.856 187.227 144.868C187.38 143.252 184.463 143.258 182.93 143.752C179.732 144.778 178.835 148.382 182.271 150.286C183.995 151.243 186.402 151.907 185.561 153.668C184.635 155.612 182.966 155.618 181.222 154.342C180.508 153.819 180.116 153.691 179.643 154.149C178.476 155.267 180.993 157.452 183.113 157.452C184.899 157.452 186.99 156.371 187.626 154.377C188.1 152.893 187.664 151.245 186.518 150.177Z" fill="black"/>
<path d="M108.003 153.361C104.576 153.275 104.248 156.109 104.821 159.459C104.855 159.665 104.886 159.833 104.899 159.956C105.138 162.013 101.729 163.592 100.785 159.977C100.653 159.471 100.484 158.842 99.7158 158.941C97.9472 159.178 99.3242 164.463 102.905 164.377C104.317 164.331 105.373 163.9 106.049 163.092C107.269 161.633 106.937 159.358 106.759 158.136L106.715 157.83C106.601 156.976 106.502 156.239 107.361 155.762C108.211 155.292 108.734 155.842 109.454 156.361C110.436 157.07 110.073 158.571 111.246 158.34C113.165 157.967 111.71 153.449 108.005 153.359L108.003 153.361Z" fill="black"/>
<path d="M125.138 140.179C124.353 140.479 123.595 140.614 122.865 140.584C122.13 140.543 121.487 140.339 120.936 139.972C120.384 139.604 119.98 139.084 119.724 138.411L121.776 137.628C122.013 138.116 122.367 138.456 122.839 138.648C123.322 138.837 123.883 138.809 124.522 138.565C125.183 138.313 125.639 137.959 125.889 137.504C126.135 137.038 126.162 136.552 125.97 136.048C125.82 135.655 125.58 135.381 125.251 135.224C124.932 135.063 124.574 134.981 124.175 134.979C123.787 134.973 123.261 135.007 122.595 135.081C121.756 135.17 121.057 135.205 120.498 135.187C119.946 135.154 119.418 134.983 118.915 134.674C118.412 134.365 118.021 133.846 117.743 133.117C117.486 132.445 117.43 131.792 117.574 131.159C117.718 130.526 118.041 129.96 118.544 129.46C119.047 128.96 119.696 128.558 120.492 128.254C121.624 127.822 122.658 127.755 123.594 128.053C124.537 128.336 125.236 128.955 125.69 129.912L123.571 130.721C123.375 130.307 123.034 130.02 122.549 129.858C122.063 129.697 121.518 129.731 120.913 129.962C120.363 130.172 119.968 130.483 119.728 130.896C119.487 131.309 119.467 131.779 119.668 132.306C119.805 132.665 120.025 132.921 120.328 133.075C120.637 133.214 120.986 133.286 121.374 133.293C121.762 133.299 122.277 133.269 122.92 133.204C123.775 133.122 124.484 133.095 125.047 133.124C125.622 133.149 126.163 133.322 126.67 133.642C127.185 133.947 127.583 134.469 127.865 135.209C128.092 135.803 128.143 136.426 128.019 137.077C127.906 137.723 127.603 138.327 127.111 138.887C126.625 139.432 125.967 139.863 125.138 140.179ZM128.969 133.227C128.614 132.297 128.49 131.4 128.597 130.537C128.716 129.67 129.031 128.914 129.543 128.269C130.062 127.609 130.725 127.125 131.532 126.817C132.261 126.539 132.95 126.443 133.599 126.529C134.256 126.6 134.828 126.786 135.315 127.088L134.802 125.743L136.736 125.005L140.271 134.271L138.337 135.009L137.811 133.63C137.653 134.191 137.349 134.725 136.899 135.23C136.45 135.736 135.867 136.125 135.149 136.399C134.353 136.702 133.547 136.779 132.732 136.627C131.912 136.465 131.167 136.094 130.496 135.515C129.833 134.921 129.324 134.158 128.969 133.227ZM136.566 130.368C136.323 129.728 135.976 129.225 135.528 128.857C135.09 128.484 134.611 128.256 134.091 128.172C133.571 128.087 133.064 128.139 132.571 128.328C132.078 128.516 131.665 128.815 131.333 129.224C130.997 129.622 130.784 130.107 130.694 130.681C130.612 131.239 130.693 131.838 130.936 132.477C131.18 133.116 131.523 133.627 131.965 134.011C132.418 134.39 132.906 134.628 133.431 134.723C133.962 134.803 134.469 134.751 134.951 134.567C135.444 134.379 135.857 134.08 136.189 133.671C136.521 133.262 136.726 132.773 136.804 132.203C136.889 131.618 136.81 131.007 136.566 130.368ZM145.717 130.229L145.46 121.677L147.495 120.9L147.498 131.514L145.211 132.387L138.161 124.461L140.213 123.678L145.717 130.229ZM159.118 121.514C159.251 121.861 159.348 122.184 159.41 122.481L152.33 125.182C152.668 125.901 153.17 126.39 153.834 126.651C154.498 126.911 155.189 126.904 155.907 126.63C156.938 126.237 157.503 125.527 157.599 124.501L159.668 123.712C159.713 124.671 159.47 125.567 158.939 126.398C158.416 127.215 157.61 127.83 156.523 128.245C155.637 128.583 154.766 128.69 153.91 128.567C153.061 128.429 152.298 128.078 151.62 127.514C150.95 126.935 150.433 126.169 150.069 125.216C149.706 124.263 149.578 123.355 149.685 122.492C149.8 121.614 150.13 120.846 150.675 120.188C151.232 119.526 151.964 119.022 152.872 118.676C153.747 118.342 154.599 118.235 155.428 118.356C156.257 118.476 156.995 118.811 157.642 119.361C158.284 119.899 158.776 120.617 159.118 121.514ZM156.886 121.672C156.605 120.97 156.137 120.5 155.481 120.262C154.825 120.024 154.133 120.044 153.404 120.322C152.743 120.575 152.258 121.004 151.949 121.609C151.637 122.204 151.572 122.877 151.756 123.629L156.886 121.672Z" fill="black"/>
</svg>
