<svg width="316" height="240" viewBox="0 0 316 240" fill="none" xmlns="http://www.w3.org/2000/svg">
<path fill-rule="evenodd" clip-rule="evenodd" d="M1.04538 164.151C0.546903 159.166 2.84232 152.199 14.2631 150.543C16.4641 150.224 22.0077 150.718 23.7905 149.9C28.0779 147.936 30.7532 143.786 35.5872 142.648C38.6766 141.922 42.2946 143.804 44.984 142.523C50.7507 139.775 55.04 133.908 63.0599 136.523C63.5041 136.667 65.2126 137.723 65.6287 137.56C70.3844 135.699 73.331 130.933 78.6997 129.93C80.8524 129.528 83.2403 129.53 85.3669 130.075C86.2553 130.302 88.2332 131.647 89.1176 131.419C95.6561 129.743 97.5596 123.5 108.594 125.448C109.402 125.59 111.045 126.561 111.823 126.412C115.738 125.663 118.731 121.432 122.757 120.264C124.811 119.667 127.082 119.454 129.209 119.723C130.222 119.852 131.697 120.799 132.662 120.555C137.179 119.412 140.642 115.076 145.404 113.766C153.005 111.671 153.968 114.901 156.364 114.555C159.564 114.093 162.561 111.153 165.668 110.107C167.664 109.436 169.829 108.958 171.938 109.305C172.959 109.474 174.549 110.666 175.517 110.453C178.424 109.808 180.727 107.189 183.529 106.132C186.982 104.829 190.886 106.063 194.279 106.976C205.545 109.999 217.247 114.867 228.276 118.161C246.687 123.659 265.019 129.391 283.45 134.838C290.664 136.971 298.413 138.02 305.474 140.519C313.144 143.233 317.452 154.008 311.822 160.195C307.735 164.683 301.265 163.924 301.265 163.924C301.265 163.924 301.938 171.077 295.85 173.859C293.85 174.772 287.48 174.01 287.48 174.01C287.48 174.01 282.91 182.727 278.037 184.595C275.706 185.487 270.317 182.49 270.317 182.49C270.317 182.49 265.284 190.805 261.447 192.11C258.951 192.958 252.279 192.106 252.279 192.106C252.279 192.106 247.459 198.015 243.337 199.712C239.833 201.153 238.852 201.006 234.947 200.811C234.947 200.811 230.004 207.08 226.075 209.028C222.712 210.694 219.719 210.011 215.729 209.742C215.729 209.742 210.321 217.872 205.722 220.135C201.177 222.37 196.874 221.562 193.201 220.972C193.201 220.972 188.886 227.472 185.069 230.061C182.323 231.924 177.994 234.137 174.709 233.12C173.747 232.822 170.199 230.085 170.199 230.085C170.199 230.085 165.757 234.242 164.193 235.363C160.818 237.781 155.243 239.236 151.231 237.606C142.393 234.016 1.53582 169.142 1.03734 164.159L1.04538 164.151Z" fill="#E6B2A1"/>
<path fill-rule="evenodd" clip-rule="evenodd" d="M314.545 148.543C313.1 144.509 309.904 140.961 305.836 139.502C298.706 136.945 290.986 135.871 283.784 133.711C272.735 130.416 235.982 119.227 228.604 117.064C213.076 112.531 213.122 111.245 194.486 106.2C192.411 105.637 190.15 104.96 187.913 104.785C181.36 104.272 179.371 108.728 175.332 109.609C175.15 109.649 174.932 109.563 174.695 109.476C173.047 108.879 172.47 108.053 169.307 108.365C162.328 109.048 158.511 114.505 155.297 113.496C153.436 112.905 152.656 111.946 149.317 112.115C140.877 112.541 137.924 118.204 132.417 119.58C132.25 119.623 132.061 119.566 131.854 119.512C130.327 119.102 129.701 118.332 125.866 118.65C119.477 119.186 117.953 122.35 113.688 124.603C113.022 124.955 112.341 125.229 111.622 125.363L108.779 124.386C97.3043 122.332 95.2119 128.684 88.8824 130.332C87.405 129.958 86.6171 129.249 85.6362 128.999C83.3569 128.416 80.8062 128.41 78.4927 128.845C72.8366 129.91 70.0648 134.511 65.4779 136.442C63.9503 135.711 62.8328 135.1 60.4328 134.846C52.4009 133.998 47.2633 141.639 43.0765 141.906C39.2575 142.153 36.6726 139.946 31.2054 143.424C28.508 145.138 26.3312 147.586 23.3544 148.953C21.8851 149.629 16.2229 149.21 14.1104 149.522C3.57999 151.06 -0.634979 157.297 0.076561 164.245C0.669511 170.052 145.79 236.581 150.857 238.635C153.405 239.664 155.464 239.343 158.117 238.812C163.403 237.749 166.261 235.492 170.255 231.138C171.031 231.719 173.548 233.598 174.474 233.882C178.002 234.971 182.47 232.786 185.521 230.716C188.277 228.875 191.425 224.997 193.37 222.298C193.642 222.427 193.907 222.346 194.08 222.013C197.093 222.465 198.707 222.855 201.862 222.362C205.816 221.741 208.164 220.2 211.044 217.287C213.418 214.887 215.464 212.131 216.3 210.96C220.119 211.301 223.17 211.836 226.642 210.158C229.812 208.622 233.333 204.839 235.558 202.094C238.276 202.152 239.138 202.287 240.891 201.844C243.863 201.091 245.91 199.866 248.054 198.047C250.165 196.256 251.988 194.196 252.762 193.288C253.765 193.388 255.823 193.571 257.789 193.569C261.489 193.563 263.145 193.151 266.351 189.561C268.231 187.461 269.889 184.968 270.669 183.742C272.661 184.715 276.301 186.239 278.363 185.435C282.212 183.933 285.935 178.528 287.957 174.922C289.939 175.129 294.403 175.481 296.218 174.659C300.135 172.882 302.067 169.111 302.202 164.894C311.801 165.029 317.715 157.403 314.541 148.543H314.545ZM2.00214 163.932C1.5117 158.173 5.00106 152.915 14.4099 151.562C16.7375 151.228 22.1283 151.801 24.2227 150.845C27.2879 149.444 29.5512 146.955 32.331 145.198C35.0928 143.452 36.7008 143.361 39.2294 143.697C41.362 143.98 43.5106 144.398 45.4423 143.486C51.3677 140.668 55.239 135.116 62.7283 137.556C63.4177 137.779 64.9815 138.985 66.0287 138.571C70.7884 136.708 73.9179 131.942 78.9027 131.013C80.8786 130.647 83.1016 130.635 85.0955 131.144C86.1689 131.419 87.9598 132.863 89.3949 132.491C96.239 130.734 97.8691 124.682 108.412 126.501C109.338 126.664 110.803 127.689 112.026 127.456C116.385 126.609 118.956 122.449 123.044 121.249C125.06 120.658 127.187 120.487 129.084 120.722C130.216 120.861 131.549 121.874 132.907 121.52C137.709 120.284 140.923 116.005 145.661 114.684C153.339 112.541 153.287 115.94 156.499 115.466C160.05 114.939 162.77 112.031 165.956 110.947C173.021 108.552 173.357 111.816 175.706 111.287C178.86 110.58 181.021 107.973 183.825 106.905C187.029 105.685 190.787 106.871 194.076 107.742C199.887 109.297 219.914 116.795 227.954 119.251C237.146 122.041 273.895 133.262 283.123 135.956C290.298 138.044 298.17 139.098 305.12 141.526C306.523 142.017 307.804 142.801 308.917 143.787C303.552 145.347 301.028 152.804 300.401 158.328C298.966 156.376 296.781 154.889 294.453 155.552C289.159 157.061 287.677 163.859 287.024 169.284C284.2 164.73 278.888 164.275 275.211 169.524C273.149 172.466 272.05 176.655 270.801 179.853C269.392 176.116 266.345 172.329 262.583 173.805C256.681 176.118 254.792 181.756 252.661 187.284C251.395 184.379 247.52 181.387 244.46 181.879C239.204 182.735 236.529 189.539 234.869 194.59C234.835 194.689 234.802 194.819 234.774 194.974C234.25 193.664 233.432 192.54 232.392 191.726C226.547 187.155 218.556 194.407 216.55 201.818C216.286 202.787 215.947 204.132 215.589 205.428C215.47 204.548 215.368 203.85 215.327 203.718C212.875 195.905 201.135 191.38 195.03 203.939C193.883 206.298 193.36 207.896 192.606 212.127C190.456 208.841 186.229 207.967 182.406 208.616C176.082 209.685 171.455 216.769 169.847 223.122C169.638 222.819 169.407 222.523 169.16 222.244C165.496 218.115 161.928 217.372 156.857 219.064C148.676 221.792 147.45 230.822 151.496 236.792C142.216 232.981 8.50851 171.22 2.00616 163.93L2.00214 163.932ZM166.113 232.696C163.869 234.674 161.9 236.37 157.793 237.178C156.738 237.387 155.665 237.486 154.625 237.443C149.779 233.082 149.789 223.611 157.518 221.074C159.656 220.372 161.419 220.149 163.027 220.557C165.409 221.162 167.835 223.576 168.685 225.502C170.535 229.721 168.125 230.921 166.113 232.692V232.696ZM188.07 226.197C186.972 227.426 185.776 228.597 184.625 229.391C173.56 236.891 167.614 230.097 174.133 218.083C176.155 214.359 179.137 211.233 182.747 210.574C186.084 209.967 189.764 210.686 191.362 213.651C194.51 219.478 190.235 223.775 188.072 226.199L188.07 226.197ZM209.486 215.774C207.008 218.375 205.074 219.788 201.537 220.411C198.409 220.963 196.946 220.409 195.728 219.711C191.863 217.5 194.821 208.718 196.833 204.849C200.443 197.907 205.553 197.177 209.567 199.977C213.444 202.68 216.2 208.723 209.486 215.774ZM229.1 205.179C226.991 207.123 225.357 208.373 222.646 208.773C216.97 209.605 217.754 200.98 222.29 195.776C224.762 192.938 228.386 191.099 231.231 193.235C237.023 197.607 231.872 202.63 229.1 205.179ZM246.541 196.232C238.571 202.803 232.463 197.611 240.463 187.045C241.63 185.501 243.035 184.291 244.776 184.066C245.795 183.935 246.913 184.498 247.897 185.24C254.281 190.038 249.984 193.396 246.541 196.232ZM264.84 188.186C262.098 191.165 261.087 191.43 257.805 191.386C254.721 191.346 252.693 191.33 255.843 184.659C257.813 180.49 259.465 177.147 263.27 175.461C264.436 174.944 265.493 175.286 266.371 175.982C271.935 180.392 268.886 183.794 264.84 188.186ZM281.923 180.518C276.166 186.866 271.597 182.47 272.807 179.105C274.409 174.651 276.19 168.533 280.711 167.516C281.706 167.292 282.697 167.622 283.551 168.185C289 171.785 286.18 175.827 281.923 180.518ZM295.484 173.047C294.714 173.401 290.795 174.028 289.412 172.444C288.887 171.843 288.64 171.049 288.727 170.257C289.247 165.546 290.429 158.605 294.956 157.325C295.939 157.045 296.875 157.463 297.667 158.103C301.653 161.305 301.524 170.265 295.484 173.047ZM305.392 162.702C303.673 163.081 302.061 161.723 302.141 159.964C302.561 150.784 309.182 139.879 312.622 149.241C314.911 155.474 311.99 161.246 305.392 162.702Z" fill="black"/>
<path fill-rule="evenodd" clip-rule="evenodd" d="M10.2291 163.114C18.3756 169.188 63.5443 189.031 74.0988 194.978C74.5571 195.238 75.142 195.069 75.3973 194.608C75.6526 194.148 75.4898 193.563 75.0275 193.31C60.1736 185.117 47.9769 180.842 20.6429 166.543C16.1505 164.193 12.7154 162.513 11.3768 161.546C10.3356 160.792 9.19794 162.346 10.2291 163.114Z" fill="black"/>
<path fill-rule="evenodd" clip-rule="evenodd" d="M92.3738 203.344C94.6008 204.393 96.7897 205.603 99.0671 206.69C123.766 218.473 117.384 216.955 135.243 223.504C135.737 223.685 136.286 223.426 136.465 222.929C136.644 222.433 136.387 221.884 135.89 221.707C125.348 217.968 125.161 217.347 99.1997 204.298C97.2118 203.3 95.1697 202.469 93.1858 201.581C92.012 201.054 91.21 202.795 92.3738 203.344Z" fill="black"/>
<path fill-rule="evenodd" clip-rule="evenodd" d="M26.0138 153.13C29.8228 155.017 33.7041 156.762 37.6477 158.388C60.0652 167.636 49.5268 161.875 77.7914 175.652C87.8414 180.55 78.1874 174.854 163.648 216.397C164.123 216.628 164.694 216.429 164.925 215.952C165.156 215.476 164.955 214.905 164.48 214.676C154.899 210.047 137.161 199.85 81.4034 174.563C81.2024 174.472 55.8159 163.188 45.9327 159.329C39.5027 156.818 33.0468 154.396 26.8721 151.387C26.3897 151.152 25.8088 151.349 25.5716 151.831C25.3344 152.314 25.5334 152.893 26.0158 153.132L26.0138 153.13Z" fill="black"/>
<path fill-rule="evenodd" clip-rule="evenodd" d="M48.8554 145.47C55.201 147.572 61.3898 150.153 67.5605 152.808C70.2016 153.946 169.373 198.309 183.449 205.133C183.923 205.364 184.496 205.163 184.723 204.687C184.95 204.21 184.753 203.639 184.277 203.412C181.256 201.961 67.263 150.274 65.7676 149.655C60.4009 147.428 54.9638 145.406 49.4584 143.623C48.9479 143.458 48.3992 143.733 48.2323 144.242C48.0655 144.75 48.3449 145.299 48.8534 145.468L48.8554 145.47Z" fill="black"/>
<path fill-rule="evenodd" clip-rule="evenodd" d="M70.909 138.275C90.1567 144.782 117.059 156.292 140.893 166.593C149.106 170.143 187.887 188.775 201.372 193.543C201.868 193.718 202.415 193.457 202.59 192.958C202.765 192.46 202.504 191.915 202.005 191.74C198.55 190.526 195.133 189.163 191.742 187.714C191.39 187.563 140.013 164.253 139.643 164.082C135.05 161.946 124.228 156.181 91.3346 143.416C84.8041 140.881 78.1731 138.629 71.528 136.432C71.0195 136.263 70.4688 136.536 70.2979 137.045C70.1271 137.553 70.4004 138.102 70.909 138.275Z" fill="black"/>
<path fill-rule="evenodd" clip-rule="evenodd" d="M101.857 132.049C107.585 134.475 113.221 137.106 118.89 139.66C224.081 187.073 144.835 150.073 227.88 188.43C228.358 188.651 228.925 188.44 229.146 187.959C229.367 187.479 229.156 186.912 228.676 186.693C228.475 186.601 107.547 132.308 102.605 130.256C102.11 130.051 101.539 130.282 101.332 130.776C101.125 131.271 101.36 131.837 101.853 132.047L101.857 132.049Z" fill="black"/>
<path fill-rule="evenodd" clip-rule="evenodd" d="M129.09 125.735C128.598 125.52 128.025 125.741 127.808 126.232C127.591 126.722 127.816 127.295 128.305 127.512C153.5 138.746 179.734 149.942 189.258 153.896C194.361 156.015 231.675 173.887 244.235 178.838C244.726 179.031 245.28 178.788 245.473 178.297C245.666 177.807 245.423 177.252 244.933 177.059C235.405 173.341 234.288 172.432 189.368 151.984C168.943 142.686 131.139 126.63 129.09 125.735Z" fill="black"/>
<path fill-rule="evenodd" clip-rule="evenodd" d="M261.576 171.584C262.05 171.811 262.623 171.61 262.85 171.134C263.077 170.657 262.876 170.086 262.402 169.861C215.1 147.369 192.373 135.144 146.093 120.067C145.584 119.902 145.034 120.178 144.867 120.686C143.802 123.924 151.53 118.69 261.576 171.584Z" fill="black"/>
<path fill-rule="evenodd" clip-rule="evenodd" d="M166.406 118.36C172.189 120.153 177.891 122.165 183.612 124.106C205.792 131.638 186.016 124.566 225.566 139.76C227.94 140.672 259.791 153.337 262.755 154.607C268.385 157.019 273.879 159.61 278.992 162.591C279.448 162.856 280.033 162.702 280.299 162.245C280.564 161.789 280.409 161.204 279.953 160.939C265.861 152.774 243.271 145.263 226.073 138.015C218.586 134.86 191.756 124.605 184.335 122.008C178.611 120.004 172.796 118.249 166.975 116.5C166.462 116.346 165.918 116.633 165.761 117.146C165.604 117.658 165.894 118.201 166.406 118.36Z" fill="black"/>
<path fill-rule="evenodd" clip-rule="evenodd" d="M183.413 112.668C235.952 128.294 278.498 148.101 292.612 152.981C293.11 153.154 293.655 152.887 293.826 152.388C293.997 151.89 293.732 151.345 293.233 151.174C273.979 144.553 237.634 126.239 183.957 110.803C183.443 110.654 182.902 110.949 182.751 111.462C182.601 111.974 182.898 112.515 183.413 112.668Z" fill="black"/>
<path d="M118.196 141.689C122.954 142.336 128.365 136.109 134.242 134.823C135.581 134.526 137.366 134.692 139.195 135.557C140.352 136.089 142.328 138.166 144.815 137.589C147.627 136.934 148.758 135.255 150.559 133.896C154.764 130.723 158.547 129.931 162.901 130.59C164.752 130.875 166.346 132.425 169.419 130.546C170.424 129.931 171.286 129.066 172.143 128.534C175.079 126.697 178.494 125.575 181.895 126.383C183.131 126.675 184.613 128.188 188.19 125.923C190.385 124.53 191.334 122.443 193.794 121.336C194.856 120.86 197.581 120.148 198.727 120.068C199.294 120.029 199.971 120.249 200.689 120.178C202.447 120.017 203.36 118.978 204.065 117.39C204.457 116.51 204.709 115.433 205.919 114.962C206.966 114.55 208.536 114.59 210.717 115.081C212.031 115.372 213.34 114.538 213.633 113.224C213.926 111.903 213.094 110.599 211.774 110.309C206.883 109.238 202.441 109.706 200.222 114.194C200.049 114.54 199.846 114.982 199.69 115.334C199.229 115.294 198.719 115.264 198.389 115.29C196.653 115.419 193.38 116.303 191.833 117.006C188.528 118.52 187.057 121.611 184.669 122.443L182.968 121.832C178.311 120.747 173.737 122.142 169.735 124.759C168.653 125.462 167.363 126.805 166.575 127.066L163.522 126.323C159.608 125.778 155.249 126.281 151.602 127.497C146.833 129.099 147.693 129.726 143.651 131.488C142.399 130.731 141.759 129.265 137.225 129.101C129.121 128.819 125.513 135.464 119.272 137.016L116.18 136.252C104.164 134.66 98.9806 144.26 96.8762 145.162C95.8993 144.796 93.234 142.366 85.2865 145.818C78.4786 148.798 77.1339 151.787 74.734 153.244C73.4094 152.438 72.4084 151.739 69.5643 151.325C65.7171 150.766 62.1695 151.691 58.8369 153.689C53.7074 156.768 51.6753 160.601 50.3406 161.873C49.213 161.457 47.1789 161.542 46.0634 161.646C36.6847 162.527 27.3583 173.001 30.4436 182.247C30.6467 182.876 31.0788 183.39 31.6677 183.696C33.6255 184.701 35.8324 182.836 35.1651 180.749C33.4828 175.206 39.5389 168.671 45.0061 167.319C46.3407 166.985 47.7618 167.001 49.1286 167.093C50.4451 167.176 52.2381 168.213 54.9596 165.005C55.7978 164.014 56.4631 162.856 57.2369 161.956C60.9595 157.588 65.884 154.641 71.3049 156.525C72.0225 156.77 73.6727 158.298 75.2847 157.841C78.764 156.842 78.551 153.86 87.2563 150.903C89.2422 150.225 91.5215 149.769 93.5918 150.043C93.9657 150.083 95.435 150.752 96.3093 150.965C99.7022 151.781 101.397 149.319 103.531 147.02C107.254 142.931 110.084 140.746 115.674 141.156C116.303 141.205 117.414 141.593 118.196 141.699V141.689Z" fill="#F1FFE6"/>
<path d="M214.152 110.836C213.655 110.058 212.887 109.521 211.985 109.324C204.678 107.723 201.018 110.056 199.061 114.281C197.776 114.223 196.017 114.627 194.775 114.954C190.864 115.994 189.618 116.86 187.109 119.344C186.387 120.058 185.473 120.982 184.645 121.364C183.491 120.954 182.647 120.562 180.398 120.458C177.901 120.345 175.413 120.88 173.101 121.831C169.039 123.503 167.656 125.25 166.46 126.003C164.074 125.423 163.208 125.053 159.675 125.099C156.824 125.137 153.781 125.7 151.277 126.536C146.549 128.124 147.122 128.781 143.757 130.331C142.216 129.117 140.99 128.225 137.257 128.088C128.789 127.812 125.08 134.381 119.262 135.971C116.815 135.37 115.067 134.775 111.382 135.165C108.088 135.513 105.368 136.721 102.804 138.554C99.4469 140.957 97.8389 143.132 96.8098 144.002C95.3827 143.263 92.1446 141.735 84.8825 144.887C78.4806 147.689 76.6415 150.597 74.7018 152.042C68.897 148.579 60.1193 149.393 52.4612 157.689C51.5366 158.694 50.8552 159.773 50.021 160.736C48.5196 160.42 45.7016 160.476 43.4041 161.083C34.4154 163.453 26.4699 173.503 29.4849 182.546C30.4296 185.495 34.4737 185.835 35.8968 183.087C36.3229 182.259 36.4033 181.318 36.1259 180.45C35.2697 177.634 36.7349 174.94 38.1118 173.178C40.9419 169.56 45.0644 167.409 49.6793 168.175C53.0722 168.739 54.7646 167.129 56.9616 163.988C59.7314 160.036 64.077 156.519 68.8789 157.015C70.6778 157.198 71.1763 157.578 71.5783 157.809C72.72 158.466 74.0064 159.238 75.5601 158.798C79.2565 157.737 79.1258 154.716 87.5779 151.845C89.7809 151.094 91.815 150.812 93.4491 151.027C94.8038 151.307 97.8128 153.626 101.604 150.487C105.401 147.351 107.537 141.556 115.593 142.147C116.437 142.211 118.498 143.16 120.592 142.561C125.404 141.231 129.778 136.825 134.453 135.804C135.528 135.565 137.086 135.674 138.769 136.47C139.725 136.91 142.095 139.251 145.038 138.566C148.133 137.842 149.428 136.001 151.158 134.697C155.162 131.678 158.672 130.966 162.74 131.583C164.314 131.824 166.438 133.545 169.936 131.402C171.103 130.691 175.885 125.995 181.656 127.358C182.739 127.617 184.711 129.308 188.721 126.767C190.86 125.411 192.07 123.206 194.198 122.249C195.151 121.819 197.766 121.139 198.787 121.067C199.756 120.995 203.036 122.315 204.974 117.797C205.649 116.223 205.72 114.987 210.487 116.06C213.496 116.727 215.78 113.407 214.144 110.838L214.152 110.836ZM212.648 113.003C212.475 113.777 211.703 114.267 210.934 114.096C201.229 111.913 204.926 118.773 200.59 119.175C200.104 119.222 199.268 119.019 198.659 119.061C197.384 119.149 194.548 119.889 193.382 120.416C190.735 121.606 189.646 123.805 187.652 125.069C183.403 127.764 183.758 124.46 178.209 125.185C173.109 125.837 169.96 129.033 168.894 129.686C166.251 131.306 165.122 129.915 163.051 129.595C158.509 128.906 154.435 129.71 149.954 133.093C148.069 134.512 147.102 136.023 144.588 136.608C142.592 137.071 140.831 135.203 139.623 134.646C130.956 130.554 124.278 141.492 118.329 140.69C117.533 140.583 116.588 140.206 115.746 140.144C113.211 139.959 110.872 140.274 108.602 141.412C104.914 143.267 101.895 147.638 100.327 148.937C97.3344 151.411 95.441 149.22 93.7245 149.035C91.2602 148.71 88.6713 149.349 86.9327 149.94C78.1048 152.941 78.0425 155.99 75.0114 156.864C74.2134 157.088 73.3089 156.485 72.5552 156.048C69.7934 154.464 65.291 154.37 61.0117 157.18C56.2762 160.281 55.1204 163.972 52.7185 165.737C51.1889 166.858 50.3507 165.877 46.8975 166.034C39.9369 166.362 32.1702 174.329 34.2084 181.043C34.6003 182.261 33.3059 183.394 32.13 182.789C31.7803 182.608 31.521 182.303 31.3984 181.915C28.5181 173.286 37.4626 163.453 46.1598 162.633C47.1467 162.543 49.0643 162.462 49.9949 162.804C50.3547 162.935 50.7587 162.852 51.0381 162.587C51.5728 162.076 52.2119 161.23 52.6843 160.609C56.5757 155.449 62.7504 151.339 69.4196 152.306C73.9983 152.973 74.0707 154.814 75.2566 154.089C77.9038 152.477 79.0012 149.651 85.6865 146.724C94.7556 142.786 95.7385 146.724 97.2721 146.071C99.3645 145.174 103.473 138.017 111.595 137.159C115.041 136.793 116.689 137.402 119.028 137.979C119.889 138.19 122.564 136.845 123.38 136.357C128.206 133.479 131.334 129.889 137.187 130.092C140.421 130.21 141.398 131 142.258 131.696C142.851 132.176 143.388 132.687 144.051 132.397C148.394 130.504 147.188 130.025 151.918 128.438C154.211 127.672 157.056 127.141 159.705 127.105C166.493 127.027 165.697 129.055 167.958 127.41C168.878 126.737 172.241 123.415 177.849 122.58C179.453 122.347 181.127 122.432 182.627 122.769C184.51 123.447 184.572 123.533 184.999 123.384C186.404 122.894 187.419 121.861 188.548 120.747C190.779 118.54 191.718 117.845 195.292 116.894C197.231 116.382 198.253 116.211 199.603 116.325C200.027 116.363 200.433 116.124 200.608 115.734C200.759 115.395 200.954 114.969 201.123 114.631C203.119 110.589 207.155 110.317 211.557 111.282C212.333 111.453 212.823 112.219 212.652 112.999L212.648 113.003Z" fill="black"/>
<path d="M284.136 133.357C283.782 132.808 283.233 132.428 282.596 132.294C280.24 131.791 278.214 132.231 276.403 133.622C273.788 135.626 272.359 139.343 271.073 141.225C270.47 140.889 269.993 140.686 269.658 140.628C262.765 139.377 256.422 144.017 253.437 149.888C248.876 148.953 245.11 149.001 241.63 152.217C239.375 154.306 239.15 157.23 238.455 158.653C237.821 158.547 237.162 158.434 237.076 158.416C234.812 157.536 232.469 157.92 230.111 158.497C225.45 159.638 222.224 162.227 220.507 165.405C219.165 165.357 217.745 165.377 216.385 165.461C210.105 165.849 204.469 167.292 200.421 172.669C190.733 169.827 183.541 172.571 179.025 178.378L177.664 180.864C176.112 180.888 173.859 181.047 171.449 181.626C162.868 183.684 161.325 187.965 158.055 191.525C155.944 191.268 152.105 190.87 150.057 191.364C144.782 192.641 140.147 195.857 137.691 200.745C135.605 200.628 132.162 200.55 130.2 201.336C121.272 204.916 115.248 214.234 116.614 223.341C116.799 224.694 118.051 225.645 119.406 225.458C120.785 225.267 121.706 223.995 121.525 222.674C120.679 215.822 125.708 208.903 132.196 206.409C133.44 205.929 138.682 206.335 139.205 206.359C140.553 206.491 141.814 205.597 142.137 204.278C142.929 201.111 146.175 197.517 151.295 196.056C151.916 195.879 153.086 195.863 153.912 195.871C158.627 195.903 159.49 196.671 160.629 195.366C165.723 188.86 168.549 187.851 172.567 187.201C176.052 186.641 179.091 187.057 179.137 187.063C180.43 187.206 181.68 186.516 182.255 185.34L183.877 181.867C185.141 180.058 186.798 178.629 189.374 177.523C192.61 176.136 197.493 176.607 200.594 177.678C201.786 178.09 203.087 177.541 203.581 176.36C203.589 176.339 204.335 174.39 206.588 172.868C209.35 171.001 213.127 170.918 216.445 171.057C218.284 171.134 220.166 171.345 221.609 171.634C222.379 171.789 223.876 171.765 225.237 169.845C226.668 167.825 227.116 165.089 231.727 163.274C235.076 161.95 235.1 162.4 238.714 163.037C239.924 163.244 240.702 162.651 240.804 162.563C243.202 160.505 243.025 156.903 244.607 155.496C247.184 153.206 249.974 153.813 253.337 154.619C256.93 155.48 257.829 148.955 263.344 146.145C264.888 145.355 266.91 145.018 268.621 145.295C270.062 146.25 270.295 146.336 270.862 146.455C275.913 147.512 276.715 136.018 281.569 137.075C283.71 137.536 285.304 135.168 284.136 133.357Z" fill="#F1FFE6"/>
<path d="M284.98 132.813C284.48 132.039 283.71 131.507 282.803 131.312C280.142 130.749 277.851 131.245 275.792 132.825C273.306 134.731 271.79 138.069 270.709 139.919C269.254 139.287 266.705 139.364 265.139 139.615C259.761 140.469 255.437 144.342 252.908 148.76C250.921 148.388 248.669 148.137 246.464 148.593C243.297 149.253 240.633 151.255 239.335 153.512C238.567 154.851 238.227 156.262 237.817 157.528C236.8 157.361 236.3 156.913 234.081 156.893C232.654 156.879 231.325 157.166 229.876 157.52C225.424 158.611 222.174 160.856 219.95 164.384C212.218 164.219 204.952 165.538 200.049 171.522C190.273 168.878 182.856 171.765 178.146 177.895L177.063 179.875C175.548 179.929 173.451 180.114 171.218 180.649C162.613 182.713 160.77 186.898 157.657 190.466C155.468 190.217 151.938 189.877 149.822 190.387C144.001 191.796 139.575 195.24 137.102 199.71C134.99 199.617 131.816 199.607 129.828 200.403C120.55 204.124 114.174 213.846 115.621 223.478C115.881 225.373 117.65 226.72 119.545 226.453C121.489 226.186 122.777 224.387 122.522 222.551C121.736 216.192 126.467 209.687 132.558 207.348C133.396 207.022 137.665 207.235 139.106 207.36C140.951 207.543 142.67 206.319 143.112 204.522C143.118 204.498 143.751 202.065 146.135 199.935C147.609 198.61 149.44 197.631 151.57 197.02C152.754 196.685 157.277 197.01 158.525 197.125C159.596 197.258 160.69 196.868 161.417 195.983C166.565 189.744 169.015 188.789 172.724 188.192C175.988 187.666 178.876 188.04 179.023 188.06C180.731 188.249 182.394 187.332 183.161 185.762L184.697 182.442C188.241 177.367 194.327 176.8 200.242 178.621C201.929 179.244 203.802 178.42 204.514 176.723C204.514 176.723 205.199 175.015 207.149 173.7C209.701 171.974 213.334 171.934 216.401 172.06C218.19 172.135 220.015 172.338 221.408 172.617C222.22 172.782 224.3 172.896 226.055 170.424C227.301 168.657 227.548 167.341 228.995 166.074C231.166 164.171 234.539 163.224 235.472 163.435C235.819 163.546 238.507 164.022 238.539 164.026C240.159 164.304 241.24 163.508 241.47 163.311C244.066 161.074 244.008 157.371 245.268 156.248C247.544 154.226 250.137 154.887 253.097 155.598C257.56 156.666 258.53 149.721 263.797 147.042C265.091 146.38 266.783 146.075 268.249 146.258C268.982 146.744 269.664 147.233 270.651 147.44C276.514 148.664 277.613 137.247 281.352 138.059C284.351 138.704 286.632 135.384 284.974 132.815L284.98 132.813ZM283.489 134.988C283.324 135.77 282.548 136.258 281.782 136.093C276.027 134.841 275.049 146.3 271.067 145.472C270.434 145.339 269.911 144.947 269.175 144.459C268.594 144.073 266.681 144.19 265.873 144.312C257.998 145.512 256.607 154.366 253.568 153.645C249.857 152.754 246.814 152.193 243.936 154.748C242.018 156.453 242.378 159.795 240.165 161.787C240.145 161.803 239.661 162.179 238.887 162.048C235.466 161.447 235.415 161.222 233.741 161.56C232.346 161.835 229.627 162.854 227.673 164.565C226.427 165.654 225.876 166.766 225.152 168.09C224.403 169.465 223.347 170.961 221.806 170.647C218.785 170.04 213.935 169.801 211.125 170.213C209.058 170.533 207.342 171.146 206.027 172.034C203.605 173.666 202.737 175.759 202.654 175.97C202.369 176.647 201.625 176.967 200.886 176.715C200.407 176.553 197.84 175.807 194.783 175.688C189.533 175.479 185.505 177.728 182.964 181.441L181.35 184.896C180.963 185.69 180.124 186.16 179.266 186.064C178.932 186.02 175.899 185.646 172.406 186.209C168.336 186.864 165.26 187.813 159.87 194.703C159.592 195.022 159.182 195.181 158.736 195.127C157.134 194.974 152.577 194.641 151.018 195.087C148.591 195.78 146.495 196.908 144.795 198.437C141.948 200.982 141.193 203.911 141.162 204.039C140.955 204.875 140.153 205.444 139.263 205.356C137.713 205.221 133.193 204.948 131.838 205.472C124.93 208.128 119.623 215.468 120.532 222.813C120.584 223.197 120.484 223.581 120.244 223.894C119.457 224.931 117.792 224.509 117.609 223.193C116.301 214.461 122.168 205.641 130.574 202.269C131.808 201.776 133.914 201.678 135.241 201.678C137.635 201.678 138.186 201.999 138.59 201.197C140.68 197.036 144.744 193.686 150.294 192.341C152.183 191.887 155.996 192.289 157.936 192.522C158.26 192.56 158.579 192.444 158.798 192.204C162.203 188.496 163.484 184.57 171.688 182.603C179.574 180.709 177.25 183.744 179.823 178.995C181.748 176.518 184.126 174.659 187.706 173.367C191.611 171.96 196.158 172.466 200.142 173.632C201.235 173.954 201.101 172.894 203.571 170.798C207.306 167.622 211.37 166.776 216.451 166.462C220.525 166.209 220.917 166.736 221.394 165.881C223.345 162.382 226.507 160.412 230.354 159.472C232.505 158.943 234.541 158.529 236.877 159.399C236.963 159.417 237.64 159.534 238.292 159.644C240.221 159.97 239.464 155.596 242.314 152.955C245.532 149.978 249.001 150.004 253.236 150.871C253.676 150.959 254.127 150.746 254.334 150.342C257.162 144.778 263.095 140.455 269.481 141.615C269.583 141.633 269.893 141.717 270.582 142.101C273.238 143.585 274.1 131.529 282.383 133.275C283.157 133.442 283.657 134.208 283.487 134.986L283.489 134.988Z" fill="black"/>
<path d="M178.39 147.293C176.516 142.921 177.105 136.882 176.886 132.173C176.44 122.712 176.545 113.227 174.673 103.838C173.119 96.041 169.526 89 167.136 81.4866C165.52 76.4074 164.905 70.7291 162.655 65.881C158.521 56.9707 146.989 48.993 133.728 46.9709C132.873 46.8403 131.135 46.193 131.406 44.9046C133.84 35.8938 143.681 21.4238 146.509 15.2893C147.048 14.1235 147.715 12.6924 147.148 11.41C146.577 10.1256 144.344 10.1437 143.191 10.0211C132.144 8.84522 129.798 11.4964 125.414 9.89846C123.189 9.08642 120.825 7.39601 118.395 7.40003C116.819 7.40204 116.976 8.63418 116.349 9.73767C115.975 10.399 115.41 10.7527 114.731 11.0482C98.6912 18.0571 95.3687 19.0822 94.8662 21.1344C94.5506 22.4348 98.5143 26.1694 99.451 27.1181C113.812 41.6524 113.822 43.9881 112.972 48.8583C112.972 48.8583 99.2781 53.8371 88.6653 63.666C81.0273 70.7392 75.8395 81.2595 74.6858 90.0754C73.6607 97.9224 75.3752 105.906 75.0415 113.779C74.7702 120.161 72.3481 126.655 72.6778 133.011C72.929 137.807 74.6838 142.981 75.93 147.679C72.9592 151.729 66.6397 162.424 68.7241 166.257C69.5984 167.865 72.2838 168.177 73.8757 168.4C78.9047 169.109 83.8996 170.486 88.999 170.543C104.788 170.719 122.055 166.191 137.51 162.884C141.918 162.88 147.599 162.452 151.367 162.521C159.214 162.665 167.2 165.501 175.037 163.775C177.588 163.214 181.234 162.086 182.848 159.785C185.801 155.57 179.875 150.772 178.386 147.297L178.39 147.293Z" fill="#B8E6E6"/>
<path d="M121.879 38.7529C121.39 38.7529 120.964 38.3952 120.886 37.8987C120.383 34.6947 119.947 32.2787 119.911 28.5361C119.899 27.2075 121.909 27.1874 121.921 28.516C121.955 32.0677 122.377 34.4314 122.873 37.5952C122.968 38.2022 122.496 38.7529 121.879 38.7529Z" fill="black"/>
<path d="M127.665 38.6256C127.002 38.6256 126.522 37.9945 126.695 37.3573C126.817 36.9051 129.734 26.2058 133.006 19.4924C133.249 18.994 133.852 18.7869 134.349 19.0301C134.847 19.2733 135.056 19.8743 134.811 20.3748C131.621 26.9174 128.662 37.7754 128.632 37.8839C128.51 38.3322 128.108 38.6256 127.665 38.6256Z" fill="black"/>
<path d="M145.178 115.507C143.619 107.837 135.319 105.916 128.487 105.443C116.751 104.631 114.16 102.356 114.47 99.6826C114.747 97.2907 116.946 94.523 123.474 93.1843C131.151 91.6125 135.474 93.3089 135.571 98.0364C135.633 101.178 141.154 100.121 140.764 96.332C140.25 91.3472 135.532 86.3704 125.945 87.689L125.205 81.4761C125.052 80.1917 123.921 79.251 122.63 79.3334C121.312 79.4198 120.321 80.5836 120.457 81.9082C120.689 84.1393 121.022 87.2769 121.173 88.4588C112.11 90.0728 108.785 95.2003 108.719 100.933C108.657 106.513 113.949 108.577 118.695 109.397C131.163 111.552 133.748 109.608 137.661 113.075C140.825 115.879 141.962 120.508 138.021 123.467C136.572 124.556 131.971 127.784 126.707 128.566C121.822 129.29 115.728 127.827 114.916 121.568C114.723 120.076 114.379 118.788 112.689 118.663C111.119 118.546 110.606 120.914 110.6 122.048C110.568 128.196 117.139 135.33 127.072 133.103L127.772 138.636C128.057 140.891 130.982 141.663 132.286 139.824C133.289 138.411 132.331 137.25 131.724 132.03C139.203 130.395 146.718 123.075 145.18 115.513L145.178 115.507Z" fill="#A5B7D4"/>
<path d="M126.775 138.757L126.21 134.289C121.766 135.015 117.597 134.012 114.375 131.421C107.69 126.04 108.882 117.369 112.763 117.658C115.451 117.857 115.762 120.275 115.913 121.437C116.584 126.617 121.519 128.317 126.558 127.57C131.418 126.848 135.77 123.897 137.416 122.661C140.646 120.237 139.906 116.408 136.992 113.825C133.406 110.648 131.022 112.547 118.522 110.386C109.519 108.828 107.674 104.38 107.712 100.921C107.758 96.8871 109.451 89.9084 120.064 87.6511C119.893 86.1657 119.643 83.798 119.456 82.0131C119.26 80.1197 120.673 78.4554 122.564 78.3328C124.397 78.2122 125.987 79.5428 126.202 81.3578L126.823 86.5758C136.039 85.6854 141.187 90.628 141.763 96.2298C142.129 99.7855 138.375 101.745 136.041 100.541C133.557 99.2609 135.534 96.7404 133.169 94.8469C131.46 93.4801 128.176 93.245 123.68 94.1676C115.678 95.8057 114.655 99.7895 115.891 101.277C117.227 102.887 121.491 103.952 128.558 104.441C138.921 105.158 144.845 108.814 146.165 115.307C147.733 123.005 140.561 130.657 132.833 132.786C133.418 137.125 134.355 138.643 133.108 140.403C131.277 142.981 127.177 141.928 126.777 138.759L126.775 138.757ZM128.071 132.973L128.769 138.506C128.938 139.855 130.694 140.328 131.466 139.238C132.111 138.329 131.275 136.88 130.725 132.14C130.664 131.628 131.004 131.154 131.508 131.043C138.652 129.481 145.595 122.593 144.194 115.709C143.058 110.133 137.898 107.102 128.417 106.447C122.703 106.051 112.819 105.17 113.471 99.5664C113.708 97.5162 115.298 93.8339 123.271 92.1998C129.679 90.8872 136.441 91.4782 136.574 98.0167C136.606 99.6609 140.013 98.887 139.762 96.4368C139.275 91.7174 134.743 87.4943 126.077 88.6863C125.517 88.7627 125.008 88.3647 124.942 87.8099L124.202 81.597C124.114 80.8433 123.45 80.2905 122.691 80.3387C121.941 80.387 121.374 81.0463 121.452 81.8061C121.684 84.0291 122.015 87.1567 122.164 88.3325C122.232 88.8632 121.871 89.3556 121.344 89.4501C113.808 90.7928 109.788 94.7665 109.718 100.945C109.676 104.841 112.751 107.351 118.86 108.406C131.251 110.549 134.085 108.569 138.32 112.322C142.167 115.731 142.905 121.049 138.618 124.269C136.849 125.598 132.164 128.77 126.847 129.558C120.604 130.482 114.731 128.008 113.913 121.695C113.698 120.036 113.384 119.721 112.608 119.662C111.953 119.62 111.603 121.347 111.599 122.05C111.569 127.966 117.959 134.112 126.845 132.118C127.426 131.99 127.989 132.388 128.061 132.973H128.071Z" fill="black"/>
<path d="M111.209 81.9522C110.952 81.9522 110.695 81.8535 110.498 81.6586C108.623 79.7832 107.815 77.0898 110.016 70.0488C111.137 66.4569 114.09 57.4584 114.132 55.1951C113.328 55.3499 112.064 56.2504 111 58.2021C110.735 58.6885 110.126 58.8694 109.638 58.6041C109.151 58.3388 108.97 57.7277 109.238 57.2413C111.668 52.7871 115.103 52.5258 115.877 53.8846C116.64 55.2273 115.734 58.4895 111.937 70.646C109.65 77.9704 111.131 79.4456 111.921 80.2375C112.556 80.8727 112.098 81.9522 111.209 81.9522Z" fill="black"/>
<path d="M145.711 70.5898C145.158 70.5576 144.684 70.9878 144.656 71.5425C144.588 73.0601 144.194 77.3414 143.619 78.7464C142.099 77.0519 138.763 67.6572 133.406 55.5972C131.514 51.34 127.575 51.0848 125.458 50.9501C124.908 50.9219 124.427 51.334 124.391 51.8888C124.355 52.4435 124.775 52.9219 125.33 52.9561C127.78 53.1149 130.278 53.5108 131.569 56.4133C139.745 74.8048 140.976 80.9534 143.721 80.9534C144.827 80.9534 145.394 79.9403 145.691 78.881C146.415 76.3082 146.654 71.834 146.662 71.6451C146.69 71.0903 146.266 70.6179 145.711 70.5898Z" fill="black"/>
<path d="M148.7 64.2593C148.435 64.2593 148.169 64.1548 147.972 63.9478C146.179 62.0664 140.945 56.959 138.306 55.9399C137.788 55.7409 137.53 55.158 137.731 54.6395C137.932 54.1209 138.513 53.8656 139.03 54.0646C142.628 55.4555 149.15 62.2714 149.428 62.5609C150.041 63.2041 149.574 64.2593 148.7 64.2593Z" fill="black"/>
<path d="M100.283 153.072C97.6158 153.072 95.045 152.716 92.5888 152.008C92.0562 151.854 91.7487 151.297 91.9014 150.764C92.0562 150.231 92.6109 149.922 93.1456 150.077C97.3626 151.295 101.972 151.383 106.844 150.34C112.07 149.22 124.99 148.039 125.537 147.988C126.094 147.938 126.578 148.346 126.628 148.899C126.678 149.452 126.27 149.94 125.718 149.99C105.571 151.817 106.462 153.072 100.283 153.072Z" fill="black"/>
<path d="M106.964 158.879C113.431 156.312 120.723 155.94 126.538 154.095C132.312 152.262 158.955 139.083 163.558 137.931C164.095 137.796 164.641 138.124 164.776 138.663C164.911 139.201 164.583 139.746 164.044 139.881C159.729 140.959 133.054 154.133 127.145 156.01C121.155 157.912 113.945 158.27 107.704 160.746C106.454 161.242 105.744 159.363 106.964 158.879Z" fill="black"/>
<path d="M179.314 146.897C177.986 143.797 177.97 139.769 177.956 135.873C177.937 131.821 177.921 133.799 177.652 125.964C176.93 104.996 175.489 100.787 171.081 89.398C167.998 81.4304 167.654 80.0053 166.547 75.2215C165.785 71.9351 164.997 68.5383 163.568 65.4569C159.17 55.9818 146.961 47.9699 133.88 45.978C133.354 45.8976 132.646 45.6001 132.377 45.166C133.953 39.3329 138.777 31.0276 142.654 24.3544C147.637 15.7818 149.068 13.2653 148.067 11.002C147.333 9.34576 145.205 9.18295 143.798 9.06436C131.396 8.02519 129.615 10.3588 125.758 8.9518C123.577 8.15383 121.125 6.39106 118.405 6.39307C116.088 6.39307 115.973 8.36086 115.475 9.24124C115.085 9.93268 115.131 9.79399 106.769 13.4019C92.3416 19.6249 90.6492 19.7153 98.7374 27.8197C112.524 41.6344 112.743 44.1308 112.082 48.1187C109.376 49.1679 97.5495 54.0662 87.9839 62.9243C80.5489 69.8086 74.939 80.4133 73.6908 89.9407C72.6436 97.9466 74.3702 105.894 74.0385 113.731C73.7692 120.075 71.3331 126.501 71.6748 133.057C71.924 137.817 73.5722 142.801 74.8405 147.48C73.2144 149.838 65.2126 161.894 67.8437 166.73C68.9251 168.717 71.7009 169.103 73.7391 169.387C78.762 170.094 83.785 171.481 88.9909 171.54C105.001 171.692 121.736 167.284 137.621 163.879C141.8 163.869 147.844 163.455 151.353 163.516C159.086 163.656 167.208 166.521 175.256 164.748C179.443 163.827 182.277 162.348 183.674 160.352C187.111 155.443 180.743 150.231 179.312 146.891L179.314 146.897ZM107.567 15.2491C116.417 11.4321 116.793 11.6673 117.688 9.16285C117.963 8.39905 117.963 8.39503 118.405 8.40307C120.58 8.43925 122.876 10.0392 125.068 10.8392C128.918 12.2422 131.259 10.6864 137.882 10.7146C131.024 13.4643 117.487 18.7727 110.49 20.6781C107.318 21.5404 100.203 20.7927 97.2661 19.9807C98.8882 18.9938 102.044 17.633 107.567 15.2491ZM182.03 159.204C180.946 160.752 178.454 161.992 174.826 162.79C170.072 163.837 165.096 163.118 160.282 162.422C153.49 161.439 152.031 161.375 145.367 161.636C149.801 160.416 153.542 159.411 154.973 159.411C155.528 159.411 155.978 158.961 155.978 158.406C155.978 157.851 155.528 157.401 154.973 157.401C150.437 157.401 113.979 169.819 89.0171 169.534C84.0644 169.477 79.1259 168.114 73.8195 167.371C72.4687 167.182 70.2095 166.868 69.6125 165.771C68.1975 163.17 71.9823 155.313 75.6084 149.892C76.0425 152.049 76.2817 154.205 76.2194 155.033C76.1772 155.586 76.5912 156.071 77.144 156.113C77.7088 156.155 78.1812 155.733 78.2234 155.188C78.6455 149.671 74.0988 140.847 73.6848 132.955C73.5039 129.508 74.1873 125.896 74.8466 122.402C76.1611 115.434 76.4043 113.49 75.7269 103.565C75.4254 99.1546 75.1119 94.5939 75.6847 90.204C76.8747 81.1148 82.2393 70.9864 89.3507 64.4037C99.6861 54.8341 113.181 49.8553 113.318 49.805C113.656 49.6824 113.905 49.387 113.965 49.0332C114.918 43.566 114.57 40.8827 100.169 26.4147C99.2138 25.4559 96.6571 22.9474 95.9697 21.6811C99.1374 22.8268 107.344 23.6208 111.019 22.6218C120.283 20.0993 140.091 12.009 142.61 10.9739C146.143 11.3296 147.339 11.1045 145.599 14.8713C142.718 21.1143 132.924 35.4376 130.423 44.6997C130.047 46.4825 131.79 47.6946 133.569 47.9659C146.023 49.8633 157.612 57.4049 161.743 66.3051C163.92 71.0005 164.571 76.7471 166.177 81.7942C168.551 89.2634 172.161 96.3828 173.686 104.037C175.538 113.323 175.445 122.961 175.881 132.221C176.102 136.935 175.499 143.104 177.467 147.691C178.991 151.255 184.478 155.711 182.03 159.204Z" fill="black"/>
<path d="M113.057 43.8353C113.057 43.8353 111.782 45.3066 105.055 43.2122C102.231 42.3338 95.3365 43.1157 90.8582 47.9719C88.4884 50.5427 90.6813 53.0592 94.6833 50.5809C98.2731 48.3578 101.143 46.3076 105.011 47.3649C108.741 48.3859 112.428 48.5186 113.658 47.7226L113.055 43.8333L113.057 43.8353Z" fill="#A5B7D4"/>
<path d="M91.7466 52.5981C89.0412 52.5981 87.7347 49.8785 90.1226 47.2897C94.6933 42.331 101.909 41.1793 105.356 42.2526C110.982 44.0033 112.389 43.0908 112.389 43.0908C112.878 42.526 113.905 42.725 114.052 43.6817L114.655 47.5711C114.715 47.963 114.54 48.353 114.208 48.568C112.45 49.7057 108.074 49.2434 104.749 48.3349C99.3525 46.8555 95.6621 52.5981 91.7466 52.5981ZM102.572 43.9028C95.4671 43.9028 90.1025 49.2816 90.9848 50.3509C91.2863 50.7167 92.4743 50.769 94.1566 49.7238C97.8591 47.4243 101.033 45.2314 105.28 46.3932C108.56 47.2917 111.292 47.3681 112.546 47.0867L112.257 45.2234C110.956 45.4686 108.681 45.3902 104.757 44.1701C104.219 44.0013 103.465 43.9008 102.572 43.9008V43.9028Z" fill="black"/>
<path d="M113.099 42.2672C116.522 41.0451 119.983 43.6581 132.057 41.0933C132.674 39.5657 131.756 37.9637 129.832 37.2401C125.599 35.6462 116.948 36.2291 114.168 37.7246C111.814 38.9929 111.833 40.7978 113.099 42.2672Z" fill="#A5B7D4"/>
<path d="M113.439 43.2135C113.049 43.3542 112.61 43.2376 112.339 42.9241C110.562 40.8618 110.894 38.3473 113.694 36.8398C116.781 35.1795 125.665 34.5986 130.188 36.3011C132.851 37.3041 133.752 39.5875 132.992 41.4708C132.867 41.7804 132.596 42.0075 132.268 42.0778C119.975 44.6888 116.58 42.0899 113.439 43.2135ZM131.241 40.2367C131.309 39.2679 130.401 38.5262 129.48 38.1805C125.06 36.5162 111.248 37.1272 113.501 41.105C117 40.307 120.429 42.4296 131.241 40.2367Z" fill="black"/>
<path d="M112.976 48.8585C118.669 46.8143 125.874 45.6626 133.727 46.9731C136.459 45.8736 135.356 40.0165 132.517 40.6296C120.451 43.2305 115.64 40.5431 112.19 42.1692C108.391 43.9601 110.631 47.4515 112.976 48.8585Z" fill="#A5B7D4"/>
<path d="M111.762 41.2588C115.637 39.4297 120.116 42.2739 132.304 39.6448C136.399 38.7624 137.939 46.3602 134.102 47.9039C133.931 47.9722 133.752 47.9943 133.567 47.9642C125.038 46.5411 117.844 48.1772 113.316 49.8033C111.64 50.4023 105.835 44.0527 111.762 41.2588ZM112.62 43.0759C111.682 43.5181 111.19 44.0748 111.157 44.7281C111.107 45.7391 112.06 46.9793 113.115 47.7431C117.826 46.117 125.048 44.5733 133.565 45.926C134.946 44.9833 134.192 41.297 132.731 41.6106C120.554 44.2356 115.766 41.5945 112.62 43.0759Z" fill="black"/>
<path d="M216.546 165.501C215.902 161.506 217.639 156.645 218.431 152.712C220.021 144.81 222.067 137.004 222.463 128.867C222.793 122.11 221.283 115.555 220.865 108.862C220.582 104.335 221.249 99.5212 220.395 95.0549C218.825 86.8461 210.956 77.8757 200.429 73.4657C199.752 73.1823 198.451 72.2877 198.942 71.2787C202.813 64.3442 213.929 54.4369 217.532 49.9586C218.218 49.1084 219.066 48.0652 218.861 46.8873C218.656 45.7094 216.809 45.2632 215.882 44.9215C207.008 41.6653 204.524 43.37 201.237 41.1429C199.569 40.0133 197.967 38.1277 195.961 37.6292C194.003 37.1428 194.884 39.4302 192.184 39.8825C177.495 42.3507 174.543 42.5097 173.702 44.0996C173.172 45.1067 175.672 49.0099 176.249 49.9867C185.097 64.9532 184.621 66.883 182.914 70.7281C182.914 70.7281 170.583 72.0043 159.789 77.9217C152.023 82.1789 145.566 89.791 142.791 96.828C140.322 103.091 140.085 110.035 138.182 116.465C136.638 121.677 133.295 126.536 132.254 131.85C131.47 135.86 131.848 140.493 131.906 144.628C128.618 147.357 121.189 154.877 122.118 158.47C122.508 159.978 124.658 160.79 125.927 161.305C129.931 162.931 133.77 165.099 137.967 166.201C150.961 169.612 166.149 169.445 179.59 169.911C183.23 170.82 188.006 171.64 191.103 172.476C197.549 174.219 203.555 178.211 210.379 178.408C212.6 178.472 215.844 178.295 217.651 176.729C220.959 173.861 217.062 168.675 216.55 165.499L216.546 165.501Z" fill="#CFE6E6"/>
<path d="M193.704 68.3321C193.083 68.3321 192.608 67.7733 192.711 67.1603C193.159 64.493 193.115 60.7423 192.574 55.6912C192.514 55.1385 192.914 54.644 193.467 54.5857C194.023 54.5274 194.514 54.9274 194.572 55.4782C195.133 60.7142 195.171 64.6438 194.693 67.4939C194.61 67.9844 194.184 68.3321 193.702 68.3321H193.704Z" fill="black"/>
<path d="M189.77 69.5523C189.332 69.5523 188.93 69.2649 188.804 68.8227C188.773 68.7182 185.762 58.1958 182.83 52.7748C182.566 52.2864 182.747 51.6774 183.236 51.4121C183.724 51.1467 184.333 51.3296 184.599 51.8181C187.638 57.434 190.615 67.8318 190.739 68.2719C190.922 68.9131 190.438 69.5523 189.77 69.5523Z" fill="black"/>
<path d="M196.524 115.732C197.193 111.081 193.955 106.066 186.144 105.025L186.757 100.245C186.93 98.888 186.012 97.6318 184.665 97.3866C183.272 97.1333 181.953 98.084 181.752 99.485C181.517 101.131 181.202 103.364 181.045 104.58C171.799 104.12 168.995 109.449 168.141 112.703C167.106 116.65 169.383 119.893 174.906 122.339C184.767 126.702 187.202 125.633 189.589 129.12C191.571 132.017 191.356 135.593 187.957 137.024C186.319 137.713 182.046 139.273 177.809 138.857C173.256 138.409 169.435 135.8 169.974 131.201C170.086 130.236 170.299 128.437 168.394 127.808C165.646 126.899 163.09 133.422 167.27 138.951C169.399 141.765 172.681 143.422 176.559 143.655L176.056 147.828C175.773 150.181 178.544 151.743 180.364 150.181C181.644 149.086 181.139 147.828 181.626 143.759C188.365 143.745 195.913 139.01 196.206 132.423C196.452 126.968 192.399 122.843 184.164 120.164C178.335 118.268 174.969 116.445 174.155 114.751C173.314 113.004 175.15 109.674 182.388 109.989C186.922 110.186 191.917 111.436 190.898 115.881C190.148 119.171 195.963 119.631 196.524 115.732Z" fill="#A5B7D4"/>
<path d="M175.059 147.705L175.439 144.555C171.729 144.083 168.571 142.332 166.47 139.553C161.626 133.147 164.899 125.588 168.712 126.848C171.391 127.735 171.087 130.331 170.973 131.31C170.498 135.348 173.986 137.465 177.907 137.853C181.919 138.247 186 136.753 187.567 136.094C190.325 134.932 190.405 132.09 188.759 129.684C187.533 127.891 186.394 127.53 183.35 126.563C175.15 123.954 165.055 120.505 167.168 112.444C168.066 109.03 170.939 103.454 180.169 103.546C180.335 102.302 180.573 100.64 180.757 99.3413C181.041 97.3735 182.892 96.0389 184.846 96.3967C186.717 96.7384 187.993 98.483 187.754 100.37L187.266 104.181C194.878 105.568 198.244 110.834 197.519 115.874C197.024 119.313 192.96 120.523 190.828 118.645C189.985 117.906 189.654 116.814 189.919 115.654C190.146 114.668 190.024 113.884 189.545 113.257C188.552 111.954 185.996 111.148 182.343 110.989C178.38 110.816 175.714 111.737 175.041 113.516C174.197 115.755 182.209 118.466 184.476 119.204C193.195 122.04 197.479 126.502 197.211 132.464C196.902 139.387 189.411 144.316 182.53 144.732C182.207 148.069 182.585 149.598 181.017 150.941C178.514 153.088 174.665 150.977 175.059 147.705ZM166.302 130.766C165.025 135.752 168.989 142.189 176.621 142.648C177.2 142.682 177.628 143.201 177.558 143.771L177.055 147.944C176.88 149.399 178.595 150.372 179.71 149.415C180.579 148.674 180.161 147.556 180.631 143.637C180.691 143.132 181.119 142.752 181.628 142.75C187.831 142.738 194.934 138.472 195.207 132.374C195.43 127.425 191.611 123.638 183.859 121.116C179.517 119.703 171.59 116.995 173.166 112.806C173.753 111.251 175.732 108.69 182.436 108.981C187.756 109.212 193.067 110.937 191.883 116.101C191.447 118.018 195.171 118.111 195.535 115.584C196.122 111.5 193.28 106.985 186.018 106.017C185.469 105.944 185.083 105.442 185.153 104.893L185.766 100.113C185.937 98.7624 184.418 97.8619 183.356 98.6257C183.025 98.8649 182.812 99.2187 182.753 99.6227C182.52 101.265 182.205 103.49 182.048 104.704C181.982 105.225 181.535 105.602 181.001 105.58C172.886 105.174 170.062 109.367 169.118 112.953C168.215 116.398 170.243 119.168 175.318 121.415C185.139 125.761 187.792 124.703 190.424 128.549C192.753 131.952 192.363 136.257 188.353 137.945C186.645 138.665 182.185 140.292 177.716 139.851C172.561 139.342 168.376 136.249 168.981 131.077C169.136 129.755 169.041 129.071 168.084 128.754C167.272 128.486 166.517 129.942 166.306 130.762L166.302 130.766Z" fill="black"/>
<path d="M174.818 97.8543C174.476 97.8543 174.143 97.6794 173.956 97.3658C172.768 95.384 172.649 92.9499 175.96 87.5289C177.759 84.5842 181.674 78.3552 182.353 76.3493C181.68 76.4055 180.589 76.9101 179.461 78.1321C179.085 78.5402 178.448 78.5663 178.04 78.1904C177.632 77.8146 177.606 77.1774 177.982 76.7694C181.019 73.475 184.022 74.0478 184.41 75.4347C184.908 77.2216 181.214 82.7793 177.674 88.5741C174.319 94.0674 175.206 95.5427 175.678 96.3327C176.082 97.006 175.59 97.8543 174.818 97.8543Z" fill="black"/>
<path d="M201.991 103.771C199.201 103.771 199.593 98.2835 196.548 80.8365C196.098 78.2556 194.16 77.4315 192.214 76.8084C191.686 76.6396 191.394 76.0728 191.565 75.5441C191.736 75.0155 192.301 74.7241 192.83 74.8929C194.454 75.4135 197.832 76.4949 198.53 80.4887C199.459 85.8172 201.378 99.7948 202.045 101.429C202.827 100.143 203.772 97.4029 204.226 95.9577C204.389 95.427 204.954 95.1296 205.482 95.2904C206.013 95.4532 206.311 96.014 206.15 96.5466C206.104 96.7014 204.976 100.36 203.838 102.347C203.298 103.292 202.679 103.769 201.993 103.769L201.991 103.771Z" fill="black"/>
<path d="M209.42 91.005C209.07 91.005 208.731 90.8221 208.546 90.4965C207.458 88.581 204.212 83.3067 202.266 81.9359C201.812 81.6163 201.704 80.9892 202.023 80.535C202.343 80.0807 202.972 79.9742 203.424 80.2938C206.088 82.1711 209.87 88.7599 210.292 89.5056C210.674 90.1789 210.18 91.005 209.42 91.005Z" fill="black"/>
<path d="M172.649 156.993C172.338 156.993 161.488 155.238 156.8 155.078C152.254 154.921 148.175 153.811 144.678 151.777C144.198 151.498 144.035 150.883 144.314 150.402C144.594 149.922 145.209 149.759 145.689 150.038C148.895 151.904 152.658 152.923 156.869 153.068C161.423 153.224 172.34 154.923 172.802 154.993C174.02 155.184 173.881 156.991 172.647 156.991L172.649 156.993Z" fill="black"/>
<path d="M170.394 162.309C165.586 162.309 160.38 161.479 155.442 162.139C154.897 162.213 154.386 161.825 154.312 161.274C154.24 160.724 154.625 160.219 155.174 160.145C161.076 159.359 167.168 160.565 172.33 160.243C177.355 159.932 202.258 154.557 206.234 154.557C207.563 154.513 207.579 156.567 206.234 156.567C201.7 156.567 177.278 162.307 170.392 162.307L170.394 162.309Z" fill="black"/>
<path d="M222.634 116.186C221.735 108.948 221.751 107.76 221.824 103.569C221.874 100.691 221.926 97.7162 221.382 94.864C219.703 86.0863 211.247 76.9046 200.817 72.5369C200.301 72.3198 199.855 71.8917 199.818 71.7671C202.315 67.2968 208.007 61.4477 212.582 56.7464C218.547 50.6199 220.222 48.8611 219.85 46.7165C219.571 45.1105 217.727 44.4914 216.626 44.1175C206.552 40.6925 204.606 42.2161 201.798 40.3126C200.132 39.185 198.494 37.2272 196.2 36.6564C194.168 36.1499 193.642 37.8343 193.059 38.4473C192.659 38.8674 192.791 38.783 185.093 40.0392C171.851 42.2 170.297 41.9829 175.381 50.5033C183.776 64.5713 183.543 66.7381 182.223 69.8013C179.608 70.135 168.943 71.7611 159.303 77.0453C151.715 81.206 144.865 88.828 141.852 96.4639C139.317 102.894 139.108 109.784 137.215 116.184C135.673 121.39 132.351 126.126 131.265 131.661C130.487 135.645 130.811 140.099 130.889 144.179C128.93 145.896 119.941 154.079 121.139 158.728C121.641 160.665 123.985 161.612 125.543 162.243C129.571 163.879 133.404 166.05 137.705 167.182C151.805 170.882 171.413 170.641 179.443 170.92C182.808 171.755 187.985 172.687 190.834 173.455C197.213 175.18 203.294 179.218 210.343 179.421C212.992 179.491 216.302 179.23 218.302 177.497C222.252 174.072 218.027 168.394 217.536 165.349C216.931 161.586 218.618 156.87 219.416 152.915C223.154 134.32 224.541 131.522 222.634 116.192V116.186ZM185.417 42.0211C193.463 40.7106 193.816 40.992 195.133 39.0262C195.244 38.8634 195.408 38.6182 195.477 38.58C196.478 38.3287 199.463 41.1608 200.671 41.9769C203.44 43.8542 205.704 43.2371 210.55 44.3587C204.126 45.2291 192.596 46.6883 186.683 46.8089C183.998 46.8632 178.701 44.9657 176.301 43.6914C177.919 43.2452 180.774 42.7789 185.417 42.0211ZM221.46 128.819C221.07 136.823 219.026 144.658 217.446 152.513C216.652 156.44 214.875 161.441 215.555 165.662C216.252 169.99 222.869 177.754 210.405 177.407C203.135 177.198 198.124 172.882 187.624 170.633C194.926 170.48 194.371 170.838 194.922 170.838C196.1 170.838 196.309 169.144 195.165 168.858C192.731 168.247 185.264 168.828 176.235 168.806C163.803 168.448 150.093 168.348 138.22 165.232C135.512 164.521 132.877 163.315 130.331 162.149C125.74 160.048 123.408 159.449 123.091 158.221C122.51 155.972 126.94 150.501 131.012 146.748C130.914 148.471 130.684 150.095 130.477 150.714C130.26 151.365 130.747 152.036 131.432 152.036C131.852 152.036 132.244 151.771 132.385 151.351C134.031 146.421 131.886 138.977 133.243 132.045C133.804 129.179 135.11 126.349 136.375 123.609C138.911 118.114 139.514 116.546 141.008 108.208C141.669 104.512 142.352 100.691 143.729 97.1996C146.577 89.9737 153.074 82.7537 160.276 78.8061C170.756 73.0615 182.898 71.743 183.019 71.7309C183.377 71.6927 183.69 71.4676 183.835 71.14C185.774 66.7722 186.058 64.4587 177.117 49.4802C176.416 48.3044 175.258 46.4029 174.758 45.1225C177.294 46.6541 183.391 48.8229 186.593 48.8229C192.683 48.8229 209.135 46.624 215.193 45.7456C218.059 46.7546 218.793 46.7969 216.753 49.3315C213.1 53.868 202.039 63.6748 198.041 70.8425C197.326 72.3178 198.542 73.767 200.037 74.3921C209.88 78.5147 217.852 87.0933 219.412 95.2459C220.238 99.5654 219.581 104.397 219.866 108.928C220.282 115.587 221.786 122.206 221.464 128.823L221.46 128.819Z" fill="black"/>
<path d="M199.589 68.6099C199.589 68.6099 201.193 69.5707 206.216 66.2964C208.325 64.9215 214.232 64.7226 219.024 67.6612C221.558 69.2169 220.336 72.459 216.485 71.3576C213.032 70.3706 210.477 69.2732 207.555 71.034C204.737 72.7344 201.491 73.1063 200.299 72.7384L199.589 68.6059V68.6099Z" fill="#A5B7D4"/>
<path d="M201.422 73.8785C200.49 73.8785 199.461 73.7881 199.31 72.9137L198.6 68.7812C198.462 67.9751 199.294 67.3521 200.027 67.7058C200.166 67.744 201.684 68.0535 205.669 65.4566C210.204 62.5019 223.341 65.7601 221.132 70.7871C220.602 71.9952 218.992 73.1328 216.212 72.3268C213.1 71.4243 210.614 70.3671 208.077 71.8987C205.85 73.2434 203.243 73.8785 201.422 73.8785ZM201.169 71.8645C202.423 71.9168 204.867 71.4866 207.036 70.1781C210.288 68.2143 213.1 69.3339 216.761 70.3952C219.345 71.1449 220.121 69.5168 218.497 68.5199C213.814 65.6476 208.371 66.0958 206.765 67.141C203.911 69.0003 202.011 69.6093 200.801 69.7279L201.169 71.8645Z" fill="black"/>
<path d="M182.912 70.7305C188.034 70.222 194.218 70.7606 200.429 73.4661C202.91 73.1244 203.41 67.5688 200.94 67.4884C190.719 67.1507 186.92 63.9468 183.845 64.5558C180.339 65.2492 181.268 69.0823 182.912 70.7305Z" fill="#A5B7D4"/>
<path d="M200.429 74.4688C199.565 74.4688 193.286 70.7101 183.015 71.7292C182.711 71.7573 182.416 71.6528 182.201 71.4398C179.632 68.867 179.63 64.3605 183.65 63.5666C187.198 62.8651 190.54 66.1354 200.974 66.4811C204.94 66.6117 204.005 74.4688 200.429 74.4688ZM200.506 72.4026C201.77 71.7915 201.869 68.5212 200.908 68.4891C190.464 68.1434 186.779 64.9977 184.04 65.5384C183.21 65.7032 182.719 66.0731 182.536 66.672C182.253 67.6007 182.697 68.8589 183.33 69.681C189.027 69.2006 194.958 70.0509 200.506 72.4026Z" fill="black"/>
<path d="M89.0595 191.688C84.9751 189.135 81.7893 185.003 82.1089 181.079C81.8576 182.478 81.3813 185.145 81.2024 186.291C80.5712 190.353 83.8475 194.723 88.0987 197.38C97.4753 203.237 109.626 197.959 111.622 191.614C111.931 190.627 112.319 187.865 112.56 185.99C110.502 192.307 98.4039 197.525 89.0615 191.69L89.0595 191.688Z" fill="#FFF2B3"/>
<path d="M84.8704 176.098C79.1178 180.987 83.1458 187.993 89.0593 191.688C98.4339 197.545 110.588 192.267 112.582 185.921C116.027 174.953 96.3897 166.31 84.8704 176.098Z" fill="#FFF2B3"/>
<path d="M84.2192 175.332C82.3559 176.914 81.2966 178.834 81.1097 180.938C80.8565 182.351 80.3861 184.997 80.2072 186.136C79.562 190.289 82.4484 195.036 87.5638 198.232C97.5616 204.475 110.403 198.839 112.578 191.915C112.91 190.862 113.298 188.12 113.543 186.207C117.286 174.215 96.5144 164.886 84.2192 175.332ZM85.5197 176.864C90.0884 172.981 97.2138 171.467 103.917 174.155C114.759 178.5 114.52 188.297 104.195 192.114C99.1776 193.967 93.8551 193.501 89.5879 190.836C84.1066 187.411 80.4464 181.171 85.5197 176.864ZM88.6291 196.528C84.9971 194.259 81.5981 190.261 82.1931 186.446C82.2112 186.331 82.2333 186.2 82.2554 186.06C83.5117 188.474 85.7026 190.779 88.5266 192.542C96.1385 197.298 105.859 195.239 110.894 190.305C109.601 197.091 97.4952 202.065 88.6311 196.53L88.6291 196.528Z" fill="black"/>
<path d="M107.73 179.147C107.591 178.611 107.045 178.285 106.506 178.424L104.104 179.043C102.733 177.302 100.229 176.705 98.6229 177.433C95.9857 178.629 96.6128 181.071 97.0269 182.685C97.5314 184.659 97.4631 184.972 96.4521 185.252C93.0531 186.194 91.3165 182.375 93.3607 180.87C93.8069 180.54 93.9034 179.911 93.5717 179.465C92.5265 178.048 90.0381 180.617 90.5487 183.433L88.5929 183.935C87.4553 184.229 87.6683 185.913 88.8442 185.913C89.0472 185.913 89.0753 185.885 91.3306 185.306C92.5044 186.998 94.6069 187.853 96.9867 187.189C100.038 186.345 99.3706 183.742 98.9726 182.186C98.4842 180.279 98.4882 179.7 99.453 179.262C100.148 178.946 101.509 179.206 102.349 180.082C103.113 180.878 103.186 181.951 102.558 183.189C102.309 183.686 102.508 184.289 103.003 184.54C103.499 184.791 104.102 184.59 104.351 184.096C104.908 182.992 105.099 181.901 104.93 180.906L107.005 180.371C107.543 180.233 107.867 179.686 107.73 179.147Z" fill="black"/>
<path d="M152.079 188.733C147.502 187.23 143.424 183.975 142.797 180.09C142.887 181.509 143.062 184.213 143.16 185.368C143.516 189.465 147.741 192.926 152.505 194.49C163.007 197.939 173.55 189.913 173.972 183.274C174.038 182.243 173.755 179.467 173.54 177.59C173.047 184.215 162.545 192.172 152.079 188.733Z" fill="#FFF2B3"/>
<path d="M144.29 174.595C139.87 180.715 145.454 186.558 152.079 188.735C162.581 192.184 173.123 184.158 173.546 177.521C174.273 166.048 153.142 162.34 144.292 174.597L144.29 174.595Z" fill="#FFF2B3"/>
<path d="M143.476 174.006C142.045 175.988 141.474 178.102 141.794 180.193C141.884 181.626 142.059 184.305 142.157 185.455C142.521 189.642 146.459 193.563 152.189 195.444C163.387 199.121 174.512 190.582 174.973 183.338C175.043 182.235 174.766 179.481 174.549 177.563C175.32 165.025 152.923 160.927 143.476 174.006ZM145.106 175.184C148.616 170.321 155.174 167.152 162.326 168.161C173.891 169.793 175.998 179.364 166.88 185.533C162.45 188.53 157.172 189.348 152.392 187.778C146.252 185.76 141.209 180.578 145.106 175.184ZM152.818 193.537C148.75 192.2 144.495 189.129 144.161 185.284C144.151 185.169 144.141 185.037 144.129 184.894C145.924 186.938 148.604 188.653 151.765 189.692C160.292 192.492 169.24 188.174 172.953 182.18C173.318 189.079 162.748 196.797 152.818 193.537Z" fill="black"/>
<path d="M167.216 172.098C166.953 171.61 166.346 171.425 165.855 171.688L163.67 172.862C161.924 171.497 159.349 171.517 157.964 172.607C155.689 174.398 156.879 176.619 157.667 178.088C158.629 179.885 158.635 180.205 157.721 180.719C154.646 182.446 152.049 179.151 153.673 177.202C154.026 176.776 153.97 176.14 153.544 175.787C152.189 174.661 150.386 177.748 151.556 180.361L149.777 181.318C148.742 181.875 149.351 183.461 150.493 183.179C150.694 183.129 150.728 183.087 152.762 181.996C154.308 183.36 156.553 183.686 158.706 182.474C161.465 180.926 160.197 178.556 159.439 177.141C158.509 175.405 158.376 174.842 159.208 174.187C159.807 173.714 161.192 173.64 162.217 174.291C163.148 174.88 163.475 175.907 163.162 177.258C163.037 177.799 163.375 178.339 163.916 178.464C164.456 178.591 164.997 178.251 165.12 177.71C165.397 176.506 165.323 175.399 164.921 174.474L166.808 173.461C167.296 173.198 167.479 172.589 167.218 172.1L167.216 172.098Z" fill="black"/>
<path d="M133.74 186.082C128.93 186.345 123.947 184.796 121.949 181.403C122.548 182.691 123.694 185.147 124.206 186.186C126.027 189.873 131.221 191.561 136.226 191.288C147.265 190.685 154.167 179.377 152.147 173.037C151.834 172.052 150.561 169.57 149.679 167.897C151.629 174.249 144.736 185.479 133.738 186.08L133.74 186.082Z" fill="#FFF2B3"/>
<path d="M121.344 175.74C119.451 183.049 126.777 186.464 133.74 186.082C144.779 185.479 151.681 174.171 149.661 167.833C146.17 156.879 125.135 161.106 121.344 175.74Z" fill="#FFF2B3"/>
<path d="M120.371 175.487C119.758 177.853 119.995 180.032 121.052 181.861C121.657 183.163 122.795 185.595 123.306 186.631C125.167 190.399 130.26 192.62 136.282 192.293C148.051 191.648 155.313 179.65 153.108 172.733C152.772 171.68 151.514 169.216 150.614 167.507C146.776 155.546 124.419 159.865 120.373 175.485L120.371 175.487ZM122.317 175.992C123.82 170.187 128.777 164.85 135.806 163.192C147.174 160.509 152.615 168.659 146.364 177.722C143.327 182.124 138.706 184.805 133.683 185.081C127.229 185.433 120.646 182.434 122.317 175.992ZM136.174 190.287C131.898 190.52 126.819 189.205 125.109 185.744C125.058 185.642 125 185.521 124.936 185.392C127.352 186.645 130.471 187.268 133.794 187.087C142.756 186.596 149.522 179.32 150.8 172.388C153.649 178.681 146.61 189.716 136.174 190.287Z" fill="black"/>
<path d="M141.796 165.083C141.374 164.724 140.74 164.772 140.379 165.196L138.771 167.083C136.648 166.448 134.256 167.401 133.362 168.92C131.892 171.415 133.81 173.053 135.078 174.136C136.628 175.461 136.751 175.756 136.085 176.566C133.848 179.294 130.23 177.167 131.036 174.761C131.211 174.235 130.928 173.666 130.401 173.489C128.731 172.932 128.174 176.464 130.21 178.474L128.899 180.012C128.138 180.906 129.281 182.162 130.242 181.487C130.449 181.342 130.704 180.992 131.927 179.559C133.862 180.269 136.071 179.756 137.637 177.845C139.645 175.399 137.603 173.654 136.383 172.611C134.885 171.332 134.558 170.856 135.094 169.943C135.482 169.286 136.742 168.713 137.934 168.947C139.016 169.158 139.693 169.994 139.894 171.367C139.975 171.915 140.485 172.295 141.034 172.215C141.585 172.134 141.962 171.624 141.882 171.075C141.703 169.853 141.231 168.85 140.519 168.132L141.908 166.502C142.268 166.08 142.218 165.445 141.796 165.085V165.083Z" fill="black"/>
<path fill-rule="evenodd" clip-rule="evenodd" d="M175.345 160.752C175.383 163.789 174.321 167.053 175.085 170.03C175.761 172.659 178.044 173.736 180.074 175.369C183.571 178.179 187.684 181.439 191.376 183.961C194.379 186.014 198.122 189.595 202.172 189.175C204.311 188.952 206.383 187.308 207.979 185.989C210.162 184.188 212.427 182.474 214.576 180.637C243.134 156.227 244.038 156.66 244.786 146.38C244.893 144.909 245.037 142.975 244.505 141.534C243.849 139.763 234.334 138.727 225.81 135.471C224.306 134.896 221.524 133.899 220.795 134.121C216.952 135.29 210.184 144.35 193.601 152.294C189.246 154.38 184.872 156.201 180.488 158.207C179.389 158.71 175.877 159.459 175.345 160.748V160.752Z" fill="#8EEDCE"/>
<path d="M245.449 141.188C244.511 138.64 235.353 138.047 226.169 134.533C221.657 132.813 220.877 133.048 220.503 133.16C216.148 134.487 210.063 143.295 193.167 151.387C188.858 153.453 184.408 155.311 180.068 157.293C178.888 157.839 175.18 158.517 174.416 160.362C174.217 160.842 174.524 160.396 174.08 164.109C173.248 171.033 174.492 172.518 178.163 175.186C180.729 177.055 185.179 180.942 190.807 184.787C193.672 186.749 197.356 190.21 201.517 190.21C205.314 190.21 206.682 189.113 236.541 163.059C244.436 156.171 245.295 153.214 245.793 146.404C245.904 144.889 246.054 142.813 245.449 141.186V141.188ZM179.523 159.62C181.286 159.043 192.719 153.831 194.038 153.202C200.592 150.063 208.298 145.166 215.02 139.486C217.124 137.707 219.745 135.494 221.032 135.098C221.058 135.096 221.842 135.036 225.452 136.412C232.396 139.068 240.569 140.411 243.096 141.586C242.03 142.758 240.002 145.02 239.236 146.115C238.332 147.409 231.554 154.893 225.936 160.575C220.775 165.795 207.689 175.308 205.153 176.757C203.077 177.943 200.425 177.606 198.837 176.79C197.073 175.881 183.881 167.948 180.971 166.042C178.347 164.326 176.826 161.733 176.575 160.832C177.258 160.364 178.846 159.843 179.521 159.62H179.523ZM191.943 183.131C186.693 179.543 181.507 175.137 179.344 173.562C176.257 171.318 175.326 170.559 176.104 164.106C177.025 165.367 178.311 166.703 179.869 167.724C182.802 169.644 196.128 177.656 197.917 178.576C198.57 178.912 199.342 179.181 200.178 179.35L199.871 187.975C197.03 187.217 194.289 184.735 191.943 183.131ZM243.783 146.35C243.337 152.39 242.792 154.979 235.21 161.554C206.009 186.876 204.928 187.875 202.067 188.174C201.788 188.204 201.842 189.109 202.184 179.537C203.519 179.521 204.9 179.216 206.15 178.502C208.821 176.977 221.987 167.427 227.365 161.988C238.617 150.609 240.774 147.174 243.873 143.725C243.91 144.607 243.841 145.544 243.783 146.352V146.35Z" fill="black"/>
<path fill-rule="evenodd" clip-rule="evenodd" d="M224.465 144.654C217.955 142.163 210.226 147.93 205.149 151.767C199.014 156.402 187.943 164.72 196.19 166.752C202.435 168.289 211.82 166.486 221.01 158.141C225.078 154.447 231.996 147.534 224.465 144.654Z" fill="white"/>
<path d="M200.574 168.269C197.694 168.269 192.914 167.741 192.307 164.788C191.553 161.128 197.613 156.199 204.433 151.046C209.474 147.237 217.727 141 224.823 143.713C227.104 144.585 228.427 145.904 228.752 147.631C229.442 151.289 225.337 155.564 221.685 158.881C215.004 164.949 207.412 168.267 200.574 168.269ZM221.12 145.06C215.687 145.06 209.625 149.643 205.756 152.565C201.774 155.574 193.716 161.662 194.277 164.382C194.429 165.128 195.533 165.55 196.431 165.771C199.139 166.438 208.869 167.805 220.334 157.391C222.069 155.815 227.347 151.023 226.778 148C226.407 146.029 223.243 145.058 221.122 145.058L221.12 145.06Z" fill="black"/>
<path fill-rule="evenodd" clip-rule="evenodd" d="M202.648 147.267C199.993 148.937 197.268 150.487 194.522 151.847C198.102 153.027 217.985 160.225 220.68 162.908C222.485 164.705 220.155 172.327 218.351 177.419C221.323 174.888 224.364 172.307 227.365 169.728C228.21 165.809 228.901 159.93 228.2 158.834C227.345 157.496 204.51 147.964 202.648 147.267Z" fill="#FFEE99"/>
<path d="M217.404 177.083C221.4 165.815 220.244 163.893 219.971 163.622C218.841 162.496 217.161 161.789 215.537 161.102C212.532 159.833 212.59 159.66 203.788 156.3C200.051 154.873 197.905 154.02 194.208 152.8C193.356 152.519 193.274 151.343 194.078 150.945C201.736 147.15 201.981 145.94 203.004 146.322C207.507 148.006 212.614 150.37 216.248 151.944C226.529 156.394 228.567 157.536 229.05 158.29C230.34 160.308 228.364 169.841 228.344 169.935C228.24 170.422 228.778 169.857 219.006 178.18C218.24 178.834 217.06 178.056 217.408 177.079L217.404 177.083ZM197.093 151.657C199.579 152.521 201.05 153.106 204.502 154.422C213.464 157.843 213.366 158.006 216.316 159.25C218.035 159.976 219.983 160.798 221.388 162.197C222.358 163.164 223.233 165.491 220.455 174.305C222.447 172.609 224.453 170.898 226.445 169.188C227.365 164.764 227.711 160.131 227.341 159.357C226.137 158.199 204.662 149.11 202.759 148.384C200.855 149.57 198.958 150.666 197.091 151.659L197.093 151.657Z" fill="black"/>
<path d="M185.981 162.754C186.09 161.827 185.328 160.979 184.279 160.856C183.23 160.734 182.293 161.385 182.185 162.312C182.078 163.236 182.84 164.084 183.889 164.207C184.936 164.33 185.875 163.678 185.981 162.754Z" fill="black"/>
<path d="M223.699 139.022C223.808 138.097 223.044 137.248 221.995 137.126C220.947 137.003 220.009 137.654 219.902 138.579C219.794 139.505 220.557 140.354 221.605 140.475C222.654 140.598 223.591 139.947 223.699 139.022Z" fill="black"/>
<path d="M238.342 144.002C238.45 143.076 237.689 142.228 236.639 142.105C235.59 141.982 234.654 142.634 234.545 143.558C234.439 144.485 235.2 145.333 236.25 145.456C237.297 145.578 238.235 144.927 238.342 144.002Z" fill="black"/>
<path d="M203.891 173.387C203.997 172.46 203.235 171.612 202.186 171.489C201.137 171.369 200.2 172.018 200.092 172.945C199.985 173.869 200.747 174.717 201.796 174.84C202.845 174.963 203.782 174.311 203.891 173.387Z" fill="black"/>
<path fill-rule="evenodd" clip-rule="evenodd" d="M233.361 60.2104C234.917 53.8969 237.353 51.692 241.399 50.1885C245.423 48.6951 251.196 47.1534 254.157 43.8027C257.998 39.4551 258.42 32.0744 263.953 28.792C266.844 26.5147 270.621 29.7166 273.909 29.0674C279.127 28.0363 282.55 22.8766 286.411 19.8435C287.239 19.1923 286.25 17.94 285.424 18.5933C281.734 21.5158 278.267 26.6554 273.617 27.6604C271.288 28.1649 268.578 26.6353 266.48 26.3137C259.594 25.2605 258.43 35.4672 252.693 42.2651C244.688 51.7482 235.536 43.9474 231.787 59.8345C231.542 60.8777 233.104 61.2515 233.361 60.2104Z" fill="black"/>
<path fill-rule="evenodd" clip-rule="evenodd" d="M241.93 75.5147C240.977 76.0031 241.693 77.4342 242.655 76.9619C244.864 75.8805 246.627 75.2896 248.101 74.9217C254.181 73.4002 255.618 75.6473 260.058 75.9368C261.013 75.9991 262.068 75.9127 263.25 75.8001C265.194 75.6152 266.566 74.8253 267.746 74.2343C268.032 74.0916 271.236 72.5158 271.595 72.2766C273.302 71.1329 273.636 70.3269 275.822 70.1339C279.322 69.8224 283.034 73.3881 286.773 73.9408C287.814 74.0956 288.043 72.5137 287 72.365C283.119 71.8143 280.122 68.2907 275.682 68.7691C274.653 68.8797 272.194 69.5751 270.727 70.2847C269.386 70.9319 268.265 72.3168 266.832 73.0987C264.498 74.371 262.406 73.9268 260.179 73.8223C250.575 73.374 250.812 70.96 241.932 75.5127L241.93 75.5147Z" fill="black"/>
<path fill-rule="evenodd" clip-rule="evenodd" d="M224.256 41.8424C225.199 38.4395 230.561 31.3241 229.576 25.5373C229.12 22.8519 227.488 20.6711 227.564 17.9636C227.603 16.6169 228.151 15.3687 228.208 15.1556C229.148 11.4914 228.258 13.1296 231.998 7.47744C233.343 5.44734 234.565 3.35694 235.156 0.983134C235.409 -0.0399559 233.858 -0.419848 233.608 0.603242C232.818 3.8514 230.76 6.55686 227.709 11.6844C227.05 12.7919 226.29 13.6964 226.031 14.8763C225.512 18.046 226.889 22.6992 227.436 25.5353C228.268 29.8588 228.121 29.9573 225.424 35.0285C224.282 37.1772 223.221 39.3822 222.694 41.4243C222.427 42.4615 223.97 42.8756 224.256 41.8424Z" fill="black"/>
</svg>
