<svg width="17" height="12" viewBox="0 0 17 12" fill="none" xmlns="http://www.w3.org/2000/svg">
<path d="M6.11133 8.95911C7.48988 7.68026 9.50909 7.68036 10.8877 8.95911C10.9571 9.0279 10.9981 9.12512 11 9.22766C11.0019 9.33015 10.9651 9.42929 10.8984 9.5011L8.73926 11.8898C8.676 11.96 8.58998 12.0001 8.5 12.0001C8.40999 12.0001 8.32402 11.96 8.26074 11.8898L6.10156 9.5011C6.03492 9.42926 5.99808 9.33012 6 9.22766C6.00198 9.12523 6.04207 9.02783 6.11133 8.95911ZM3.1084 6.11047C6.14691 3.29661 10.8531 3.29661 13.8916 6.11047C13.9599 6.17632 13.9989 6.2668 14 6.36145C14.001 6.4563 13.9636 6.54802 13.8965 6.61536L12.6201 7.89954C12.4886 8.0306 12.2756 8.03384 12.1406 7.90637C11.1429 7.00695 9.84497 6.50893 8.49902 6.50891C7.15381 6.50947 5.85652 7.00745 4.85938 7.90637C4.72441 8.03396 4.51142 8.03064 4.37988 7.89954L3.10352 6.61536C3.03642 6.54822 2.99921 6.45713 3 6.36243C3.0009 6.26751 3.03986 6.17644 3.1084 6.11047ZM0.107422 3.19348C4.79922 -1.06435 12.2007 -1.06429 16.8926 3.19348C16.9605 3.25674 16.9994 3.3435 17 3.43372C17.0005 3.52386 16.9636 3.61096 16.8965 3.67493L15.6094 4.90442C15.4768 5.03062 15.2616 5.0316 15.127 4.90735C13.3394 3.29801 10.9665 2.40062 8.5 2.40051C6.03341 2.40062 3.66077 3.29794 1.87305 4.90735C1.73852 5.0318 1.52312 5.03081 1.39062 4.90442L0.103516 3.67493C0.0364951 3.61093 -0.000557231 3.52384 0 3.43372C0.00062672 3.3435 0.0394563 3.2567 0.107422 3.19348Z" fill="white"/>
</svg>
