<svg width="375" height="581" viewBox="0 0 375 581" fill="none" xmlns="http://www.w3.org/2000/svg">
<path d="M-219.973 61.7486C-230.399 73.4673 -236.432 88.4417 -237.04 104.114C-237.649 119.786 -232.796 135.183 -223.31 147.675C-190.227 195.594 -264.615 192.257 -251.411 268.271C-238.207 344.284 -217.555 349.748 -235.789 400.957C-254.023 452.164 -248.413 502.985 -234.918 554.627C-212.041 642.294 -280.527 728.703 -224.326 756.652C-168.124 784.601 -109.31 761.487 -20.0744 759.892C69.1616 758.296 128.749 771.255 204.733 772.899C280.718 774.543 383.98 755.588 435.249 752.3C486.517 749.012 584.749 772.609 617.783 757.716C650.817 742.823 668.906 707.476 665.618 654.624C662.329 601.773 639.113 582.092 650.431 535.14C671.083 449.311 654.783 421.942 654.783 359.129C654.783 332.195 633.115 290.707 631.084 256.085C628.424 210.003 645.594 171.223 649.366 147.675C655.993 106.331 637.996 56.2362 629.773 47.9676C539.377 72.1449 496.185 78.7211 496.621 26.9334C496.621 26.9334 346.685 69.1952 307.992 52.2712C288.403 47.0005 310.076 5.27064 310.076 5.27064C286.667 12.8623 108.193 68.1314 101.857 38.0066C98.8585 23.8388 114.577 0 114.577 0C114.577 0 -20.8487 54.3988 -60.364 43.519C-74.6321 41.9233 -74.6316 11.7985 -74.6316 11.7985C-74.6316 11.7985 -171.607 68.6633 -219.973 61.7486Z" fill="#E5F6FF"/>
<path d="M407.37 304.874C408.526 305.724 407.823 306.127 407.37 307.111C406.917 308.096 406.123 307.827 404.605 307.827C390.167 307.827 372.873 310.221 369.7 297.178C369.042 294.314 370.47 293.464 370.901 292.032C368.013 292.188 365.155 292.667 362.379 293.464C353.525 295.618 344.559 297.283 335.52 298.453C333.548 298.789 333.503 296.014 335.339 295.433C336.064 295.231 345.039 293.889 351.862 292.256C352.972 292.815 380.058 283.843 375.955 290.421C374.956 291.851 374.056 293.345 373.258 294.896C372.08 297.133 376.046 302.525 381.282 303.33C385.815 304.046 395.856 304.315 396.105 304.337C405.375 304.158 406.055 303.912 407.37 304.874Z" fill="black"/>
<path d="M394.945 119.609C396.712 125.544 355.617 130.175 343.225 129.995C340.554 129.935 337.96 129.107 335.755 127.61C333.551 126.114 331.832 124.013 330.81 121.565C330.069 119.312 329.854 116.922 330.176 114.574C329.836 105.155 331.014 117.249 264.138 124.892C251.021 126.398 236.137 126.803 237.881 113.787C238.923 105.942 241.869 103.019 241.665 102.098C235.661 105.177 178.866 120.261 165.998 121.52C134.282 124.622 146.651 108.279 149.075 100.299C147.829 100.299 88.9732 125.634 69.3091 119.25C61.584 116.754 63.6229 108.999 63.1471 105.762C62.8979 104.008 44.5703 116.395 16.0256 126.196C-2.80021 132.67 -8.0787 123.521 -3.38923 124.173C1.77236 126.401 7.61404 126.506 12.8538 124.465C29.3915 119.16 22.8449 120.621 31.4082 116.957C65.1407 102.525 66.0691 96.2977 66.0691 108.639C66.0691 135.862 153.289 91.3971 153.289 97.6015C153.289 98.9728 150.865 100.614 147.693 111.494C141.35 133.277 239.58 98.5907 243.953 98.5907C251.383 98.5907 226.599 122.734 253.377 122.734C283.168 122.734 329.111 106.773 331.829 108.145C336.111 110.393 325.486 126.96 348.843 126.735C372.585 126.645 393.585 117.676 394.945 119.609Z" fill="black"/>
<path d="M375.082 176.942C377.887 178.802 371.548 181.764 371.548 186.127C371.548 192.143 381.764 191.591 385.618 192.533C387.328 192.946 387.738 196 385.184 196C378.822 196 368.287 193.704 368.287 186.402C368.287 179.514 374.125 181.81 359.713 183.417C345.301 185.025 323.843 190.099 323.843 175.358C323.843 170.88 326.876 170.1 320.787 172.074C320.559 172.074 297.984 178.733 297.756 178.733C297.186 178.733 296 178.251 296 177.424C296 175.128 327.172 167 327.4 167C327.774 167.017 328.13 167.163 328.411 167.414C328.689 167.665 328.871 168.006 328.928 168.378C328.928 169.778 326.899 171.363 326.899 175.266C326.899 181.672 331.459 181.925 337.958 181.925C367.01 181.971 372.323 175.082 375.082 176.942Z" fill="black"/>
<path d="M322.523 419.663C322.292 419.947 322.002 420.181 321.673 420.348C321.347 420.514 320.987 420.611 320.62 420.631C268.528 427.072 252.152 430.832 241.53 420.924C238.744 418.335 238.427 411.039 239.854 407.684C240.805 405.432 206.719 424.122 177.547 425.112C172.79 425.27 161.692 427.364 156.256 420.609C153.244 416.781 156.596 409.643 159.631 405.657C161.262 403.405 147.604 408.787 145.385 409.53C126.201 415.97 90.6647 418.312 82.5111 416.623C75.5805 415.182 70.5071 412.007 69.5106 405.162C68.8311 400.388 71.9567 396.988 72.3643 395.592C68.6726 394.894 39.0024 410.994 29.3313 401.311C28.8783 400.883 28.901 400.343 29.3313 399.735C31.0753 397.213 32.8872 405.972 51.9803 398.924C56.8271 397.123 60.2474 396.673 71.4133 392.619C75.5581 391.111 75.7617 390.368 76.8715 391.674C78.4796 393.453 74.8557 395.412 72.9079 401.221C71.549 405.252 73.5421 411.332 81.9675 413.178C93.0202 415.587 125.839 411.444 136.756 408.675C149.213 405.455 164.206 398.789 166.403 400.951C168.6 403.113 154.399 412.052 159.472 419.1C162.756 423.604 173.062 421.915 177.591 421.915C189.98 421.915 208.598 415.655 219.13 412.3C234.984 407.278 243.636 399.87 244.044 405.049C244.157 406.693 241.349 410.453 242.866 416.15C247.781 435.426 329.974 410.408 322.523 419.663Z" fill="black"/>
<path d="M80.5876 155.302C79.4697 157.487 78.7077 159.841 78.3311 162.273C78.3311 174.045 115 158.867 115 163.279C115 165.702 112.021 165.679 109.539 166.159C99.1134 168.17 75.3296 175.302 75.3296 162.753C75.3296 159.073 77.2703 157.473 75.8938 157.473C73.6372 157.473 42.3166 169.451 33.3355 166.273C31.2143 165.542 28.8219 163.233 30.6497 161.907C32.0262 160.925 33.2678 163.942 37.1716 163.873C52.5839 163.53 80.5876 149.793 80.5876 155.302Z" fill="black"/>
<path d="M58.3927 336.941C61.5873 336.941 61.7006 340.572 59.5255 340.913C58.9591 340.913 57.5997 339.301 49.8285 341.094C44.0255 342.154 38.0908 342.286 32.247 341.48C30.0022 340.767 28.0277 339.385 26.5867 337.52C25.1455 335.657 24.3061 333.394 24.1811 331.041C23.8185 327.16 2.65731 336.079 -0.74118 332.766C-3.61857 329.929 -0.74118 329.135 -0.174766 329.498C2.36277 331.336 0.12022 330.882 17.2712 327.569C36.1442 323.915 19.1517 339.074 38.7723 338.552C52.6608 338.189 46.7019 336.828 58.3927 336.941Z" fill="black"/>
<path d="M30.9254 231.039C31.9405 230.722 33.181 232.421 32.978 232.806C31.1508 235.319 31.9859 233.961 27.2036 235.07C-3.13692 242.634 -0.588099 233.032 3.26932 234.142C10.0367 236.157 20.278 233.576 27.0454 231.583C27.3161 231.605 30.6998 231.107 30.9254 231.039Z" fill="black"/>
</svg>
