<svg width="375" height="580" viewBox="0 0 375 580" fill="none" xmlns="http://www.w3.org/2000/svg">
<path d="M-168.973 61.7486C-179.399 73.4673 -185.432 88.4417 -186.04 104.114C-186.649 119.786 -181.796 135.183 -172.31 147.675C-139.227 195.594 -213.615 192.257 -200.411 268.271C-187.207 344.284 -166.555 349.748 -184.789 400.957C-203.023 452.164 -197.413 502.985 -183.918 554.627C-161.041 642.294 -229.527 728.703 -173.326 756.652C-117.124 784.601 -58.3103 761.487 30.9256 759.892C120.162 758.296 179.749 771.255 255.733 772.899C331.718 774.543 434.98 755.588 486.249 752.3C537.517 749.012 635.749 772.609 668.783 757.716C701.817 742.823 719.906 707.476 716.618 654.624C713.329 601.773 690.113 582.092 701.431 535.14C722.083 449.311 705.783 421.942 705.783 359.129C705.783 332.195 684.115 290.707 682.084 256.085C679.424 210.003 696.594 171.223 700.366 147.675C706.993 106.331 688.996 56.2362 680.773 47.9676C590.377 72.1449 547.185 78.7211 547.621 26.9334C547.621 26.9334 397.685 69.1952 358.992 52.2712C339.403 47.0005 361.076 5.27064 361.076 5.27064C337.667 12.8623 159.193 68.1314 152.857 38.0066C149.859 23.8388 165.577 0 165.577 0C165.577 0 30.1513 54.3988 -9.36403 43.519C-23.6321 41.9233 -23.6316 11.7985 -23.6316 11.7985C-23.6316 11.7985 -120.607 68.6633 -168.973 61.7486Z" fill="#E5F6FF"/>
<path d="M445.945 119.609C447.712 125.544 406.617 130.175 394.225 129.995C391.554 129.935 388.96 129.107 386.755 127.61C384.551 126.114 382.832 124.013 381.81 121.565C381.069 119.312 380.854 116.922 381.176 114.574C380.836 105.155 382.014 117.249 315.138 124.892C302.021 126.398 287.137 126.803 288.881 113.787C289.923 105.942 292.869 103.019 292.665 102.098C286.661 105.177 229.866 120.261 216.998 121.52C185.282 124.622 197.651 108.279 200.075 100.299C198.829 100.299 139.973 125.634 120.309 119.25C112.584 116.754 114.623 108.999 114.147 105.762C113.898 104.008 95.5703 116.395 67.0256 126.196C48.1998 132.67 42.9213 123.521 47.6108 124.173C52.7724 126.401 58.614 126.506 63.8538 124.465C80.3915 119.16 73.8449 120.621 82.4082 116.957C116.141 102.525 117.069 96.2977 117.069 108.639C117.069 135.862 204.289 91.3971 204.289 97.6015C204.289 98.9728 201.865 100.614 198.693 111.494C192.35 133.277 290.58 98.5907 294.953 98.5907C302.383 98.5907 277.599 122.734 304.377 122.734C334.168 122.734 380.111 106.773 382.829 108.145C387.111 110.393 376.486 126.96 399.843 126.735C423.585 126.645 444.585 117.676 445.945 119.609Z" fill="black"/>
<path d="M426.082 176.942C428.887 178.802 422.548 181.764 422.548 186.127C422.548 192.143 432.764 191.591 436.618 192.533C438.328 192.946 438.738 196 436.184 196C429.822 196 419.287 193.704 419.287 186.402C419.287 179.514 425.125 181.81 410.713 183.417C396.301 185.025 374.843 190.099 374.843 175.358C374.843 170.88 377.876 170.1 371.787 172.074C371.559 172.074 348.984 178.733 348.756 178.733C348.186 178.733 347 178.251 347 177.424C347 175.128 378.172 167 378.4 167C378.774 167.017 379.13 167.163 379.411 167.414C379.689 167.665 379.871 168.006 379.928 168.378C379.928 169.778 377.899 171.363 377.899 175.266C377.899 181.672 382.459 181.925 388.958 181.925C418.01 181.971 423.323 175.082 426.082 176.942Z" fill="black"/>
<path d="M373.523 419.663C373.292 419.947 373.002 420.181 372.673 420.348C372.347 420.514 371.987 420.611 371.62 420.631C319.528 427.072 303.152 430.832 292.53 420.924C289.744 418.335 289.427 411.039 290.854 407.684C291.805 405.432 257.719 424.122 228.547 425.112C223.79 425.27 212.692 427.364 207.256 420.609C204.244 416.781 207.596 409.643 210.631 405.657C212.262 403.405 198.604 408.787 196.385 409.53C177.201 415.97 141.665 418.312 133.511 416.623C126.581 415.182 121.507 412.007 120.511 405.162C119.831 400.388 122.957 396.988 123.364 395.592C119.673 394.894 90.0024 410.994 80.3313 401.311C79.8783 400.883 79.901 400.343 80.3313 399.735C82.0753 397.213 83.8872 405.972 102.98 398.924C107.827 397.123 111.247 396.673 122.413 392.619C126.558 391.111 126.762 390.368 127.871 391.674C129.48 393.453 125.856 395.412 123.908 401.221C122.549 405.252 124.542 411.332 132.968 413.178C144.02 415.587 176.839 411.444 187.756 408.675C200.213 405.455 215.206 398.789 217.403 400.951C219.6 403.113 205.399 412.052 210.472 419.1C213.756 423.604 224.062 421.915 228.591 421.915C240.98 421.915 259.598 415.655 270.13 412.3C285.984 407.278 294.636 399.87 295.044 405.049C295.157 406.693 292.349 410.453 293.866 416.15C298.781 435.426 380.974 410.408 373.523 419.663Z" fill="black"/>
<path d="M131.588 155.302C130.47 157.487 129.708 159.841 129.331 162.273C129.331 174.045 166 158.867 166 163.279C166 165.702 163.021 165.679 160.539 166.159C150.113 168.17 126.33 175.302 126.33 162.753C126.33 159.073 128.27 157.473 126.894 157.473C124.637 157.473 93.3166 169.451 84.3355 166.273C82.2143 165.542 79.8219 163.233 81.6497 161.907C83.0262 160.925 84.2678 163.942 88.1716 163.873C103.584 163.53 131.588 149.793 131.588 155.302Z" fill="black"/>
<path d="M109.393 336.941C112.587 336.941 112.701 340.572 110.526 340.913C109.959 340.913 108.6 339.301 100.829 341.094C95.0255 342.154 89.0908 342.286 83.247 341.48C81.0022 340.767 79.0277 339.385 77.5867 337.52C76.1455 335.657 75.3061 333.394 75.1811 331.041C74.8185 327.16 53.6573 336.079 50.2588 332.766C47.3814 329.929 50.2588 329.135 50.8252 329.498C53.3628 331.336 51.1202 330.882 68.2712 327.569C87.1442 323.915 70.1517 339.074 89.7723 338.552C103.661 338.189 97.7019 336.828 109.393 336.941Z" fill="black"/>
<path d="M81.9254 231.039C82.9405 230.722 84.181 232.421 83.978 232.806C82.1508 235.319 82.9859 233.961 78.2036 235.07C47.8631 242.634 50.4119 233.032 54.2693 234.142C61.0367 236.157 71.278 233.576 78.0454 231.583C78.3161 231.605 81.6998 231.107 81.9254 231.039Z" fill="black"/>
</svg>
