<svg width="268" height="176" viewBox="0 0 268 176" fill="none" xmlns="http://www.w3.org/2000/svg">
<path d="M55.8076 20.2877C52.2074 22.5013 52.1635 22.805 51.6192 22.1308C50.3415 20.5437 47.574 20.4615 45.7463 21.4642C42.0201 23.5078 41.7088 24.0922 42.4422 28.4964C42.5854 29.3521 42.6274 29.0178 37.7095 32.9961C33.9757 22.2817 48.7773 11.9568 55.8076 20.2877Z" fill="#817F82"/>
<path d="M17.8793 97.08C14.0194 88.2467 5.76874 95.2675 16.3323 87.5764C17.4802 86.7398 16.7811 89.0202 19.6402 94.8148C19.9821 95.51 19.8255 95.4069 17.8793 97.08Z" fill="white"/>
<path d="M12.4323 105.163C7.71681 99.7119 3.05287 103.146 3.69841 100.734C4.45663 97.8994 6.15261 95.6744 8.20192 93.6614C9.10147 92.7771 13.6298 93.4284 15.7918 97.3838C17.1306 99.8341 13.9755 99.9812 12.4323 105.163Z" fill="white"/>
<path d="M11.0226 113.438C4.04964 111.655 2.5752 115.344 2.37849 113.165C2.11683 110.268 2.2658 107.399 2.73373 104.534C3.04695 102.617 8.22656 103.431 11.2499 106.71C12.2087 107.749 10.104 109.067 11.0226 113.438Z" fill="white"/>
<path d="M15.0813 121.406C12.3349 121.907 9.64193 122.271 7.7244 124.714C5.84507 122.398 4.26178 120.085 3.25336 117.401C2.89812 116.454 3.03945 115.921 4.06315 115.589C12.3024 112.921 11.8937 117.657 15.0832 121.406H15.0813Z" fill="white"/>
<path d="M47.7192 138.544C46.8234 138.777 46.3842 138.37 46.2027 137.533C45.836 135.83 45.5228 136.745 46.2543 133.385C46.5866 131.853 46.6573 132.717 53.9664 131.783C55.5764 131.576 55.1563 132.316 55.8496 134.703C56.6956 137.615 56.8962 136.92 47.7192 138.544Z" fill="white"/>
<path d="M44.48 138.232C44.9135 139.187 44.14 139.338 35.9313 139.243C33.9775 139.22 35.536 134.34 36.7201 132.566C37.2644 131.748 37.3236 131.981 44.6767 132.432C44.1438 134.46 43.6167 136.328 44.48 138.234V138.232Z" fill="white"/>
<path d="M34.9556 131.787C33.9605 133.859 33.21 135.935 33.2348 138.208C33.2577 140.28 23.3301 136.16 21.5138 135.362C21.0001 135.136 21.0249 134.774 21.2178 134.374C24.795 127.018 24.0272 129.132 34.9556 131.787Z" fill="white"/>
<path d="M23.3091 128.074C18.8247 131.634 20.2934 134.766 18.542 133.828C15.1558 132.016 12.142 129.726 9.49296 126.945C8.06628 125.448 12.3272 123.522 16.3246 123.226C17.3903 123.148 16.019 123.826 23.3091 128.074Z" fill="white"/>
<path d="M68.3691 142.159C57.519 142.06 54.2474 129.019 59.8052 123.278C60.9664 122.079 64.1158 123.278 64.7117 125.043C65.9989 128.859 64.2571 133.931 67.2384 137.344C71.0391 141.697 72.2099 141.934 68.3691 142.159Z" fill="#817F82"/>
<path d="M83.7854 136.116C79.5302 131.139 77.4847 131.114 78.7892 130.133C80.1204 129.132 80.4298 126.964 83.4111 128.549C87.334 130.635 86.1823 132.019 83.7854 136.116Z" fill="#817F82"/>
<path d="M254.674 91.4956C254.233 92.0953 253.949 91.677 253.572 91.507C252.4 90.9761 253.836 90.5922 255.963 84.4309C261.611 91.4555 258.509 86.2835 254.674 91.4956Z" fill="white"/>
<path d="M263.001 110.759C262.302 108.157 260.566 106.689 258.435 105.625C256.766 104.792 258.943 104.034 258.509 100.052C258.288 98.0121 262.117 98.0484 264.138 98.4228C265.788 98.7284 266.132 105.123 263.001 110.759Z" fill="white"/>
<path d="M264.159 96.3659C262.146 96.236 260.284 96.2513 258.559 97.0993C257.526 97.6073 258.263 96.4996 256.156 94.032C254.755 92.3914 259.653 89.4273 260.841 90.705C262.304 92.2807 263.362 94.1867 264.161 96.364L264.159 96.3659Z" fill="white"/>
<path d="M253.964 119.03C254.182 116.213 253.807 113.732 252.635 111.417C251.909 109.989 255.106 109.653 256.447 107.218C257.027 106.163 260.288 108.507 261.877 112.495C262.144 113.165 258.935 116.895 253.964 119.03Z" fill="white"/>
<path d="M252.033 117.361C251.974 120.045 251.97 120.037 249.495 120.692C247.308 121.271 245.127 121.5 242.9 120.889C241.057 120.383 243.691 119.913 242.719 113.45C242.388 111.251 244.378 113.158 249.883 111.677C251.71 111.187 252.155 116.062 252.033 117.361Z" fill="white"/>
<path d="M232.399 128.089C231.84 128.977 232.726 125.543 234.447 122.405C237.35 117.115 235.436 112.304 236.101 111.74C237.323 110.703 238.521 109.641 239.756 108.568C242.451 117.587 239.772 124.651 232.399 128.089Z" fill="#817F82"/>
<path d="M231.851 123.108C231.429 124.151 228.876 124.506 227.388 123.956C226.618 123.672 225.975 123.179 225.312 122.717C224.771 122.34 224.605 121.865 224.79 121.273C226.005 117.386 227.841 112.562 231.725 111.339C234.145 110.577 233.849 112.801 234.034 115.547C234.819 118.5 232.835 120.679 231.851 123.108Z" fill="white"/>
<path d="M222.959 120.121C222.164 123.419 221.204 126.666 219.865 129.795C219.651 130.295 219.447 130.627 218.748 130.446C216.003 129.73 210.906 128.507 211.297 125.702C211.637 121.756 215.598 115.73 219.032 117.709C222.552 119.739 223.307 118.683 222.959 120.121Z" fill="#817F82"/>
<path d="M230.683 126.135C229.846 128.607 229.086 130.891 228.484 133.227C228.108 134.69 224.98 135.899 221.794 133.274C220.499 132.209 221.435 132.537 224.078 124.281C226.013 125.891 228.074 126.716 230.683 126.135Z" fill="white"/>
<path d="M218.767 145.053C213.182 148.676 209.271 141.661 211.58 140.419C214.444 138.878 217.206 137.193 219.343 134.672C220.526 133.278 221.242 137.537 226.559 136.882C227.739 135.895 225.052 140.975 218.767 145.053Z" fill="white"/>
<path d="M212.361 147.428C199.507 149.76 199.807 150.089 199.408 149.027C196.562 141.449 198.828 144.447 207.905 141.836C210.377 141.126 207.349 143.845 212.361 147.428Z" fill="white"/>
<path d="M196.851 150.316C184.154 152.096 184.519 152.533 184.098 151.519C183.184 149.304 183.587 147.26 184.776 145.284C185.191 144.596 185.09 144.984 195.646 143.689C197.086 143.513 196.008 144.617 196.348 144.777C196.207 148.127 198.598 150.07 196.849 150.314L196.851 150.316Z" fill="white"/>
<path d="M181.637 152.765C176.623 153.951 174.092 154.606 169.65 157.299C167.028 158.888 167.167 153.103 168.621 149.737C168.995 148.868 174.335 147.562 182.588 145.27C180.03 149.896 183.373 152.354 181.637 152.765Z" fill="white"/>
<path d="M155.339 165.248C153.034 166.495 152.45 158.687 153.651 156.984C153.97 156.529 153.678 156.751 166.016 150.589C165.628 153.002 165.005 156.418 166.652 158.246C167.547 159.241 167.37 158.743 155.339 165.248Z" fill="white"/>
<path d="M138.139 172.072C136.537 172.698 136.122 172.391 136.118 170.698C136.111 167.434 137.736 164.77 139.646 162.343C140.301 161.51 146.873 160.523 151.218 158.057C151.237 159.222 150.752 163.389 152.066 165.326C153.202 166.999 152.314 166.529 138.139 172.072Z" fill="white"/>
<path d="M134.449 172.284C134.793 173.428 127.757 174.793 116.353 172.062C115.476 171.852 115.236 171.541 115.591 170.733C118.966 163.078 125.299 164.402 127.134 164.283C135.125 163.773 136.067 162.584 136.493 163.281C136.873 163.905 133.011 167.5 134.449 172.284Z" fill="white"/>
<path d="M119.428 163.439C116.487 165.479 114.044 167.622 113.385 171.178C107.837 169.15 102.394 166.986 96.9753 164.583C99.4467 161.682 102.485 160.024 106.257 159.694C108.574 159.491 113.374 162.303 119.428 163.439Z" fill="white"/>
<path d="M104.147 158.155C100.642 158.924 97.7259 160.412 95.5506 163.124C95.1648 163.605 94.8515 163.661 94.2805 163.393C90.2048 161.482 86.5817 158.939 83.3712 155.781C80.7489 153.2 93.7171 150.754 95.4054 152.24C98.0239 154.545 101.141 156.132 104.147 158.156V158.155Z" fill="white"/>
<path d="M92.6742 149.768C88.4668 149.934 84.8876 150.664 81.8528 153.063C80.7795 153.911 75.894 145.773 75.2351 144.573C74.5723 143.366 79.8837 140.795 84.6756 141.815C86.8854 142.285 87.5424 145.339 92.6742 149.768Z" fill="white"/>
<path d="M83.6556 139.487C79.7938 139.877 76.5623 140.862 73.9629 142.444C71.4208 137.081 66.1362 135.283 67.561 131.985C68.3612 130.131 75.4908 128.11 83.6556 139.487Z" fill="white"/>
<path d="M130.104 43.8459C115.652 46.0117 102.115 49.801 93.2528 54.822C92.8345 54.123 92.1433 53.6818 91.1177 53.445C83.7971 51.7605 58.9684 35.4443 22.0942 57.4195C24.4262 45.4579 50.3837 21.1087 82.9529 11.2786C98.1881 13.3317 116.922 24.029 130.104 43.8459Z" fill="#FF70E5"/>
<path d="M86.7059 75.0802C78.3196 75.7315 69.9409 78.3251 58.4396 85.8749C48.0059 92.7238 42.1979 102.976 37.9484 114.445C22.8718 102.77 13.4694 82.7694 19.7739 62.857C22.1307 55.4145 57.2803 39.5682 91.6907 55.7488C82.5901 61.4322 79.5037 69.4862 86.7059 75.0802Z" fill="white"/>
<path d="M124.846 141.504C124.529 142.589 124.147 142.828 123.106 142.787C110.749 142.308 97.594 140.553 85.6171 137.476C87.5747 133.568 89.7195 130.683 85.9991 127.676C79.7213 122.602 77.6318 130.102 75.8251 129.338C73.0405 128.161 70.2253 128.158 67.4311 129.374C67.2459 127.965 67.1275 126.655 66.8868 125.369C65.9758 120.51 59.763 118.719 56.8504 123.471C55.6185 125.48 56.0902 126.544 54.6082 125.747C49.6425 123.079 44.9136 120.046 40.4559 116.584C39.7703 116.051 39.7072 115.581 39.9632 114.785C40.3566 113.559 45.16 101.022 51.8656 94.4558C69.6122 77.0778 84.5132 77.6985 90.239 77.2993C98.7609 81.7073 113.599 84.4117 127.864 85.0974C130.192 100.333 129.245 126.446 124.848 141.508L124.846 141.504Z" fill="#FF70E5"/>
<path d="M183.72 133.784C183.569 134.81 183.701 135.794 182.232 136.183C163.938 141.044 146.013 143.149 128.221 142.896C125.024 142.851 128.08 142.301 130.246 126.494C131.836 114.888 131.899 97.5576 130.167 85.1873C143.427 85.6247 155.166 84.387 168.088 80.1204C171.489 84.3317 178.384 92.844 181.707 108.623C183.459 116.939 184.979 125.238 183.72 133.784Z" fill="white"/>
<path d="M230.386 25.6371C224.131 27.1803 203.549 29.0634 186.562 45.6069C178.705 42.8872 167.736 41.6916 155.849 41.7909C157.463 32.0868 161.863 9.82326 170.116 4.59399C192.809 7.25447 214.525 13.7309 230.386 25.6371Z" fill="#FF70E5"/>
<path d="M248.845 93.5831C245.154 99.3529 240.639 104.393 235.572 108.967C233.843 110.528 232.522 107.292 228.073 110.921C223.935 114.298 224.936 118.553 222.445 116.88C221.664 116.355 220.705 116.085 219.821 115.707C218.058 114.953 216.379 115.029 214.781 116.177C207.968 121.072 210.64 125.476 208.178 126.643C199.377 130.818 192.372 133.02 185.422 135.263C186.062 127.069 186.631 125.238 186.169 121.981C183.913 106.141 180.895 90.2847 169.992 79.4671C182.353 74.3162 184.203 72.498 189.406 69.8413C199.379 70.3379 200.392 69.6522 216.843 74.4785C224.829 76.8219 251.672 89.1674 248.847 93.5812L248.845 93.5831Z" fill="#FF70E5"/>
<path d="M250.482 90.7489C238.207 77.1333 200.174 64.9177 191.186 68.3154C202.75 59.0486 199.738 51.0483 188.818 46.4665C193.459 43.0879 200.394 37.6332 203.377 36.0786C210.304 32.467 225.633 28.1469 231.047 27.7267C232.405 27.6216 233.545 27.8718 234.678 28.8038C255.016 45.5364 263.044 67.7061 250.48 90.747L250.482 90.7489Z" fill="white"/>
<path d="M167.333 4.28472C160.055 11.0896 155.912 29.1763 153.823 41.8178C146.758 41.9591 139.42 42.5512 132.258 43.5386C120.165 24.965 103.377 13.7883 87.2347 10.0583C108.681 4.31528 138.626 1.31676 167.333 4.28472Z" fill="white"/>
<path d="M257.732 83.4263C256.023 81.6539 258.007 81.2414 258.763 73.4051C262.411 35.5991 219.298 8.76333 181.604 3.23803C146.695 -1.88047 100.661 -0.0526954 68.1511 14.0423C57.536 18.6451 58.1471 19.5332 57.1941 18.3567C49.7952 9.22743 31.7831 19.961 35.3164 31.957C35.9886 34.2431 35.1063 35.2458 33.6108 36.6916C19.493 50.3492 13.0777 67.622 16.0055 84.0795C16.418 86.3905 15.0869 84.8148 6.98702 91.7229C-0.539837 98.1363 -2.9864 114.895 4.68561 124.842C13.9295 136.827 28.5019 143.043 43.6607 141.472C55.2422 140.278 56.9897 138.538 58.4069 140.02C65.7924 147.742 71.2642 142.449 72.7005 144.833C76.6176 151.344 81.3828 158.64 88.3787 162.82C97.5175 168.281 115.755 175.855 127.065 175.855C146.751 175.855 170.746 157.593 179.969 155.37C188.871 153.229 213.774 150.085 217.479 148.255C230.436 141.859 229.897 132.507 231.926 131.219C235.469 128.968 239.288 127.102 241.277 123.097C241.389 122.869 241.462 122.785 241.752 122.879C246.03 124.254 252.195 123.184 257.096 120.216C261.019 117.841 266.004 113.232 267.465 104.771C268.911 96.3963 263.643 89.559 257.728 83.4244L257.732 83.4263ZM55.5153 20.2437C52.0756 22.3694 52.1673 22.5107 51.7681 22.0122C50.4026 20.3277 47.5053 20.2838 45.6546 21.2979C41.8253 23.3988 41.5082 24.0749 42.2626 28.5746C42.3715 29.2316 42.3237 29.0291 37.8069 32.677C34.5104 22.3904 48.5996 12.4055 55.5172 20.2456L55.5153 20.2437ZM45.158 24.4225C46.9533 23.1562 48.1833 22.5737 49.7952 23.7197L44.2432 27.5375C43.9013 26.0516 44.1821 25.11 45.158 24.4225ZM184.941 145.383C185.292 144.802 185.284 145.146 195.67 143.878C196.322 143.802 196.278 143.93 196.161 144.306C196.11 144.474 196.035 144.713 196.155 144.864C196.075 147.618 197.592 149.369 197.263 149.929C197.112 150.186 197.271 149.984 188.319 151.399C185.777 151.802 184.429 151.817 184.276 151.445C183.459 149.47 183.678 147.486 184.943 145.381L184.941 145.383ZM153.821 157.07C154.073 156.711 154.043 156.77 165.765 150.925C165.364 153.416 164.877 156.563 166.547 158.418C167.104 159.037 167.673 158.403 155.246 165.08C153.277 166.138 152.631 158.76 153.819 157.07H153.821ZM252.803 111.332C252.188 110.121 255.261 109.764 256.613 107.311C256.651 107.245 256.722 107.157 256.92 107.157H256.966C258.045 107.225 260.507 109.336 261.699 112.565C261.892 113.085 258.993 116.574 254.176 118.729C254.352 115.883 253.914 113.526 252.803 111.33V111.332ZM242.233 109.315C240.818 105.031 245.081 105.379 251.397 94.305C251.947 93.3386 252.285 93.3501 252.996 94.0911C254.863 96.0258 256.401 97.8421 256.281 100.505C255.87 109.576 247.008 110.039 244.096 110.191C242.85 110.256 242.623 110.499 242.231 109.315H242.233ZM254.52 91.3829C254.279 91.7114 254.176 91.6484 253.907 91.4765C253.635 91.3065 253.393 91.2263 253.353 91.1117C253.192 90.6533 254.352 89.5838 256.03 84.8186C261.183 91.1938 258.36 86.1574 254.518 91.3829H254.52ZM258.473 96.9292C257.698 97.3112 258.393 96.362 256.298 93.9097C255.085 92.4849 259.673 89.7347 260.698 90.8367C262.012 92.2481 263.051 93.9918 263.876 96.1576C262.165 96.0583 260.23 96.064 258.473 96.9292ZM258.202 104.049C259.398 100.692 258.168 99.9182 259.033 99.1179C260.03 98.1916 262.749 98.3597 264.104 98.6099C265.576 98.8792 265.857 104.907 263.053 110.262C262.367 108.165 260.95 106.67 258.521 105.453C257.826 105.105 257.914 104.863 258.202 104.049ZM234.615 122.499C237.52 117.21 235.707 112.325 236.225 111.889C237.056 111.186 239.334 109.189 239.657 108.91C242.151 117.59 239.539 124.476 232.461 127.85C232.636 127.004 233.408 124.703 234.615 122.499ZM207.957 142.02C208.812 141.775 208.826 141.899 208.929 142.644C209.061 143.599 209.303 145.339 211.891 147.32C199.714 149.539 199.907 149.82 199.586 148.96C196.841 141.621 198.797 144.657 207.957 142.02ZM151.907 165.435C152.559 166.394 152.786 166.378 146.961 168.529C138.001 171.839 137.153 172.454 136.638 172.1C136.41 171.946 136.309 171.514 136.307 170.699C136.3 167.356 138.066 164.659 139.795 162.463C140.383 161.716 146.68 160.737 151.021 158.386C150.966 160.292 150.704 163.663 151.905 165.437L151.907 165.435ZM95.2753 152.385C97.8021 154.615 100.734 156.134 103.669 158.07C100.077 158.936 97.3686 160.551 95.3995 163.006C95.0748 163.41 94.859 163.456 94.3586 163.219C90.3688 161.35 86.7152 158.802 83.5028 155.643C81.1976 153.376 93.6596 150.96 95.2753 152.383V152.385ZM56.6842 123.37C55.8591 124.714 55.756 125.692 55.4427 125.807C54.8087 126.036 46.048 120.692 40.5705 116.431C39.986 115.978 39.8905 115.621 40.1407 114.84C40.7614 112.89 45.5877 100.867 51.9954 94.5877C68.3364 78.5886 82.141 77.8991 88.776 77.5687C89.2974 77.5419 89.771 77.519 90.1969 77.4885C98.1917 81.6081 112.193 84.5149 127.696 85.277C129.9 99.9182 129.212 125.91 124.663 141.451C124.382 142.419 124.09 142.633 123.112 142.596C110.205 142.085 97.3399 140.272 85.8921 137.348C87.9414 133.293 89.8379 130.537 86.1174 127.526C79.7728 122.401 77.4446 129.816 75.8957 129.159C73.1302 127.986 70.336 127.965 67.5839 129.096C67.4215 127.816 67.3012 126.563 67.0701 125.329C66.1209 120.281 59.6865 118.473 56.6842 123.366V123.37ZM46.4414 133.427C46.7337 132.071 46.6897 132.91 53.9912 131.974C55.034 131.842 55.0531 132.052 55.2938 133.211C56.0978 137.109 57.4519 136.756 51.7528 137.675C45.8532 138.624 46.938 138.947 46.134 136.573C45.9372 135.992 45.9029 135.887 46.4414 133.425V133.427ZM2.92279 104.569C3.1959 102.888 8.19025 103.675 11.1105 106.842C11.4332 107.191 11.3377 107.562 11.0914 108.366C10.7877 109.349 10.337 110.814 10.7762 113.184C6.84378 112.243 4.69707 113.041 3.53204 113.475C2.69933 113.786 2.62866 113.82 2.56946 113.152C2.32117 110.39 2.43195 107.581 2.92279 104.569ZM16.4429 87.7331C16.7809 87.4867 16.8153 87.4982 17.182 88.8408C19.3268 96.6389 20.8012 94.3413 17.9479 96.7726C15.6235 91.7209 11.7178 91.9081 11.3435 91.5987C11.3874 91.3103 13.1292 90.1453 16.4429 87.7331ZM183.529 133.759C183.359 134.892 183.487 135.654 182.181 136.002C164.161 140.782 146.508 142.975 128.223 142.709C125.312 142.669 128.25 142.47 130.434 126.523C132.062 114.647 132.039 97.3952 130.387 85.3878C144.451 85.8309 156.073 84.2743 168.021 80.3438C171.375 84.4939 178.235 93.0598 181.52 108.664C183.292 117.077 184.792 125.327 183.531 133.758L183.529 133.759ZM222.77 120.079C221.849 123.91 220.868 126.974 219.685 129.722C219.475 130.217 219.336 130.404 218.791 130.262C216.163 129.583 211.114 128.372 211.482 125.725C211.761 122.493 214.634 117.512 217.615 117.512C218.982 117.512 219.215 118.433 222.208 119.271C222.68 119.403 222.867 119.672 222.77 120.077V120.079ZM78.9 130.289C79.916 129.523 80.3056 128.184 81.6044 128.184C82.7369 128.184 85.3573 129.621 85.7163 130.9C85.9493 131.727 85.7278 132.44 83.7511 135.793C79.471 130.853 77.8362 131.088 78.9 130.289ZM250.438 90.4241C238.528 77.498 202.739 65.4275 192.03 67.8703C202.202 59.314 200.439 51.2736 189.198 46.4263C193.824 43.0458 200.541 37.7726 203.461 36.2504C210.21 32.7324 225.432 28.3511 231.059 27.9214C232.491 27.8106 233.536 28.12 234.554 28.9566C256.139 46.728 261.922 69.1194 250.436 90.426L250.438 90.4241ZM186.957 45.0034C186.444 45.4236 185.668 45.1944 183.97 44.6902C174.971 42.0259 165.723 41.5408 156.071 41.5981C158.034 29.8695 162.446 9.76221 170.158 4.79077C194.901 7.69953 215.56 14.875 229.943 25.5474C217.915 28.4466 208.299 27.6808 186.959 45.0015L186.957 45.0034ZM153.657 41.6325C146.689 41.7795 139.522 42.3525 132.348 43.3361C121.244 26.3305 105.127 14.2409 88.0139 10.0525C111.464 3.89121 140.855 1.79608 166.9 4.43745C159.927 11.3264 155.857 28.3779 153.657 41.6325ZM129.774 43.7047C114.647 45.9985 101.717 49.8507 93.312 54.57C92.8612 53.9207 92.1546 53.4929 91.1576 53.2618C83.6384 51.5333 59.1288 35.3394 22.3692 57.0357C25.1634 45.1849 50.3185 21.3457 82.9642 11.4773C96.4022 13.3012 115.715 22.7265 129.776 43.7066L129.774 43.7047ZM86.2072 74.933C76.9633 75.7371 68.5942 78.9801 58.3286 85.7182C49.2967 91.6465 42.975 100.417 37.8527 114.137C21.2271 101.144 14.2007 81.0676 19.9475 62.918C22.3253 55.4008 57.3202 40.0052 91.2856 55.7771C83.201 60.945 79.0031 68.9475 86.2053 74.9311L86.2072 74.933ZM8.32967 93.8008C9.1853 92.9605 13.5742 93.7397 15.6178 97.4773C16.8096 99.6584 13.8855 100.023 12.3443 104.785C9.55773 101.723 6.82086 101.631 5.16881 101.578C4.03434 101.54 3.67337 101.542 3.87773 100.785C4.53473 98.3368 5.90603 96.1843 8.32967 93.8008ZM4.11456 115.774C12.0368 113.217 11.6815 117.491 14.7202 121.28C11.9355 121.784 9.55773 122.212 7.71851 124.414C5.5718 121.746 4.28454 119.619 3.42509 117.338C3.09659 116.465 3.22646 116.064 4.11265 115.776L4.11456 115.774ZM16.4734 123.414C17.1151 123.414 16.334 124.206 22.9689 128.102C18.7691 131.571 20.0583 134.43 18.6278 133.664C15.2683 131.867 12.2392 129.563 9.62649 126.817C8.1425 125.259 14.0593 123.414 16.4753 123.414H16.4734ZM21.3837 134.464C24.8636 127.323 23.9373 129.281 34.6766 131.92C33.8362 133.7 33.013 135.824 33.0379 138.213C33.0512 139.923 23.2249 135.916 21.5824 135.19C21.2692 135.052 21.1813 134.877 21.3818 134.462L21.3837 134.464ZM36.8729 132.675C37.3275 131.993 37.2797 132.169 44.4265 132.612C43.9108 134.567 43.4372 136.422 44.2986 138.316C44.585 138.945 44.4074 139.151 35.9256 139.057C34.2201 139.035 35.8244 134.246 36.8729 132.677V132.675ZM13.7155 114.804C11.0131 108.99 16.6472 100.854 20.1175 97.9854C22.5087 96.0048 22.2661 109.158 48.6512 125.234C53.8079 128.375 54.864 128.324 54.7743 129.065C54.4458 129.775 45.9124 130.106 43.7963 129.993C29.2334 129.22 19.1205 126.431 13.7155 114.804ZM59.9367 123.416C60.9833 122.329 63.9723 123.471 64.5242 125.108C65.017 126.573 65.0571 128.204 65.0972 129.93C65.2366 135.761 66.0044 136.347 68.959 139.546C69.8891 140.553 70.6263 141.349 70.527 141.594C70.4239 141.85 69.1825 141.922 68.3574 141.972C57.727 141.871 54.4611 129.065 59.9367 123.416ZM67.729 132.065C67.9582 131.534 68.831 130.929 70.2615 130.774C72.1676 130.57 77.2212 131.003 83.3003 139.336C79.6563 139.739 76.5432 140.694 74.0355 142.176C71.4495 136.941 66.3902 135.165 67.729 132.065ZM84.6277 142.008C86.6541 142.44 87.4639 145.421 92.1832 149.606C83.6499 150.041 82.1831 153.059 81.6101 152.937C80.298 152.671 76.1784 145.918 75.3953 144.491C74.9159 143.618 79.7403 140.969 84.6277 142.008ZM106.269 159.89C108.448 159.7 113.14 162.37 118.945 163.548C116.511 165.267 113.973 167.415 113.236 170.93C107.51 168.833 102.287 166.734 97.2826 164.522C99.7425 161.718 102.684 160.204 106.269 159.892V159.89ZM115.761 170.817C117.953 165.867 121.338 164.344 126.21 164.478C127.875 164.524 131.752 164.167 135.087 163.439C136.613 163.105 136.559 163.164 135.795 164.48C134.896 166.025 133.223 168.898 134.262 172.347C134.262 172.347 134.281 172.412 134.195 172.503C133.393 173.351 126.92 174.408 116.395 171.887C115.6 171.696 115.472 171.484 115.763 170.819L115.761 170.817ZM110.528 158.303C104.023 155.624 94.7673 150.381 87.5957 140.614C90.6362 139.936 142.362 156.288 201.937 132.266C209.567 129.189 209.389 128.498 210.42 129.384C216.505 134.6 221.347 130.207 214.634 135.83C207.831 141.527 198.283 140.583 185.649 142.474C159.413 146.395 157.954 156.84 130.566 161.751C126.632 162.454 119.302 161.919 110.528 158.303ZM211.666 140.593C219.034 136.634 219.196 134.625 219.809 134.588C220.715 134.535 221.905 137.642 226.557 137.081C226.089 138.124 223.452 141.789 218.658 144.898C216.408 146.357 214.637 145.954 213.549 145.362C211.383 144.182 210.365 141.294 211.666 140.593ZM224.17 124.611C226.192 126.223 228.184 126.794 230.388 126.395C229.588 128.767 228.874 130.933 228.293 133.186C227.942 134.556 224.93 135.622 221.91 133.135C220.762 132.19 221.578 132.633 224.17 124.613V124.611ZM225.679 122.751C225.073 122.325 224.746 122.042 224.966 121.336C226.276 117.134 228.11 112.682 231.775 111.526C233.95 110.839 233.624 112.703 233.843 115.6C234.609 118.477 232.665 120.576 231.668 123.041C231.311 123.918 228.944 124.334 227.447 123.782C226.803 123.543 226.257 123.158 225.679 122.751ZM235.44 108.83C233.847 110.264 232.426 107.12 227.949 110.778C223.686 114.252 224.829 118.261 222.548 116.727C221.74 116.185 220.762 115.912 219.892 115.537C217.974 114.718 216.265 114.878 214.666 116.028C207.821 120.946 210.399 125.381 208.092 126.477C199.983 130.324 193.634 132.421 185.63 134.999C186.264 126.997 186.818 125.215 186.352 121.96C184.154 106.448 181.102 90.405 170.334 79.5512C177.63 76.9518 184.152 73.663 189.249 70.0208C189.765 70.9223 193.793 67.9314 216.782 74.6676C223.772 76.7188 251.418 89.2113 248.679 93.4838C245.236 98.8677 240.906 103.887 235.44 108.83ZM242.948 120.711C242.291 120.53 242.342 120.461 242.57 119.758C243.798 115.961 242.56 113.135 242.971 112.669C243.421 112.153 245.629 113.028 249.928 111.868C251.445 111.465 251.98 115.877 251.838 117.355C251.783 119.886 251.783 119.894 249.441 120.514C246.937 121.179 244.873 121.242 242.946 120.713L242.948 120.711ZM168.791 149.818C169.136 149.016 176.297 147.203 182.21 145.576C180.924 148.173 181.455 150.1 181.78 151.275C181.999 152.071 182.145 152.452 181.589 152.583C176.444 153.808 173.982 154.455 169.547 157.14C167.076 158.638 167.576 152.637 168.791 149.818Z" fill="black"/>
</svg>
