<svg width="40" height="40" viewBox="0 0 40 40" fill="none" xmlns="http://www.w3.org/2000/svg">
<g clip-path="url(#clip0_22056_8309)">
<rect width="40" height="40" rx="20" fill="#E2C5ED"/>
<path d="M23.7378 16.6965C22.9577 14.7436 22.9577 13.3492 23.9051 13.3492C24.184 11.5078 24.9641 11.3405 25.4653 11.6194C25.9665 11.8982 25.8557 13.0703 25.8557 13.0703C28.2517 10.7262 29.8119 11.0616 30.09 11.7867C30.3689 12.5118 28.4183 13.5165 28.4183 13.5165C30.2573 13.6839 31.2047 13.9069 31.3163 14.4647C31.4278 15.0225 30.2573 15.1348 29.5888 15.1906C30.8701 15.5253 31.929 16.1388 31.7059 16.7523C31.4836 17.3666 29.3657 16.9197 29.3657 16.9197C30.3131 17.4224 30.5362 18.4822 27.8055 18.2591C25.0756 18.036 24.2956 18.2033 23.7378 16.6965Z" fill="#CC914B"/>
<path d="M25.1861 30.8693C26.8021 32.0971 26.6905 32.7665 26.8021 34.2174H18.7782L11.5901 28.9721C11.8132 27.1307 13.0945 26.1267 15.4347 26.3498C17.775 26.5729 25.1861 30.8693 25.1861 30.8693Z" fill="#244296"/>
<path d="M30.369 34.3846C32.2073 36.226 32.6535 37.3416 33.4893 39.7415C34.3252 42.1407 35.9969 42.8658 36.8885 45.8235C37.7794 48.7804 35.6622 51.9613 29.8112 51.1238C27.5825 50.7892 25.075 50.343 22.9578 48.4458C20.8399 46.5486 24.4622 45.2092 28.8088 44.9861L30.369 34.3846Z" fill="#BA8241"/>
<path d="M30.814 34.4963L31.8172 34.7194C31.873 37.9003 30.9256 42.587 28.8084 44.9862H28.418L30.814 34.4963Z" fill="#FBECCE"/>
<path d="M15.4904 56.0895C6.63064 56.2011 2.39558 55.6433 3.17566 54.0808C3.5056 53.4649 3.80334 52.831 4.06729 52.1836C4.06729 52.1836 3.78919 49.6171 4.62505 48.6131C5.00605 48.1072 5.41535 47.6225 5.85056 47.1622C5.85056 47.1622 4.40194 36.2261 8.24658 26.7402C11.7573 27.1307 12.8155 27.9681 15.2673 29.4183C17.7191 30.8692 20.2825 32.6549 20.2825 32.6549C28.5853 32.2644 29.5327 32.6549 30.814 34.4963C30.8163 38.5954 29.942 42.6474 28.2506 46.3813C28.6277 48.61 28.7589 50.8748 28.641 53.1326C28.5853 54.8066 26.6905 55.8664 15.4904 56.0895Z" fill="#355FD4"/>
<path d="M20.2827 32.6549C20.2827 32.6549 18.1098 31.0924 15.2683 29.4183C12.4261 27.745 11.7576 27.1307 8.24679 26.7402C7.32217 29.0412 6.64971 31.4357 6.24121 33.882L9.30576 41.8053C11.7018 44.0929 17.8309 45.8227 17.8309 45.8227L29.0875 44.261C30.1999 41.1242 30.7835 37.824 30.8142 34.4963C29.5329 32.6549 28.5855 32.2644 20.2827 32.6549Z" fill="#446DE0"/>
<path d="M22.2891 32.599L22.1218 32.8222C22.1218 32.8222 21.9545 40.5782 24.7409 38.8483C27.5274 37.1185 26.8023 34.2173 26.58 32.5432C25.521 32.4875 24.1282 32.5432 22.2891 32.599Z" fill="#244296"/>
<path d="M15.7695 29.3074C14.5597 28.675 13.313 28.1156 12.0357 27.6333C11.2964 29.0552 11.1149 30.7026 11.5274 32.2509C11.9398 33.8001 12.9163 35.1387 14.2651 36.0029C18.1098 38.6251 20.5058 38.8483 20.5058 38.8483L15.7695 29.3074Z" fill="#244296"/>
<path d="M12.9276 28.3028C12.6495 30.7577 13.9308 32.5991 15.7698 34.5521C17.6089 36.505 17.887 36.8955 16.9396 42.8659C15.9929 48.8363 11.0894 54.8067 11.0894 54.8067L25.9109 53.9135C26.3736 48.6863 25.9211 43.4182 24.5738 38.3465C24.1842 36.8397 24.4065 36.9513 25.0751 35.8915C25.4584 35.3149 25.7067 34.6597 25.8033 33.9739C25.8999 33.2881 25.841 32.5897 25.6328 31.9298C25.6328 31.9298 29.3659 27.0749 29.7563 21.7188C29.8427 20.2089 29.4154 18.714 28.5457 17.4783C27.6753 16.2418 26.4129 15.3376 24.9643 14.9118C23.1684 14.4035 21.2469 14.614 19.6035 15.4994C17.9608 16.384 16.7259 17.8742 16.1595 19.6543C14.9898 23.1698 14.2097 26.5172 14.2097 26.5172C13.8279 26.6287 13.494 26.8652 13.2615 27.1888C13.0297 27.5125 12.9119 27.9045 12.9276 28.3028Z" fill="#BA8241"/>
<path d="M24.5735 38.3463C24.48 38.076 24.4234 37.7948 24.4061 37.5096V43.0888C21.8986 43.5398 19.3289 43.5209 16.8284 43.0331C15.8252 48.9477 11.0332 54.8066 11.0332 54.8066L15.1567 54.5835L26.0221 50.3987C26.0983 46.3333 25.6104 42.2773 24.5735 38.3463Z" fill="#AD6937"/>
<path d="M8.78308 42.3247C9.64408 42.2901 10.2019 38.7668 10.029 34.4563C9.8562 30.1458 9.01798 26.6791 8.15698 26.7136C7.29598 26.7482 6.73822 30.2707 6.91105 34.582C7.08388 38.8925 7.92209 42.3592 8.78308 42.3247Z" fill="#FBECCE"/>
<path d="M8.40869 41.3419C8.96253 41.334 9.36631 38.0802 9.31054 34.0745C9.25476 30.0688 8.76063 26.8275 8.2068 26.8353C7.65296 26.8432 7.24918 30.0971 7.30495 34.1027C7.36073 38.1084 7.85486 41.349 8.40869 41.3419Z" fill="#BA8241"/>
<path d="M8.47001 26.8517C7.18872 25.4007 4.73693 22.7227 4.73693 16.1945C4.73693 12.8463 5.96242 8.10378 7.07716 6.09505C7.11252 6.01885 7.12981 5.93558 7.12902 5.85231C7.12745 5.76825 7.1078 5.68576 7.07009 5.61034C7.03238 5.53492 6.97897 5.46973 6.9122 5.41867C6.84621 5.36682 6.76922 5.33147 6.68674 5.31419C5.62856 5.25841 4.17915 6.03927 2.61899 8.66154C2.59307 6.83349 2.46267 5.00781 2.22935 3.1939C2.17358 2.57958 1.72736 2.57957 1.44926 2.80346C0.111416 3.91898 -0.946757 7.43448 -1.5603 12.9579C-2.00729 11.6562 -2.58548 10.404 -3.287 9.22009C-3.51011 8.82887 -3.78898 8.77309 -4.06708 9.22009C-5.18182 10.9491 -5.9619 14.5762 -5.4607 20.1004C-6.40811 19.8215 -7.29897 19.7657 -7.07665 22.388C-6.93681 23.8366 -6.41832 25.2224 -5.57225 26.4055C-6.63043 26.2381 -6.90932 27.2421 -6.35234 28.8604C-5.79458 30.4787 -2.61847 36.2818 9.08276 39.5734L8.47001 26.8517Z" fill="#BA8241"/>
<path d="M8.46994 41.2477C5.07073 40.9688 2.56316 40.0198 2.78626 37.2302H8.41416L8.46994 41.2477Z" fill="#BA8241"/>
<path d="M14.8777 23.9506C14.701 24.5476 14.6703 25.1777 14.7866 25.7896C14.9029 26.4008 15.1629 26.9759 15.5462 27.4661C16.9391 29.0836 19.2235 29.0836 21.3973 28.3585C23.5702 27.6334 25.8546 24.8988 26.3009 21.9976C26.7463 19.0965 23.7375 18.3149 19.614 20.212C19.057 20.4351 19.0012 20.3794 19.0012 19.8216C18.9455 16.585 17.7749 16.7523 16.9391 18.036C16.6021 18.5348 16.3397 19.08 16.159 19.6543C15.6578 21.2168 15.2116 22.7227 14.8777 23.9506Z" fill="#E6CD9F"/>
<path d="M20.5058 21.9418C21.1257 21.6237 21.8162 21.4697 22.5122 21.4956C22.8822 21.5011 23.2452 21.5969 23.5704 21.7745C23.8524 21.9724 24.0975 22.2176 24.2947 22.4996C24.4063 22.6111 24.3505 22.7227 24.2389 22.8342C24.1282 22.9466 24.0724 22.8342 23.9608 22.7785C23.7943 22.5554 23.5743 22.377 23.3214 22.26C23.0684 22.1429 22.7903 22.0911 22.5122 22.1091C21.9301 22.1319 21.3676 22.326 20.8963 22.6669C20.7996 22.7188 20.6873 22.7305 20.5828 22.6991C20.4783 22.6677 20.3904 22.5962 20.3385 22.4996C20.2867 22.4037 20.2757 22.2906 20.3071 22.1862C20.3385 22.0817 20.41 21.9937 20.5058 21.9418Z" fill="#3C2439"/>
<path d="M16.996 20.9928C17.051 20.6047 17.051 20.2096 16.996 19.8216C16.9497 19.6629 16.8515 19.5253 16.7171 19.4303C16.6394 19.4122 16.5584 19.4131 16.4807 19.4327C16.4029 19.4515 16.3314 19.4892 16.2709 19.5426H16.0486C16.0486 19.4303 16.0486 19.3745 16.1044 19.3188C16.212 19.2324 16.3393 19.1719 16.4744 19.1428C16.6095 19.1137 16.7501 19.1169 16.8845 19.1514C17.1625 19.2072 17.3299 19.4869 17.4414 19.71C17.5695 20.164 17.6441 20.6323 17.6645 21.1044C17.6512 21.1837 17.6103 21.2552 17.549 21.3063C17.487 21.3573 17.41 21.3848 17.3299 21.3833C17.289 21.3919 17.2466 21.3911 17.2065 21.3809C17.1657 21.3707 17.128 21.351 17.0958 21.3243C17.0636 21.2976 17.0384 21.2638 17.0203 21.2261C17.0031 21.1876 16.9944 21.1468 16.996 21.1044V20.9928Z" fill="#3C2439"/>
<path d="M17.6086 23.7267C17.0611 23.6961 16.519 23.6026 15.9927 23.4478C15.658 23.3362 15.4907 23.2247 16.9401 22.8343C18.3887 22.4438 18.556 22.9458 18.1098 23.5036C18.0635 23.5916 17.9881 23.6615 17.8977 23.7015C17.8066 23.7424 17.7052 23.7511 17.6086 23.7267Z" fill="#5F354C"/>
<path d="M24.1837 22.8343C24.4673 22.8304 24.7414 22.733 24.9638 22.5554C25.1303 22.4439 25.1303 22.4439 24.5176 22.4997L24.0164 22.6112L24.1837 22.8343Z" fill="#3C2439"/>
<path d="M22.9609 25.469C23.7056 25.2758 24.1974 24.6843 24.0583 24.1469C23.92 23.6104 23.2036 23.3307 22.4589 23.524C21.7141 23.7172 21.2224 24.3087 21.3614 24.8453C21.4997 25.3826 22.2161 25.6615 22.9609 25.469Z" fill="#D9AC9D"/>
<path d="M15.7695 20.8254C15.5464 21.5513 15.3241 22.2764 15.1567 22.9458H15.2683C15.6022 22.9458 15.881 22.3322 15.881 21.5513C15.8708 21.3054 15.8339 21.0627 15.7695 20.8254Z" fill="#D9AC9D"/>
<path d="M24.6851 33.9935C23.7376 33.6588 23.1249 33.1568 23.1807 34.1616C23.2365 35.1655 22.5679 35.1098 21.7878 34.3847C21.0077 33.6588 20.8404 33.2684 20.2834 33.9377C19.7257 34.6078 19.1687 34.552 18.2771 33.4357C18.0665 33.7413 17.8018 34.0061 17.497 34.2174C17.0516 34.552 16.5496 33.5473 16.3823 32.8779C16.2157 32.2086 16.1599 31.9855 14.5998 32.5433L14.1536 32.6548C14.643 33.3273 15.1835 33.962 15.7695 34.552C15.8716 34.7398 16.0028 34.9094 16.1599 35.054C17.028 35.281 17.9463 35.2229 18.7783 34.8867C19.5584 36.058 20.0603 35.7233 21.1185 34.7193C22.7345 36.5607 23.5703 35.9464 23.5145 34.2731C24.1336 34.6463 24.8123 34.911 25.5209 35.054C25.9011 34.0531 25.9404 32.9549 25.6325 31.929C25.8556 33.9935 25.5767 34.3289 24.6851 33.9935Z" fill="#AD6937"/>
<path d="M14.1535 32.6547C13.0945 32.9336 12.4818 32.9893 13.4292 31.3153C14.3766 29.6412 14.1535 32.6547 14.1535 32.6547Z" fill="#BA8241"/>
<path d="M21.2858 39.685H21.3974C22.1217 40.634 22.6229 40.2436 22.9576 39.1272C23.2914 38.0117 23.2365 39.1272 22.9576 39.9089C22.6787 40.6898 22.3448 41.4149 21.4532 40.7455C20.6173 41.638 19.7257 41.8052 19.2237 40.2993C18.7225 38.7925 19.2237 40.0762 19.7257 40.4666C20.2269 40.8571 21.0627 40.7455 21.2858 39.685Z" fill="#AD6937"/>
<path d="M2.61875 8.66154C0.0561804 12.0655 0.724714 18.3148 0.724714 18.3148C-1.72708 16.1945 -3.1757 17.4781 -2.50717 20.4351C-1.83864 23.3928 1.72712 26.7401 1.72712 26.7401C-1.89441 26.1266 -2.00596 30.0325 2.78609 31.4269C7.57813 32.8221 8.52553 33.101 7.74545 33.2683C6.96537 33.4356 3.17652 32.7106 0.222733 31.8181C-2.73027 30.9249 -4.40199 27.019 0.445836 26.2939C-3.95578 21.5514 -4.23465 18.4263 -2.89759 16.9196C-1.55975 15.4136 0.278509 16.9196 0.278509 16.9196C-0.557349 13.6838 -0.222701 9.49896 2.61875 8.15955V8.66154Z" fill="#AD6937"/>
<path d="M22.4562 31.6508C23.2921 32.8778 24.6292 33.4364 24.5176 31.7623C24.4061 30.0883 24.2387 31.3153 23.9606 31.8739C23.6817 32.4316 21.8985 30.7576 22.4562 31.6508Z" fill="#AD6937"/>
</g>
<defs>
<clipPath id="clip0_22056_8309">
<rect width="40" height="40" rx="20" fill="white"/>
</clipPath>
</defs>
</svg>
