<svg width="40" height="40" viewBox="0 0 40 40" fill="none" xmlns="http://www.w3.org/2000/svg">
<g clip-path="url(#clip0_22056_9343)">
<rect width="40" height="40" rx="20" fill="#E2C5ED"/>
<path d="M23.7375 16.6965C22.9575 14.7436 22.9575 13.3492 23.9049 13.3492C24.1838 11.5078 24.9638 11.3405 25.465 11.6194C25.9662 11.8982 25.8555 13.0703 25.8555 13.0703C28.2515 10.7262 29.8117 11.0616 30.0898 11.7867C30.3686 12.5118 28.418 13.5165 28.418 13.5165C30.2571 13.6839 31.2045 13.9069 31.316 14.4647C31.4276 15.0225 30.2571 15.1348 29.5886 15.1906C30.8698 15.5253 31.9288 16.1388 31.7057 16.7523C31.4834 17.3666 29.3654 16.9197 29.3654 16.9197C30.3129 17.4224 30.536 18.4822 27.8053 18.2591C25.0754 18.036 24.2953 18.2033 23.7375 16.6965Z" fill="#CC914B"/>
<path d="M25.1859 30.8693C26.8018 32.0971 26.6903 32.7665 26.8018 34.2174H18.7779L11.5898 28.9721C11.8129 27.1307 13.0942 26.1267 15.4345 26.3498C17.7747 26.5729 25.1859 30.8693 25.1859 30.8693Z" fill="#244296"/>
<path d="M30.3687 34.3846C32.207 36.226 32.6532 37.3416 33.4891 39.7415C34.3249 42.1407 35.9966 42.8658 36.8883 45.8235C37.7791 48.7804 35.662 51.9613 29.811 51.1238C27.5823 50.7892 25.0747 50.343 22.9576 48.4458C20.8397 46.5486 24.462 45.2092 28.8086 44.9861L30.3687 34.3846Z" fill="#BA8241"/>
<path d="M30.814 34.4963L31.8172 34.7194C31.873 37.9003 30.9256 42.587 28.8084 44.9862H28.418L30.814 34.4963Z" fill="#FBECCE"/>
<path d="M15.4904 56.0895C6.63064 56.2011 2.39558 55.6433 3.17566 54.0808C3.5056 53.4649 3.80334 52.831 4.06729 52.1836C4.06729 52.1836 3.78919 49.6171 4.62505 48.6131C5.00605 48.1072 5.41535 47.6225 5.85056 47.1622C5.85056 47.1622 4.40194 36.2261 8.24658 26.7402C11.7573 27.1307 12.8155 27.9681 15.2673 29.4183C17.7191 30.8692 20.2825 32.6549 20.2825 32.6549C28.5853 32.2644 29.5327 32.6549 30.814 34.4963C30.8163 38.5954 29.942 42.6474 28.2506 46.3813C28.6277 48.61 28.7589 50.8748 28.641 53.1326C28.5853 54.8066 26.6905 55.8664 15.4904 56.0895Z" fill="#355FD4"/>
<path d="M20.2822 32.6549C20.2822 32.6549 18.1093 31.0924 15.2678 29.4183C12.4256 27.745 11.7571 27.1307 8.24631 26.7402C7.32168 29.0412 6.64922 31.4357 6.24072 33.882L9.30528 41.8053C11.7013 44.0929 17.8304 45.8227 17.8304 45.8227L29.087 44.261C30.1994 41.1242 30.7831 37.824 30.8137 34.4963C29.5324 32.6549 28.585 32.2644 20.2822 32.6549Z" fill="#446DE0"/>
<path d="M22.2889 32.599L22.1216 32.8222C22.1216 32.8222 21.9542 40.5782 24.7407 38.8483C27.5271 37.1185 26.802 34.2173 26.5797 32.5432C25.5208 32.4875 24.1279 32.5432 22.2889 32.599Z" fill="#244296"/>
<path d="M15.769 29.3074C14.5592 28.675 13.3125 28.1156 12.0352 27.6333C11.2959 29.0552 11.1145 30.7026 11.5269 32.2509C11.9393 33.8001 12.9158 35.1387 14.2646 36.0029C18.1093 38.6251 20.5053 38.8483 20.5053 38.8483L15.769 29.3074Z" fill="#244296"/>
<path d="M12.9271 28.3028C12.649 30.7577 13.9303 32.5991 15.7694 34.5521C17.6084 36.505 17.8865 36.8955 16.9391 42.8659C15.9925 48.8363 11.0889 54.8067 11.0889 54.8067L25.9104 53.9135C26.3731 48.6863 25.9206 43.4182 24.5734 38.3465C24.1837 36.8397 24.406 36.9513 25.0746 35.8915C25.4579 35.3149 25.7062 34.6597 25.8028 33.9739C25.8994 33.2881 25.8405 32.5897 25.6323 31.9298C25.6323 31.9298 29.3654 27.0749 29.7558 21.7188C29.8423 20.2089 29.4149 18.714 28.5453 17.4783C27.6748 16.2418 26.4124 15.3376 24.9638 14.9118C23.168 14.4035 21.2464 14.614 19.603 15.4994C17.9603 16.384 16.7254 17.8742 16.159 19.6543C14.9893 23.1698 14.2092 26.5172 14.2092 26.5172C13.8274 26.6287 13.4935 26.8652 13.261 27.1888C13.0293 27.5125 12.9114 27.9045 12.9271 28.3028Z" fill="#BA8241"/>
<path d="M24.573 38.3463C24.4795 38.076 24.4229 37.7948 24.4057 37.5096V43.0888C21.8981 43.5398 19.3284 43.5209 16.8279 43.0331C15.8248 48.9477 11.0327 54.8066 11.0327 54.8066L15.1562 54.5835L26.0216 50.3987C26.0978 46.3333 25.61 42.2773 24.573 38.3463Z" fill="#AD6937"/>
<path d="M8.78284 42.3247C9.64384 42.2901 10.2016 38.7668 10.0288 34.4563C9.85596 30.1458 9.01773 26.6791 8.15673 26.7136C7.29574 26.7482 6.73798 30.2707 6.9108 34.582C7.08363 38.8925 7.92184 42.3592 8.78284 42.3247Z" fill="#FBECCE"/>
<path d="M8.40869 41.3419C8.96253 41.334 9.36631 38.0802 9.31054 34.0745C9.25476 30.0688 8.76063 26.8275 8.2068 26.8353C7.65296 26.8432 7.24918 30.0971 7.30495 34.1027C7.36073 38.1084 7.85486 41.349 8.40869 41.3419Z" fill="#BA8241"/>
<path d="M8.46976 26.8517C7.18848 25.4007 4.73668 22.7227 4.73668 16.1945C4.73668 12.8463 5.96218 8.10378 7.07692 6.09505C7.11227 6.01885 7.12956 5.93558 7.12878 5.85231C7.1272 5.76825 7.10756 5.68576 7.06985 5.61034C7.03214 5.53492 6.97873 5.46973 6.91195 5.41867C6.84597 5.36682 6.76898 5.33147 6.68649 5.31419C5.62831 5.25841 4.17891 6.03927 2.61875 8.66154C2.59282 6.83349 2.46242 5.00781 2.22911 3.1939C2.17333 2.57958 1.72711 2.57957 1.44902 2.80346C0.111172 3.91898 -0.947001 7.43448 -1.56054 12.9579C-2.00754 11.6562 -2.58572 10.404 -3.28725 9.22009C-3.51035 8.82887 -3.78923 8.77309 -4.06732 9.22009C-5.18206 10.9491 -5.96215 14.5762 -5.46095 20.1004C-6.40836 19.8215 -7.29921 19.7657 -7.07689 22.388C-6.93706 23.8366 -6.41857 25.2224 -5.5725 26.4055C-6.63068 26.2381 -6.90957 27.2421 -6.35259 28.8604C-5.79483 30.4787 -2.61871 36.2818 9.08252 39.5734L8.46976 26.8517Z" fill="#BA8241"/>
<path d="M8.46945 41.2477C5.07024 40.9688 2.56267 40.0198 2.78577 37.2302H8.41368L8.46945 41.2477Z" fill="#BA8241"/>
<path d="M14.8775 23.9506C14.7007 24.5476 14.6701 25.1777 14.7863 25.7896C14.9026 26.4008 15.1626 26.9759 15.546 27.4661C16.9388 29.0836 19.2233 29.0836 21.397 28.3585C23.5699 27.6334 25.8544 24.8988 26.3006 21.9976C26.746 19.0965 23.7372 18.3149 19.6137 20.212C19.0568 20.4351 19.001 20.3794 19.001 19.8216C18.9452 16.585 17.7747 16.7523 16.9388 18.036C16.6018 18.5348 16.3394 19.08 16.1588 19.6543C15.6576 21.2168 15.2113 22.7227 14.8775 23.9506Z" fill="#E6CD9F"/>
<path d="M20.5054 21.9418C21.1252 21.6237 21.8157 21.4697 22.5117 21.4956C22.8817 21.5011 23.2447 21.5969 23.5699 21.7745C23.8519 21.9724 24.097 22.2176 24.2942 22.4996C24.4058 22.6111 24.35 22.7227 24.2384 22.8342C24.1277 22.9466 24.0719 22.8342 23.9603 22.7785C23.7938 22.5554 23.5738 22.377 23.3209 22.26C23.0679 22.1429 22.7898 22.0911 22.5117 22.1091C21.9296 22.1319 21.3671 22.326 20.8958 22.6669C20.7992 22.7188 20.6868 22.7305 20.5823 22.6991C20.4779 22.6677 20.3899 22.5962 20.338 22.4996C20.2862 22.4037 20.2752 22.2906 20.3066 22.1862C20.338 22.0817 20.4095 21.9937 20.5054 21.9418Z" fill="#3C2439"/>
<path d="M16.9958 20.9928C17.0507 20.6047 17.0507 20.2096 16.9958 19.8216C16.9494 19.6629 16.8512 19.5253 16.7169 19.4303C16.6391 19.4122 16.5582 19.4131 16.4804 19.4327C16.4026 19.4515 16.3312 19.4892 16.2707 19.5426H16.0483C16.0483 19.4303 16.0483 19.3745 16.1041 19.3188C16.2117 19.2324 16.339 19.1719 16.4741 19.1428C16.6093 19.1137 16.7499 19.1169 16.8842 19.1514C17.1623 19.2072 17.3296 19.4869 17.4412 19.71C17.5692 20.164 17.6439 20.6323 17.6643 21.1044C17.6509 21.1837 17.6101 21.2552 17.5488 21.3063C17.4867 21.3573 17.4098 21.3848 17.3296 21.3833C17.2888 21.3919 17.2464 21.3911 17.2063 21.3809C17.1654 21.3707 17.1277 21.351 17.0955 21.3243C17.0633 21.2976 17.0382 21.2638 17.0201 21.2261C17.0028 21.1876 16.9942 21.1468 16.9958 21.1044V20.9928Z" fill="#3C2439"/>
<path d="M17.6086 23.7267C17.0611 23.6961 16.519 23.6026 15.9927 23.4478C15.658 23.3362 15.4907 23.2247 16.9401 22.8343C18.3887 22.4438 18.556 22.9458 18.1098 23.5036C18.0635 23.5916 17.9881 23.6615 17.8977 23.7015C17.8066 23.7424 17.7052 23.7511 17.6086 23.7267Z" fill="#5F354C"/>
<path d="M24.1834 22.8343C24.467 22.8304 24.7412 22.733 24.9635 22.5554C25.1301 22.4439 25.1301 22.4439 24.5173 22.4997L24.0161 22.6112L24.1834 22.8343Z" fill="#3C2439"/>
<path d="M22.9604 25.469C23.7051 25.2758 24.1969 24.6843 24.0578 24.1469C23.9196 23.6104 23.2031 23.3307 22.4584 23.524C21.7137 23.7172 21.2219 24.3087 21.3609 24.8453C21.4992 25.3826 22.2156 25.6615 22.9604 25.469Z" fill="#D9AC9D"/>
<path d="M15.7695 20.8254C15.5464 21.5513 15.3241 22.2764 15.1567 22.9458H15.2683C15.6022 22.9458 15.881 22.3322 15.881 21.5513C15.8708 21.3054 15.8339 21.0627 15.7695 20.8254Z" fill="#D9AC9D"/>
<path d="M24.6848 33.9935C23.7374 33.6588 23.1247 33.1568 23.1804 34.1616C23.2362 35.1655 22.5677 35.1098 21.7876 34.3847C21.0075 33.6588 20.8402 33.2684 20.2832 33.9377C19.7254 34.6078 19.1685 34.552 18.2768 33.4357C18.0663 33.7413 17.8016 34.0061 17.4968 34.2174C17.0513 34.552 16.5493 33.5473 16.382 32.8779C16.2155 32.2086 16.1597 31.9855 14.5995 32.5433L14.1533 32.6548C14.6427 33.3273 15.1832 33.962 15.7693 34.552C15.8714 34.7398 16.0026 34.9094 16.1597 35.054C17.0278 35.281 17.9461 35.2229 18.778 34.8867C19.5581 36.058 20.0601 35.7233 21.1183 34.7193C22.7342 36.5607 23.5701 35.9464 23.5143 34.2731C24.1333 34.6463 24.8121 34.911 25.5207 35.054C25.9009 34.0531 25.9402 32.9549 25.6322 31.929C25.8553 33.9935 25.5764 34.3289 24.6848 33.9935Z" fill="#AD6937"/>
<path d="M14.153 32.6547C13.094 32.9336 12.4813 32.9893 13.4287 31.3153C14.3761 29.6412 14.153 32.6547 14.153 32.6547Z" fill="#BA8241"/>
<path d="M21.2854 39.685H21.3969C22.1212 40.634 22.6224 40.2436 22.9571 39.1272C23.291 38.0117 23.236 39.1272 22.9571 39.9089C22.6782 40.6898 22.3443 41.4149 21.4527 40.7455C20.6168 41.638 19.7252 41.8052 19.2232 40.2993C18.722 38.7925 19.2232 40.0762 19.7252 40.4666C20.2264 40.8571 21.0623 40.7455 21.2854 39.685Z" fill="#AD6937"/>
<path d="M2.6185 8.66154C0.0559363 12.0655 0.724469 18.3148 0.724469 18.3148C-1.72733 16.1945 -3.17594 17.4781 -2.50741 20.4351C-1.83888 23.3928 1.72687 26.7401 1.72687 26.7401C-1.89466 26.1266 -2.0062 30.0325 2.78584 31.4269C7.57789 32.8221 8.52529 33.101 7.7452 33.2683C6.96512 33.4356 3.17627 32.7106 0.222489 31.8181C-2.73051 30.9249 -4.40223 27.019 0.445591 26.2939C-3.95602 21.5514 -4.2349 18.4263 -2.89784 16.9196C-1.55999 15.4136 0.278265 16.9196 0.278265 16.9196C-0.557594 13.6838 -0.222945 9.49896 2.6185 8.15955V8.66154Z" fill="#AD6937"/>
<path d="M22.456 31.6508C23.2919 32.8778 24.6289 33.4364 24.5174 31.7623C24.4058 30.0883 24.2385 31.3153 23.9604 31.8739C23.6815 32.4316 21.8982 30.7576 22.456 31.6508Z" fill="#AD6937"/>
</g>
<defs>
<clipPath id="clip0_22056_9343">
<rect width="40" height="40" rx="20" fill="white"/>
</clipPath>
</defs>
</svg>
