<svg width="19" height="15" viewBox="0 0 19 15" fill="none" xmlns="http://www.w3.org/2000/svg">
<path d="M7.36645 6.34917C7.54598 4.69139 6.30837 4.99887 5.83472 5.99392C5.0192 7.709 5.72966 10.7801 7.10096 11.5307C9.05859 12.6021 11.5071 11.8955 12.7733 9.85381C14.3662 7.28501 14.6374 5.59666 16.3601 6.23457C18.7093 7.10356 16.702 8.82056 17.6779 12.7664C17.8594 13.4998 17.6416 13.708 16.9006 13.7652C-0.320846 15.0716 0.603539 14.3726 0.691394 13.1464C1.44198 2.5695 12.0915 -1.66662 18.3693 2.17798C19.8724 3.09855 18.2547 3.98472 18.2394 4.93203C14.92 3.64858 13.8887 4.03247 12.166 7.10739C11.1404 8.93515 10.3745 10.7152 8.39205 10.0563C6.86796 9.54823 7.19456 7.9191 7.36645 6.34917Z" fill="#FFF1CE"/>
</svg>
