<svg width="19" height="20" viewBox="0 0 19 20" fill="none" xmlns="http://www.w3.org/2000/svg">
<path d="M18.9665 10.2208C12.7937 10.0833 12.7212 11.1872 12.5894 10.2762C12.11 6.99695 7.15194 8.20018 7.21306 6.34186C7.29709 3.78835 10.4217 5.16155 10.1142 3.50759C9.97093 2.73409 9.3082 2.86395 8.78107 2.88496C5.16566 3.02629 3.81919 8.31286 7.71154 9.19523C9.90218 9.6918 12.2341 10.6162 10.2536 11.6781C7.11946 13.3588 4.96894 15.8779 3.54799 19.5984C2.60069 16.2561 1.90548 13.2442 0.860769 10.3545C-1.03575 5.10998 8.25776 -2.62124 15.6643 2.5641C17.3679 3.75778 17.1865 4.1665 18.9665 10.2208Z" fill="#FFF1CE"/>
</svg>
