<svg width="12" height="16" viewBox="0 0 12 16" fill="none" xmlns="http://www.w3.org/2000/svg">
<path d="M11.4578 8.30921C10.4074 12.9025 7.94172 9.83329 4.01882 15.9927C3.14218 12.1252 2.0249 11.1798 4.65099 10.8226C5.89815 10.6526 6.24383 9.1572 5.64222 7.83174C5.19912 6.85388 3.8412 5.4864 4.46573 4.94208C5.774 3.80379 7.04981 6.35156 7.72209 5.01655C9.09148 2.29688 -0.251684 1.75066 3.21476 7.17855C4.00354 8.41425 5.10937 9.46086 2.86716 9.54681C2.35722 9.56591 2.3343 9.21067 2.25982 8.85925C0.833131 2.15746 0.581017 2.1842 1.45383 1.63225C8.6923 -2.93429 12.1416 5.32214 11.4597 8.30538L11.4578 8.30921Z" fill="#FFF1CE"/>
</svg>
