<svg width="20" height="20" viewBox="0 0 20 20" fill="none" xmlns="http://www.w3.org/2000/svg">
<path d="M12.5 5.83341L7.49998 14.1667M18.3334 10.0001C18.3334 14.6025 14.6025 18.3334 10.0001 18.3334C5.39771 18.3334 1.66675 14.6025 1.66675 10.0001C1.66675 5.39771 5.39771 1.66675 10.0001 1.66675C14.6025 1.66675 18.3334 5.39771 18.3334 10.0001ZM8.33331 7.91675C8.33331 8.6071 7.77367 9.16675 7.08331 9.16675C6.39296 9.16675 5.83331 8.6071 5.83331 7.91675C5.83331 7.22639 6.39296 6.66675 7.08331 6.66675C7.77367 6.66675 8.33331 7.22639 8.33331 7.91675ZM14.1666 12.0834C14.1666 12.7738 13.607 13.3334 12.9166 13.3334C12.2263 13.3334 11.6666 12.7738 11.6666 12.0834C11.6666 11.3931 12.2263 10.8334 12.9166 10.8334C13.607 10.8334 14.1666 11.3931 14.1666 12.0834Z" stroke="#656565" stroke-width="1.5" stroke-linecap="round" stroke-linejoin="round"/>
</svg>
