<svg width="17" height="18" viewBox="0 0 17 18" fill="none" xmlns="http://www.w3.org/2000/svg">
<path d="M16.0629 15.9678C11.9185 14.3616 8.2668 15.0319 4.77553 16.8368C3.40996 17.5434 3.95618 17.2894 1.07416 10.1235C0.0256353 7.51462 3.79766 1.14133 9.82335 0.650488C12.4514 0.436581 12.2852 0.505337 13.3872 4.60204C12.7627 5.03177 9.34015 3.3396 8.77291 7.4554C8.44059 9.87905 8.93144 11.1071 7.35196 11.3669C5.82023 11.619 5.62543 9.96882 5.37906 8.97568C5.16133 8.09904 4.05741 7.8985 3.86834 9.17239C3.18651 13.7313 10.0888 15.0816 10.3734 9.86759C10.4727 8.04747 10.4097 6.32285 11.7199 6.42217C14.5656 6.6399 13.985 6.94355 16.0649 15.9697L16.0629 15.9678Z" fill="#FFF1CE"/>
</svg>
