<svg width="122" height="144" viewBox="0 0 122 144" fill="none" xmlns="http://www.w3.org/2000/svg">
<path d="M119.904 109.1C117.463 96.1601 111.724 69.9049 107.322 57.7446C102.092 43.3059 95.3429 38.6515 92.0999 36.4131C91.1125 35.7313 90.3982 35.2385 90.3677 34.8585C90.3562 34.7152 90.4441 34.5548 90.6389 34.3695C92.5335 32.5571 92.2336 30.9566 91.3455 26.2067C90.2034 20.0721 89.2332 13.8555 86.229 7.01807C79.5806 -8.1216 15.9834 7.79348 1.89796 25.7273C-0.12652 28.3076 -0.0195718 28.7889 7.53021 51.4955C10.4428 60.2619 11.287 56.3103 9.65209 62.1718C7.96375 68.2223 5.86287 75.7511 11.9115 100.398C12.9963 104.818 21.9155 134.721 22.9105 135.322C40.1377 145.741 72.9476 145.022 91.6015 139.91C108.569 135.261 114.213 128.794 118.332 124.073C122.03 119.839 122.226 121.424 119.902 109.103L119.904 109.1ZM8.32854 33.5006C8.47369 33.3554 9.28539 33.7125 9.52794 33.6839C14.2874 33.1988 14.2702 36.9804 15.7026 41.8678C13.9971 41.8678 12.5608 41.4839 10.9508 41.3311C10.4829 41.2872 10.5707 41.2337 8.37629 34.1365C8.22159 33.64 8.30944 33.5197 8.32854 33.5006ZM21.564 34.1747C23.0423 34.0678 22.2611 34.4708 24.4919 41.0083C24.8834 42.1504 24.0832 41.8181 20.8727 41.8792C17.2305 41.948 18.0518 41.9422 15.884 35.1354C15.5384 34.0468 15.4982 34.6026 21.564 34.1747ZM24.8319 34.0716C25.0458 33.7737 25.6818 34.0296 28.3212 33.5273C30.3075 33.1491 30.5883 33.3191 31.3885 36.6786C31.6501 37.7711 31.9194 38.9036 32.3721 39.7993C33.2907 41.6157 31.8698 41.2585 27.5592 41.5679C26.843 41.6825 26.5641 41.4858 26.4018 40.7619C25.4354 36.3367 24.5053 34.53 24.8319 34.0716ZM32.5631 33.1014C32.7522 32.7843 33.9248 32.6392 38.7568 31.6556C39.9391 31.4149 39.1312 31.6193 41.8833 38.6821C42.1755 39.4288 42.1946 39.4116 38.8848 40.0553C36.7897 40.4621 35.6533 40.7142 35.3973 40.7314C34.2419 40.8059 34.8244 40.739 32.6414 33.6724C32.5535 33.384 32.5039 33.2007 32.5631 33.1014ZM75.9862 25.4924C72.3651 16.5771 72.7108 20.0511 76.6318 16.6974C77.665 15.8112 77.2735 16.5446 79.8461 21.5962C80.4153 22.7097 79.8423 22.7995 75.9862 25.4924ZM64.6262 23.3973C64.737 23.0688 69.8479 20.7731 70.948 20.1753C71.0606 20.1142 71.1848 20.0473 71.2669 20.0473L71.3032 20.053C71.3624 20.0721 71.4159 20.1581 71.4483 20.2249C72.6248 22.6371 73.4499 24.6062 74.1184 26.5753C74.1661 26.9439 73.4041 27.0891 67.9361 30.248C67.6935 30.3893 67.5159 30.4352 67.3994 30.3874C67.1206 30.2767 66.9219 29.6025 66.6431 28.6704C65.4016 24.5012 64.5594 23.5863 64.6281 23.3953L64.6262 23.3973ZM65.352 31.3099C65.3367 31.5276 65.1534 31.5276 64.8612 31.6499C60.8714 33.3745 59.3378 34.2263 58.9978 34.064C58.7724 33.9589 58.3695 31.4341 56.6525 27.7117C56.1578 26.6402 56.1788 26.6994 56.7289 26.4913C64.0399 23.7238 61.918 22.4347 65.352 31.3099ZM49.5763 29.018C49.7731 28.6246 51.2016 28.3248 54.2594 27.3908C57.6189 36.2966 58.3618 34.53 52.1451 36.6881C49.4961 29.0658 49.4617 29.2511 49.5763 29.018ZM47.0858 29.74C48.3655 30.0857 48.142 32.07 48.9862 33.9551C49.4484 34.9884 50.4931 36.3463 50.0557 37.0434C49.626 37.7329 47.9911 37.8226 46.8643 38.1358C43.7703 39.0029 44.0644 38.8444 42.8459 35.4334C42.3818 34.1232 41.9005 32.7691 41.6026 31.1246C42.0285 30.7159 45.9819 29.4401 47.0858 29.74ZM85.3428 17.6351C82.4569 20.4809 82.1857 20.9507 81.9413 20.9049C81.5249 20.8285 81.0245 18.7104 79.1414 15.2879C78.6505 14.3902 81.7102 12.9311 84.3668 8.57653C85.4287 10.9238 86.059 13.2309 86.7924 15.5419C86.9471 16.0346 86.8153 16.1855 85.3428 17.6351ZM82.8064 6.93403C82.5448 10.4902 74.8556 16.4472 64.1068 21.4205C56.3412 25.013 40.216 31.1858 19.4784 32.156C15.3206 32.3489 9.90228 32.2629 4.88692 29.8603C3.27498 29.0906 2.3525 28.4623 3.48506 27.1425C14.2836 14.6137 39.4921 7.6808 58.7361 4.0692C65.3062 2.83542 72.3059 2.98057 80.1383 4.51039C81.9986 4.87327 82.8943 5.68879 82.8045 6.93212L82.8064 6.93403ZM6.29832 34.6656C6.63255 36.7722 7.50538 38.7585 8.19866 40.8765C5.5401 40.6454 5.74636 39.1767 3.48697 31.7645C5.26316 32.198 6.03476 33.0078 6.29832 34.6656ZM50.1245 39.4995C91.8326 27.2552 85.9157 9.18197 88.5055 23.6226C88.9601 26.1838 51.2475 51.9615 10.3549 47.7865C7.76321 47.521 8.00004 46.4649 7.02218 42.9106C20.3264 45.3075 34.0337 44.2207 50.1245 39.4995ZM77.5581 138.974C77.5753 140.108 77.5905 140.227 77.1341 140.231C76.4064 140.227 76.4064 140.232 76.3453 138.342C76.0989 130.366 80.2739 125.65 86.0513 123.788C92.6691 121.659 100.494 123.748 105.202 130.987C105.605 131.605 105.79 131.873 105.066 132.253C104.367 132.618 104.132 132.612 103.689 131.877C95.6905 118.622 77.3365 123.494 77.5581 138.974ZM68.9999 134.014C67.726 136.3 67.1091 137.425 65.4532 136.875C64.2003 136.457 64.3455 135.204 64.5136 133.754L64.5575 133.372C64.7504 131.602 63.2836 131.615 62.6629 132.914C61.8111 134.715 62.554 137.904 64.0113 138.701C66.072 139.829 68.6179 139.081 69.9376 136.957C71.5572 134.335 71.7539 132.847 73.2952 133.416C75.4553 134.218 73.5168 135.857 74.4946 139.814C74.6398 140.406 74.5328 140.528 73.8873 140.576C56.6887 141.905 57.806 141.147 57.8843 140.16C58.6177 129.885 68.9808 125.482 75.2719 129.34C76.4943 130.087 75.3216 130.719 75.0848 131.668C71.8494 130.456 70.7321 130.903 68.9999 134.014ZM15.674 99.0135C16.1973 98.9428 16.6079 98.662 16.8619 98.2037C18.0709 96.0092 14.8852 93.704 15.588 93.089C16.7798 92.0577 18.0976 94.6742 18.8902 93.1062C20.4487 90.0083 9.93666 89.3093 14.3982 95.8049C15.2118 96.9794 15.3493 97.3041 13.8557 97.3595C13.4413 97.3786 13.5807 97.3958 12.7098 93.471C12.2184 91.2683 12.1655 90.0446 12.5513 89.8002C15.0914 88.2035 17.4253 88.0641 19.3008 89.3953C21.6863 91.0893 22.6508 94.5978 22.2688 96.2709C21.2814 100.601 18.8864 97.8561 15.0991 103.521C14.232 99.9531 13.3878 99.3305 15.6721 99.0173L15.674 99.0135ZM87.8619 33.8176C68.0984 48.3537 36.7056 56.4937 13.8691 56.3886C11.1743 56.3772 11.455 56.3714 9.36751 50.2044C41.1709 51.484 67.2504 43.6478 89.0823 26.2544C89.8138 30.3913 90.8509 31.6212 87.8638 33.8157L87.8619 33.8176ZM11.6708 63.5774C12.8817 59.3337 12.4157 58.6098 13.999 58.6327C33.6937 58.9612 67.7718 51.2548 86.271 37.7558C88.1484 36.3864 88.389 36.2107 89.6266 37.0625C102.155 45.6971 106.924 62.5957 107.44 66.0049C102.236 66.0679 102.795 66.9369 102.123 65.875C97.5355 58.7397 89.1301 57.5231 83.3278 61.8433C77.898 65.8788 76.7406 58.1801 73.2952 63.587C69.9376 68.8583 67.3325 74.4772 65.2298 79.2786C64.8535 80.1419 65.182 79.7255 60.7625 81.4005C58.4955 82.2619 55.9267 83.2378 55.6154 82.789C52.4927 78.2988 48.0847 76.4272 42.1507 77.0765C45.0003 72.5635 44.8799 72.2407 40.978 68.6119C37.3836 65.2715 35.2999 63.6481 30.8633 66.1825C16.0655 74.6261 17.6965 82.3287 14.4879 82.7909C13.2618 82.9685 12.2113 83.6389 11.1437 84.2711C9.8087 75.9287 9.97295 69.5363 11.6727 63.5793L11.6708 63.5774ZM109.476 75.4588C106.166 75.1895 105.618 76.8168 105.435 80.1113C105.36 81.4559 105.33 82.0117 104.317 82.1797C103.051 82.3898 102.855 81.1656 102.56 79.9299C102.283 78.8412 100.891 78.6751 100.675 80.1457C99.9477 84.9586 107.278 86.3777 107.559 80.8791C107.687 78.3848 107.805 78.0601 108.124 77.7755C108.269 77.6476 108.456 77.5941 108.699 77.6132C111.331 77.8175 110.786 77.8787 112.794 86.666C109.115 85.3368 105.576 85.6595 101.67 87.6764C100.526 88.2646 101.034 87.9934 98.2479 81.0529C97.207 78.4669 101.113 71.7785 107.935 71.7785C109.161 71.7785 109.268 72.149 110.154 75.4817C109.992 75.5028 109.721 75.4818 109.476 75.4588ZM52.4011 140.326C52.4125 140.57 52.3743 140.739 52.296 140.798C52.105 140.941 46.4785 141.273 44.7653 138.011C44.3509 137.222 44.328 136.474 44.7023 136.056C47.7581 132.656 47.2024 129.497 48.0656 129.168C50.9877 128.044 54.8171 127.988 55.434 128.771C55.9554 129.434 52.0382 132.177 52.4011 140.326ZM91.2061 103.998L93.8418 102.627L94.0519 105.224L91.2061 103.998ZM28.092 90.778C27.8781 90.0599 27.7903 90.1172 30.0554 88.7669C32.6032 87.2543 32.29 87.3689 32.2594 87.5522C32.204 87.9266 32.1525 88.2799 32.2575 88.6084C32.8629 90.5393 30.7754 89.5022 30.0879 90.5488C29.5053 91.4369 30.3667 93.1597 31.1536 96.3683C31.5356 97.9248 30.8385 97.0291 29.1749 97.1742C28.4702 97.2392 28.4969 97.1666 28.6039 96.2938C28.728 95.2758 28.9247 93.576 28.092 90.778ZM42.3551 82.7202C46.0526 81.3986 49.7635 83.9235 49.7979 84.823C49.0702 85.3177 40.4356 87.5809 37.6033 88.2073C38.0177 85.5106 39.5743 83.7153 42.3551 82.7202ZM51.4175 83.2531C49.4025 80.1724 43.9937 79.1755 40.2886 81.2057C34.0184 84.6358 36.845 89.0324 34.4157 89.1336C33.3079 80.8428 46.5282 74.3301 53.4343 83.7592C52.6016 84.2749 52.126 84.336 51.4175 83.2531ZM35.8423 81.1178C34.8416 82.1167 34.0184 82.3707 33.0616 81.1216C31.2414 78.7515 31.5871 78.6694 34.1387 76.7958C37.4467 79.8267 37.3416 79.6205 35.8423 81.1178ZM40.4605 73.379C38.4092 71.4271 38.0769 71.8453 39.2133 69.8953C42.2023 72.6188 42.2519 72.4775 42.0342 73.0295C41.8031 73.6082 41.6026 74.1085 41.4536 74.141C41.2951 74.1735 40.873 73.7686 40.4605 73.379ZM40.046 75.9287C39.8054 76.6124 38.7893 77.8729 38.329 78.2282C37.2003 77.1625 36.9711 76.5608 36.211 76.0853C35.342 75.5486 35.4355 75.2048 36.0563 74.395C36.8756 73.3274 37.3894 73.0447 38.2163 74.1086C38.5162 74.4943 40.1778 75.5581 40.046 75.9287ZM29.7345 80.8294C30.0898 80.6022 30.1528 80.5716 30.34 80.8256C31.356 82.1969 32.2422 83.2684 32.7311 83.9999C29.3927 86.8513 30.0115 86.7558 28.8865 85.1343C27.7024 83.4307 27.8743 82.0078 29.7345 80.8294ZM18.4624 81.2C21.4055 76.1884 25.6149 72.0191 31.3331 68.4534C33.2774 67.2406 36.4077 66.5511 36.9921 68.7933C36.3179 71.9618 28.793 79.0494 24.0087 82.3077C22.3968 83.4059 21.0541 83.1137 19.3524 82.745C17.9486 82.4414 17.7672 82.3784 18.4624 81.2ZM96.5901 69.647C95.9388 70.1245 95.9121 70.1837 95.0354 71.6009C94.8807 71.8491 94.7356 72.086 94.6496 72.1777C94.3307 71.6868 93.5515 68.8583 92.5812 68.4973C91.4754 68.0886 89.7011 69.5783 83.091 72.2311C83.6812 66.0565 90.805 62.9968 95.5893 67.1757C95.7383 67.3055 95.9025 67.4354 96.0668 67.5653C97.6825 68.843 97.3254 69.1046 96.5882 69.6451L96.5901 69.647ZM84.3153 65.5733C80.7552 68.2204 81.3396 72.6628 81.1448 73.0887C79.4584 74.3492 80.0486 73.0543 79.8729 72.3686C80.1269 61.7019 93.4483 57.9662 99.432 65.919C100.005 66.6791 100.742 67.0152 99.5389 67.5806C99.0959 67.7887 98.9488 67.7181 98.6375 67.3495C94.4777 62.4353 89.3879 61.8012 84.3153 65.5733ZM67.8463 78.7591C68.8967 75.8771 68.9426 75.5085 71.6069 77.1262L67.8463 78.7591ZM75.398 71.8453C77.3499 72.5157 78.1253 72.6016 78.0661 74.29C78.0623 74.3645 78.0604 74.4409 78.0375 74.481C77.73 75.0291 74.0515 75.9936 73.4633 75.6804C72.7986 75.3271 72.1531 74.7484 71.4025 74.6261C69.9758 74.3893 70.1496 73.9061 70.7455 72.7754C72.0461 70.306 71.7749 70.6077 75.398 71.8453ZM72.8349 68.7723C75.7666 63.8735 75.5011 63.6806 76.8896 64.3395C79.5539 65.6038 79.7544 65.1474 78.7021 67.3896C78.2227 68.419 78.1864 69.5401 77.8484 70.6287L72.8349 68.7723ZM26.5297 85.14C28.1207 87.2753 28.0863 87.4338 27.584 87.6936C26.4705 88.2665 27.2555 88.0641 24.1997 84.9834C25.3781 83.828 25.5481 83.8222 26.5297 85.14ZM39.5705 90.0752C69.888 82.2733 90.4937 70.6918 91.5174 71.1158C92.056 71.3373 92.7359 73.1173 94.5542 77.8748C95.8471 81.2573 97.8009 86.3643 100.782 93.7517C103.273 99.9245 40.6056 122.232 39.2286 117.151C37.248 109.94 34.8568 102.795 33.136 95.5336C32.2861 91.9488 32.8362 91.8075 39.5705 90.0752ZM71.817 120.782C71.7062 121.831 71.2937 121.926 70.6118 121.926C70.1019 121.926 69.6435 121.947 69.464 121.756C69.1718 121.439 69.3513 118.485 70.1573 115.721C70.7818 113.569 71.7348 111.968 74.3476 111.162C87.7626 107.012 86.7102 105.142 88.8913 105.736C91.7905 106.527 94.4109 107.944 96.9052 110.068C97.9518 110.96 96.7562 111.304 96.5041 112.159C87.6614 104.451 73.024 109.388 71.817 120.782ZM95.9904 101.603C96.2463 100.845 97.1134 100.685 97.8067 100.175C97.8869 102.849 97.9079 105.242 99.558 107.365C99.9133 107.822 99.283 107.914 99.0118 108.345C98.4637 109.226 94.9285 104.741 95.9904 101.603ZM52.3514 119.004C51.6753 117.014 54.6032 118.274 68.8757 113.015C67.3383 116.8 67.4204 119.142 67.4701 120.561C67.5694 123.359 66.8704 121.221 62.3611 123.527C61.5571 123.937 61.2591 124.063 60.881 123.75C59.0398 122.228 56.7155 121.449 53.971 121.437C52.1623 121.433 52.7162 120.077 52.3514 119.004ZM47.8517 127.014C47.6741 124.268 47.7524 124.256 50.283 123.851C53.4572 123.345 56.0126 123.664 58.3179 124.85C59.0895 125.249 59.1983 125.301 58.484 125.939C56.0184 128.129 53.9977 124.117 47.8517 127.014ZM45.8979 119.241C46.1175 118.861 48.8754 118.782 49.7081 118.557C50.0404 118.467 50.0424 118.609 50.1531 119.054C50.7013 121.311 50.6898 121.197 48.524 122.037C47.2444 122.534 46.9388 122.14 46.4479 120.977C46.2646 120.541 45.7699 119.464 45.8979 119.241ZM73.8204 120.881C74.657 112.302 87.1954 106.77 94.938 114.119C96.508 115.614 94.6 115.475 95.7574 121.283C91.5289 120.503 89.7279 120.782 88.9486 120.902C88.7863 120.927 88.624 120.962 88.5915 120.952C87.6633 118.821 82.858 119.096 83.154 116.951C83.5895 113.764 87.2221 115.152 86.9872 113.332C86.8 111.894 85.4975 112.528 84.9436 112.574C82.6002 112.759 80.3713 115.547 81.0054 117.808C81.6357 120.047 83.8244 120.836 85.1308 121.307C85.3523 121.388 85.591 121.474 85.7687 121.552C80.3064 123.301 80.442 125.249 79.1414 124.453C74.4774 121.601 73.5664 123.475 73.8204 120.881ZM41.3486 119.932C42.5613 119.535 43.2852 119.837 43.9632 120.988C49.498 130.419 40.025 139.898 35.3362 138.317C44.349 135.089 46.2207 126.882 41.3486 119.932ZM78.0737 126.428C77.5753 127.587 77.0118 127.568 75.8239 126.98C67.3459 122.77 55.7166 129.077 55.877 140.324C55.8847 140.889 55.7968 141.059 55.2411 141.023C54.6509 140.981 54.4427 140.909 54.4122 140.269C53.8373 127.358 67.5598 120.16 78.0737 126.428ZM106.199 108.106C99.0768 111.382 99.3995 118.549 99.5389 121.611C99.5638 122.159 99.5886 122.723 99.5619 122.931C92.8238 119.55 101.775 101.557 115.162 104.705C116.927 105.121 117.127 105.226 117.343 107.635C113.527 106.261 109.879 106.416 106.201 108.108L106.199 108.106ZM111.741 100.645C111.185 98.3947 107.07 98.261 107.253 96.7827C107.347 96.0092 108.773 95.144 109.885 95.1937C110.166 95.2032 110.595 95.3828 110.887 95.144C111.296 94.8079 111.254 93.5913 110.047 93.3315C108.785 93.0622 106.443 93.9064 105.643 95.8469C104.105 99.5711 108.647 99.9818 109.85 101.479C110.232 101.955 110.257 102.115 110.238 102.169C110.049 102.696 106.411 102.19 101.223 106.187C99.8216 104.359 99.749 102.291 99.8808 100.326C100.15 96.4198 103.334 97.6861 103.571 94.128C103.681 92.4473 110.622 90.0007 114.434 94.764C114.745 95.1498 114.692 95.0581 116.338 102.589C112.939 102.104 112.182 102.442 111.741 100.645ZM102.652 92.1398C101.571 89.9931 101.716 89.4889 104.033 88.8452C107.085 87.9972 109.829 87.3708 112.501 89.1451C113.38 89.7238 113.773 90.4113 113.842 91.5267C110.127 89.0458 106.365 89.252 102.652 92.1398ZM96.762 77.1147C95.4957 74.7942 95.7115 73.7266 97.7035 71.6964C100.297 69.0588 103.513 67.9606 107.194 68.335C108.133 68.4305 108.496 68.7761 108.515 69.6318C103.202 69.4599 99.3461 71.9141 96.762 77.1147ZM26.4419 94.9607C26.6749 94.9702 26.7169 94.9569 26.4419 94.9951C26.354 97.1513 26.3502 97.2373 24.3028 97.6689C25.3513 89.5939 19.3352 83.3237 11.7702 87.9075C9.88892 83.3333 26.9499 82.1759 26.4419 94.9607ZM31.3981 99.8653C32.1028 99.978 32.0226 100.117 32.9164 103.267C26.885 99.9149 19.8261 102.583 16.52 108.286C14.6675 104.239 22.2153 98.4023 31.3981 99.8653ZM32.5497 105.717C34.1865 106.861 33.9993 107.199 35.7067 113.022C29.7613 112.917 29.8682 113.867 29.7746 113.246C29.2876 109.894 24.3525 110.92 24.4021 109.346C24.4824 106.991 27.6451 108.357 27.3013 106.47C27.1123 105.471 26.1153 105.675 25.7715 105.69C21.9231 105.864 20.5671 111.447 24.6676 112.377C26.906 112.885 27.7578 113.458 27.8075 113.825C27.9316 114.728 23.3842 115.2 20.5766 121.999C19.721 118.93 19.0334 116.036 18.0365 113.286C16.1877 108.166 25.3628 100.679 32.5497 105.717ZM36.6808 116.668C36.6808 116.76 36.6617 116.789 36.6617 116.789C36.3313 116.945 24.5034 114.547 22.4579 127.106C19.7248 117.23 36.7457 111.827 36.6808 116.668ZM33.7319 118.79C44.6641 118.825 45.3841 135.473 31.9901 136.718C30.0439 136.902 28.3957 135.523 26.6825 134.606C21.7512 131.966 24.723 118.763 33.73 118.792L33.7319 118.79ZM112.213 109.014C116.224 109.302 117.719 109.411 118.512 113.171C119.623 118.448 119.914 118.716 117.475 121.844C114.83 125.236 111.693 128.112 108.153 130.389C106.903 131.193 107.587 128.51 102.53 124.663C100.322 122.982 100.248 109.189 112.213 109.014ZM88.5838 132.692C88.6679 131.754 89.5999 130.67 90.891 130.715C93.1523 130.798 92.713 128.907 91.0724 128.592C89.8234 128.353 87.6327 128.895 86.716 131.384C85.0047 136.029 89.6209 136.405 91.1049 137.57C87.3424 138.643 83.5933 139.32 80.4076 139.841C78.0375 140.229 79.997 129.021 88.0433 126.838C93.1103 125.458 99.1131 128.11 101.693 132.906C102.301 134.029 102.226 133.947 94.2008 136.735C93.6431 136.928 93.6068 136.879 93.37 136.548C91.6206 134.119 88.3948 134.812 88.5838 132.692Z" fill="black"/>
</svg>
