<svg width="20" height="20" viewBox="0 0 20 20" fill="none" xmlns="http://www.w3.org/2000/svg">
<path d="M6.66675 8.33342H6.25008V8.33342C5.70831 8.33342 5.43742 8.33342 5.2096 8.35962C3.36256 8.57211 1.90544 10.0292 1.69296 11.8763C1.66675 12.1041 1.66675 12.375 1.66675 12.9167V13.3334C1.66675 14.2627 1.66675 14.7274 1.74361 15.1138C2.05923 16.7005 3.29962 17.9409 4.88639 18.2566C5.27278 18.3334 5.73744 18.3334 6.66675 18.3334L13.3334 18.3334C14.2627 18.3334 14.7274 18.3334 15.1138 18.2566C16.7005 17.9409 17.9409 16.7005 18.2566 15.1138C18.3334 14.7274 18.3334 14.2627 18.3334 13.3334V12.9167C18.3334 12.375 18.3334 12.1041 18.3072 11.8763C18.0947 10.0292 16.6376 8.57211 14.7906 8.35962C14.5627 8.33342 14.2919 8.33342 13.7501 8.33342V8.33342H13.3334M10.0001 12.5001V1.66675M10.0001 1.66675L6.66675 5.00008M10.0001 1.66675L13.3334 5.00008" stroke="#FF70E5" stroke-width="1.5" stroke-linecap="round" stroke-linejoin="round"/>
</svg>
