<svg width="18" height="16" viewBox="0 0 18 16" fill="none" xmlns="http://www.w3.org/2000/svg">
<path d="M17.5866 11.8218C13.9712 11.2813 13.0487 11.6843 12.5579 9.69423C12.025 7.53606 7.85954 7.45202 8.0658 5.76368C8.17658 4.85649 9.73887 3.96075 10.8963 4.00659C11.2954 4.02187 11.899 4.32172 11.9219 3.58069C11.983 1.64215 7.88436 2.3488 6.82247 4.92333C5.34803 8.49482 9.73505 8.78321 11.0013 10.3627C12.7966 12.5972 8.84695 10.2481 2.19291 15.4583C0.668821 13.5827 0.546582 11.4571 0.693643 9.31798C0.974396 5.2251 4.15244 6.61549 4.38354 3.12231C4.50577 1.26399 11.6468 -1.24943 15.5678 3.63224C15.946 4.10207 15.8448 3.89199 17.5847 11.8257L17.5866 11.8218Z" fill="#FFF1CE"/>
</svg>
