<svg width="98" height="49" viewBox="0 0 98 49" fill="none" xmlns="http://www.w3.org/2000/svg">
<path d="M97.6597 30.1921C91.7162 30.2361 92.8678 31.3572 91.7639 29.6631C87.6672 23.3757 79.4662 21.5136 73.4424 25.9923C67.8426 30.1558 66.8074 22.4285 63.4575 27.6864C60.289 32.6597 57.7641 37.9615 55.4054 43.3512C55.2278 43.758 55.0769 44.0445 54.6548 44.184C50.3652 45.6011 46.0279 47.7153 45.4587 46.896C42.1604 42.1442 37.5022 40.5857 31.7763 41.3115C34.7882 36.5597 34.7806 36.405 30.8481 32.7514C27.3912 29.539 25.3476 27.843 20.9568 30.3487C6.09409 38.8325 7.9333 46.4854 4.51461 46.98C3.26363 47.1615 2.18646 47.8796 0.998516 48.5786C-0.166514 41.4394 -0.491201 34.4607 1.48744 27.5259C2.67348 23.37 2.23421 22.4151 4.00085 22.4418C18.4033 22.6729 44.3052 18.0052 62.621 9.3973C78.4196 1.97357 76.9967 -0.981028 79.7336 0.90403C92.6138 9.76781 97.316 27.2719 97.6559 30.1921H97.6597Z" fill="#D9E9FF"/>
</svg>
