<svg width="20" height="20" viewBox="0 0 20 20" fill="none" xmlns="http://www.w3.org/2000/svg">
<path d="M9.99992 3.33345C9.41911 3.33345 8.84426 3.11534 8.48856 2.6562L8.28998 2.39986C7.67746 1.60923 6.57507 1.3926 5.70892 1.89267L5.12427 2.23022C4.25812 2.73029 3.89453 3.7933 4.27298 4.71908L4.3956 5.01901C4.6155 5.55693 4.51798 6.16109 4.22675 6.66398V6.66398C3.93577 7.16643 3.45857 7.55878 2.88328 7.63723L2.56302 7.6809C1.57205 7.81603 0.833251 8.66242 0.83325 9.66256L0.83325 10.3377C0.83325 11.3378 1.57205 12.1842 2.56302 12.3193L2.8833 12.363C3.45859 12.4414 3.93577 12.8338 4.22674 13.3362V13.3362C4.51796 13.8391 4.61548 14.4432 4.39558 14.9812L4.27297 15.2811C3.89451 16.2069 4.2581 17.2699 5.12425 17.7699L5.7089 18.1075C6.57505 18.6076 7.67744 18.3909 8.28996 17.6003L8.48847 17.3441C8.84419 16.8849 9.41907 16.6668 9.99992 16.6668V16.6668V16.6668C10.5808 16.6668 11.1558 16.8849 11.5115 17.3441L11.7099 17.6002C12.3224 18.3908 13.4248 18.6074 14.2909 18.1073L14.8756 17.7698C15.7417 17.2697 16.1053 16.2067 15.7269 15.2809L15.6043 14.9811C15.3844 14.4432 15.4819 13.8391 15.7731 13.3362V13.3362C16.0641 12.8338 16.5412 12.4415 17.1165 12.363L17.4368 12.3193C18.4278 12.1842 19.1666 11.3378 19.1666 10.3377L19.1666 9.66257C19.1666 8.66242 18.4278 7.81604 17.4368 7.6809L17.1165 7.63723C16.5412 7.55878 16.0641 7.16644 15.7731 6.66401V6.66401C15.4819 6.16113 15.3844 5.557 15.6043 5.0191L15.7269 4.71922C16.1053 3.79345 15.7417 2.73044 14.8756 2.23037L14.2909 1.89281C13.4248 1.39274 12.3224 1.60937 11.7099 2.40001L11.5114 2.65613C11.1557 3.11532 10.5808 3.33345 9.99992 3.33345V3.33345V3.33345Z" stroke="#656565" stroke-width="1.5" stroke-linecap="round" stroke-linejoin="round"/>
<path d="M12.4999 10.0001C12.4999 11.3808 11.3806 12.5001 9.99992 12.5001C8.61921 12.5001 7.49992 11.3808 7.49992 10.0001C7.49992 8.61937 8.61921 7.50008 9.99992 7.50008C11.3806 7.50008 12.4999 8.61937 12.4999 10.0001Z" stroke="#656565" stroke-width="1.5" stroke-linecap="round" stroke-linejoin="round"/>
</svg>
