<svg width="9" height="15" viewBox="0 0 9 15" fill="none" xmlns="http://www.w3.org/2000/svg">
<path d="M7.51818 7.17691C6.17935 5.92785 3.05669 5.24029 3.30115 4.11556C3.8894 1.39588 8.03576 3.85581 8.22675 1.86762C8.37954 0.251857 5.46315 0.257588 3.92951 0.752248C0.732359 1.77786 -0.16529 5.38162 3.2706 7.28577C4.99522 8.24263 7.40168 8.90726 6.56133 10.6682C5.63503 12.6124 3.96579 12.6182 2.22206 11.3424C1.50776 10.8191 1.11625 10.6911 0.642593 11.1495C-0.524347 12.2668 1.99289 14.4517 4.11286 14.4517C5.8986 14.4517 7.98993 13.3707 8.62592 11.3767C9.09957 9.89276 8.66411 8.24454 7.51818 7.17691Z" fill="black"/>
</svg>
