<svg width="22" height="22" viewBox="0 0 22 22" fill="none" xmlns="http://www.w3.org/2000/svg">
<path d="M6 1.5V1.5C6 2.89782 6 3.59674 5.77164 4.14805C5.46716 4.88313 4.88313 5.46716 4.14805 5.77164C3.59674 6 2.89782 6 1.5 6V6M16 1.5V1.5C16 2.89782 16 3.59674 16.2284 4.14805C16.5328 4.88313 17.1169 5.46716 17.8519 5.77164C18.4033 6 19.1022 6 20.5 6V6M16 16.5V16.5C16 15.1022 16 14.4033 16.2284 13.8519C16.5328 13.1169 17.1169 12.5328 17.8519 12.2284C18.4033 12 19.1022 12 20.5 12V12M6 16.5V16.5C6 15.1022 6 14.4033 5.77164 13.8519C5.46716 13.1169 4.88313 12.5328 4.14805 12.2284C3.59674 12 2.89782 12 1.5 12V12M4 21H18M13 9.00049C13 10.1051 12.1046 11.0005 11 11.0005C9.89543 11.0005 9 10.1051 9 9.00049C9 7.89592 9.89543 7.00049 11 7.00049C12.1046 7.00049 13 7.89592 13 9.00049ZM21 10.6V7.4C21 5.15979 21 4.03968 20.564 3.18404C20.1805 2.43139 19.5686 1.81947 18.816 1.43597C17.9603 1 16.8402 1 14.6 1L7.4 1C5.15979 1 4.03968 1 3.18404 1.43597C2.43139 1.81947 1.81947 2.43139 1.43597 3.18404C1 4.03968 1 5.15979 1 7.4V10.6C1 12.8402 1 13.9603 1.43597 14.816C1.81947 15.5686 2.43139 16.1805 3.18404 16.564C4.03968 17 5.15979 17 7.4 17H14.6C16.8402 17 17.9603 17 18.816 16.564C19.5686 16.1805 20.1805 15.5686 20.564 14.816C21 13.9603 21 12.8402 21 10.6Z" stroke="#FF70E5" stroke-width="1.5" stroke-linecap="round" stroke-linejoin="round"/>
</svg>
