<svg width="20" height="20" viewBox="0 0 20 20" fill="none" xmlns="http://www.w3.org/2000/svg">
<path d="M6.6665 8.33342H6.24984V8.33342C5.70806 8.33342 5.43718 8.33342 5.20936 8.35962C3.36232 8.57211 1.9052 10.0292 1.69271 11.8763C1.6665 12.1041 1.6665 12.375 1.6665 12.9167V13.3334C1.6665 14.2627 1.6665 14.7274 1.74336 15.1138C2.05899 16.7005 3.29938 17.9409 4.88614 18.2566C5.27254 18.3334 5.73719 18.3334 6.6665 18.3334L13.3332 18.3334C14.2625 18.3334 14.7271 18.3334 15.1135 18.2566C16.7003 17.9409 17.9407 16.7005 18.2563 15.1138C18.3332 14.7274 18.3332 14.2627 18.3332 13.3334V12.9167C18.3332 12.375 18.3332 12.1041 18.307 11.8763C18.0945 10.0292 16.6374 8.57211 14.7903 8.35962C14.5625 8.33342 14.2916 8.33342 13.7498 8.33342V8.33342H13.3332M9.99984 12.5001V1.66675M9.99984 1.66675L6.6665 5.00008M9.99984 1.66675L13.3332 5.00008" stroke="white" stroke-width="1.5" stroke-linecap="round" stroke-linejoin="round"/>
</svg>
