<svg width="20" height="20" viewBox="0 0 20 20" fill="none" xmlns="http://www.w3.org/2000/svg">
<path d="M12.4997 5.83341L7.49974 14.1667M18.3332 10.0001C18.3332 14.6025 14.6022 18.3334 9.99984 18.3334C5.39746 18.3334 1.6665 14.6025 1.6665 10.0001C1.6665 5.39771 5.39746 1.66675 9.99984 1.66675C14.6022 1.66675 18.3332 5.39771 18.3332 10.0001ZM8.33307 7.91675C8.33307 8.6071 7.77343 9.16675 7.08307 9.16675C6.39271 9.16675 5.83307 8.6071 5.83307 7.91675C5.83307 7.22639 6.39271 6.66675 7.08307 6.66675C7.77343 6.66675 8.33307 7.22639 8.33307 7.91675ZM14.1664 12.0834C14.1664 12.7738 13.6068 13.3334 12.9164 13.3334C12.226 13.3334 11.6664 12.7738 11.6664 12.0834C11.6664 11.3931 12.226 10.8334 12.9164 10.8334C13.6068 10.8334 14.1664 11.3931 14.1664 12.0834Z" stroke="#989898" stroke-width="1.5" stroke-linecap="round" stroke-linejoin="round"/>
</svg>
