<svg width="23" height="15" viewBox="0 0 23 15" fill="none" xmlns="http://www.w3.org/2000/svg">
<path d="M23.0037 11.5252C16.5789 10.301 15.6106 11.4736 15.4177 11.0324C14.52 8.97358 9.64218 9.29636 9.96686 6.9281C10.4271 3.58618 14.0043 4.9441 13.8 3.36081C13.6415 2.13657 12.6082 2.71527 11.9608 2.76875C9.71093 2.954 7.59478 5.63701 8.19257 7.76081C9.03865 10.7727 12.8661 11.0573 13.2041 11.6207C7.12686 13.4714 7.60815 15.5761 6.04395 14.6211C1.35518 11.7525 0.358219 13.6815 0.633243 10.8682C1.47932 2.22061 14.1896 -3.51287 22.0717 3.98535C23.7505 5.58163 21.7394 5.50752 23.0037 11.5252Z" fill="#FFF1CE"/>
</svg>
