<svg width="20" height="20" viewBox="0 0 20 20" fill="none" xmlns="http://www.w3.org/2000/svg">
<path d="M10.0002 3.33345C9.41935 3.33345 8.84451 3.11534 8.4888 2.6562L8.29022 2.39986C7.67771 1.60923 6.57531 1.3926 5.70917 1.89267L5.12451 2.23022C4.25836 2.73029 3.89477 3.7933 4.27323 4.71908L4.39584 5.01901C4.61574 5.55693 4.51823 6.16109 4.22699 6.66398V6.66398C3.93602 7.16643 3.45882 7.55878 2.88352 7.63723L2.56327 7.6809C1.5723 7.81603 0.833495 8.66242 0.833495 9.66256L0.833494 10.3377C0.833494 11.3378 1.5723 12.1842 2.56327 12.3193L2.88355 12.363C3.45883 12.4414 3.93602 12.8338 4.22698 13.3362V13.3362C4.51821 13.8391 4.61572 14.4432 4.39582 14.9812L4.27321 15.2811C3.89475 16.2069 4.25834 17.2699 5.12449 17.7699L5.70915 18.1075C6.5753 18.6076 7.67769 18.3909 8.2902 17.6003L8.48871 17.3441C8.84443 16.8849 9.41932 16.6668 10.0002 16.6668V16.6668V16.6668C10.5811 16.6668 11.156 16.8849 11.5118 17.3441L11.7101 17.6002C12.3226 18.3908 13.425 18.6074 14.2912 18.1073L14.8758 17.7698C15.742 17.2697 16.1056 16.2067 15.7271 15.2809L15.6045 14.9811C15.3846 14.4432 15.4821 13.8391 15.7734 13.3362V13.3362C16.0643 12.8338 16.5415 12.4415 17.1167 12.363L17.4371 12.3193C18.428 12.1842 19.1668 11.3378 19.1668 10.3377L19.1668 9.66257C19.1668 8.66242 18.428 7.81604 17.4371 7.6809L17.1168 7.63723C16.5415 7.55878 16.0643 7.16644 15.7733 6.66401V6.66401C15.4821 6.16113 15.3846 5.557 15.6045 5.0191L15.7271 4.71922C16.1056 3.79345 15.742 2.73044 14.8758 2.23037L14.2912 1.89281C13.425 1.39274 12.3226 1.60937 11.7101 2.40001L11.5117 2.65613C11.1559 3.11532 10.581 3.33345 10.0002 3.33345V3.33345V3.33345Z" stroke="#656565" stroke-width="1.5" stroke-linecap="round" stroke-linejoin="round"/>
<path d="M12.5002 10.0001C12.5002 11.3808 11.3809 12.5001 10.0002 12.5001C8.61945 12.5001 7.50016 11.3808 7.50016 10.0001C7.50016 8.61937 8.61945 7.50008 10.0002 7.50008C11.3809 7.50008 12.5002 8.61937 12.5002 10.0001Z" stroke="#656565" stroke-width="1.5" stroke-linecap="round" stroke-linejoin="round"/>
</svg>
