<svg width="20" height="20" viewBox="0 0 20 20" fill="none" xmlns="http://www.w3.org/2000/svg">
<path d="M1.66675 3.33341V11.9334C1.66675 14.1736 1.66675 15.2937 2.10272 16.1494C2.48622 16.902 3.09814 17.5139 3.85079 17.8974C4.70643 18.3334 5.82654 18.3334 8.06675 18.3334H11.9334C14.1736 18.3334 15.2937 18.3334 16.1494 17.8974C16.902 17.5139 17.5139 16.902 17.8974 16.1494C18.3334 15.2937 18.3334 14.1736 18.3334 11.9334V11.4001C18.3334 9.15987 18.3334 8.03977 17.8974 7.18412C17.5139 6.43147 16.902 5.81955 16.1494 5.43606C15.2937 5.00008 14.1736 5.00008 11.9334 5.00008H10.0001M18.3334 9.16675H17.9167C16.536 9.16675 15.4167 10.286 15.4167 11.6667V11.6667C15.4167 13.0475 16.536 14.1667 17.9167 14.1667H18.3334M8.33342 9.58342V11.6667M8.33342 11.6667V13.7501M8.33342 11.6667H6.25008M8.33342 11.6667H10.4167M14.1667 5.00008L13.5867 4.22675C12.8828 3.28809 12.5308 2.81875 12.0846 2.48025C11.6895 2.18044 11.2421 1.95673 10.7652 1.82053C10.2267 1.66675 9.64008 1.66675 8.46675 1.66675H3.33341C2.41294 1.66675 1.66675 2.41294 1.66675 3.33341V3.33341C1.66675 4.25389 2.41294 5.00008 3.33342 5.00008H14.1667Z" stroke="#FF70E5" stroke-width="1.5" stroke-linecap="round" stroke-linejoin="round"/>
</svg>
