<svg width="19" height="23" viewBox="0 0 19 23" fill="none" xmlns="http://www.w3.org/2000/svg">
<path d="M17.7009 5.13704C16.893 1.27334 15.2773 1.11863 11.2283 0.826416C-1.15348 1.00786 -0.7505 15.1695 1.41722 16.8177C6.6293 20.7845 5.703 23.5539 7.25765 22.5531C10.875 20.223 13.9995 17.3353 16.6275 13.9643C19.139 10.7443 18.7972 10.3814 17.7009 5.13704ZM10.4987 17.2341C8.36729 17.5205 5.75266 15.2669 6.77254 14.2852C7.25956 13.8173 7.67973 14.1821 8.10564 14.4953C10.111 15.9659 11.8261 15.6469 12.7314 13.7485C13.6615 11.7947 11.0927 11.0766 9.36043 10.1178C6.00476 8.25951 7.02847 4.88303 9.98497 3.93381C11.2608 3.5251 14.1734 3.38949 14.0339 4.84864C13.8735 6.55035 9.73477 4.20883 9.11215 7.07366C8.82185 8.41612 11.9884 9.012 13.3865 10.3145C15.6363 12.4097 14.8953 16.642 10.4987 17.2341Z" fill="#FFF1CE"/>
</svg>
