<svg width="20" height="20" viewBox="0 0 20 20" fill="none" xmlns="http://www.w3.org/2000/svg">
<path d="M13.3334 6.66676L13.7501 6.66675V6.66675C14.2919 6.66675 14.5628 6.66675 14.7906 6.69296C16.6376 6.90546 18.0947 8.36257 18.3072 10.2096C18.3334 10.4374 18.3334 10.7083 18.3334 11.2501V12.5001C18.3334 14.2075 18.3334 15.0613 18.077 15.7424C17.6713 16.8205 16.8205 17.6713 15.7424 18.0771C15.0612 18.3334 14.2075 18.3334 12.5001 18.3334L7.50009 18.3334C5.79264 18.3334 4.93892 18.3334 4.25774 18.077C3.17969 17.6713 2.32888 16.8205 1.92313 15.7424C1.66675 15.0613 1.66675 14.2075 1.66675 12.5001L1.66675 11.2501C1.66675 10.7083 1.66675 10.4374 1.69296 10.2096C1.90545 8.36257 3.36255 6.90546 5.20958 6.69296C5.4374 6.66675 5.7083 6.66675 6.25008 6.66675V6.66675L6.66675 6.66676M10.0001 1.66675V14.1667M10.0001 14.1667L13.3334 10.8334M10.0001 14.1667L6.66675 10.8334" stroke="#FF70E5" stroke-width="1.5" stroke-linecap="round" stroke-linejoin="round"/>
</svg>
