<svg width="15" height="12" viewBox="0 0 15 12" fill="none" xmlns="http://www.w3.org/2000/svg">
<path d="M10.0027 0.360796C6.5764 0.274851 6.2479 3.10912 6.82087 6.45906C6.85525 6.66533 6.88581 6.83339 6.89917 6.95562C7.13791 9.01257 3.72877 10.592 2.78528 6.97663C2.6535 6.47051 2.48352 5.84216 1.71575 5.94148C-0.052804 6.1783 1.32422 11.463 4.90526 11.377C6.31666 11.3312 7.37284 10.8995 8.04894 10.0917C9.26935 8.63251 8.93702 6.35784 8.7594 5.13551L8.71548 4.82992C8.60089 3.9762 8.50157 3.23899 9.36102 2.76151C10.2109 2.29168 10.7342 2.84174 11.4543 3.36122C12.4359 4.06979 12.0731 5.57097 13.2457 5.33987C15.1652 4.96744 13.7098 0.448651 10.0046 0.358887L10.0027 0.360796Z" fill="black"/>
</svg>
