<svg width="19" height="19" viewBox="0 0 19 19" fill="none" xmlns="http://www.w3.org/2000/svg">
<path d="M9.73768 0.602966C0.656176 0.545669 -2.57535 14.0065 2.59853 16.7759C4.3308 17.7041 5.98476 19.1002 8.01306 18.9111C21.684 17.6372 20.8952 0.671721 9.73768 0.602966ZM15.2076 8.15275C14.2164 8.34565 14.6346 6.98007 13.5651 6.20657C12.8833 5.71382 12.2473 5.053 11.2675 5.5954C10.2992 6.13208 10.4081 6.97625 10.5265 7.85671C10.7289 9.37125 11.7182 14.0276 6.89959 14.188C3.59549 14.2968 2.25857 9.32923 3.74255 9.13251C4.37472 9.04847 4.47594 9.55842 4.62301 10.1027C5.64288 13.9034 9.34424 12.152 9.09022 9.93276C8.95844 8.78492 7.50693 3.44105 11.999 3.55183C15.4673 3.63586 16.8616 7.83189 15.2076 8.15275Z" fill="#FFF1CE"/>
</svg>
