<svg width="20" height="20" viewBox="0 0 20 20" fill="none" xmlns="http://www.w3.org/2000/svg">
<path d="M1.66675 3.33341V13.5334C1.66675 15.2136 1.66675 16.0537 1.99373 16.6954C2.28135 17.2599 2.74029 17.7188 3.30478 18.0064C3.94651 18.3334 4.78659 18.3334 6.46675 18.3334H13.5334C15.2136 18.3334 16.0537 18.3334 16.6954 18.0064C17.2599 17.7188 17.7188 17.2599 18.0064 16.6954C18.3334 16.0537 18.3334 15.2136 18.3334 13.5334V9.80008C18.3334 8.11992 18.3334 7.27985 18.0064 6.63811C17.7188 6.07362 17.2599 5.61468 16.6954 5.32706C16.0537 5.00008 15.2136 5.00008 13.5334 5.00008H10.0001M18.3334 9.16675H17.9167C16.536 9.16675 15.4167 10.286 15.4167 11.6667V11.6667C15.4167 13.0475 16.536 14.1667 17.9167 14.1667H18.3334M14.1667 5.00008L13.5867 4.22675C12.8828 3.28809 12.5308 2.81875 12.0846 2.48025C11.6895 2.18044 11.2421 1.95673 10.7652 1.82053C10.2267 1.66675 9.64008 1.66675 8.46675 1.66675H3.33341C2.41294 1.66675 1.66675 2.41294 1.66675 3.33341V3.33341C1.66675 4.25389 2.41294 5.00008 3.33342 5.00008H14.1667Z" stroke="#656565" stroke-width="1.5" stroke-linecap="round" stroke-linejoin="round"/>
</svg>
