<svg width="20" height="20" viewBox="0 0 20 20" fill="none" xmlns="http://www.w3.org/2000/svg">
<g id="Style=Line">
<path id="Vector" d="M1.6665 3.33341V13.5334C1.6665 15.2136 1.6665 16.0537 1.99348 16.6954C2.2811 17.2599 2.74005 17.7188 3.30453 18.0064C3.94627 18.3334 4.78635 18.3334 6.4665 18.3334H13.5332C15.2133 18.3334 16.0534 18.3334 16.6951 18.0064C17.2596 17.7188 17.7186 17.2599 18.0062 16.6954C18.3332 16.0537 18.3332 15.2136 18.3332 13.5334V9.80008C18.3332 8.11992 18.3332 7.27985 18.0062 6.63811C17.7186 6.07362 17.2596 5.61468 16.6951 5.32706C16.0534 5.00008 15.2133 5.00008 13.5332 5.00008H9.99984M18.3332 9.16675H17.9165C16.5358 9.16675 15.4165 10.286 15.4165 11.6667V11.6667C15.4165 13.0475 16.5358 14.1667 17.9165 14.1667H18.3332M14.1665 5.00008L13.5865 4.22675C12.8825 3.28809 12.5305 2.81875 12.0844 2.48025C11.6893 2.18044 11.2419 1.95673 10.765 1.82053C10.2265 1.66675 9.63983 1.66675 8.4665 1.66675H3.33317C2.4127 1.66675 1.6665 2.41294 1.6665 3.33341V3.33341C1.6665 4.25389 2.4127 5.00008 3.33317 5.00008H14.1665Z" stroke="#FF70E5" stroke-width="1.5" stroke-linecap="round" stroke-linejoin="round"/>
</g>
</svg>
